<svg xmlns="http://www.w3.org/2000/svg" viewBox="0 0 291.12 301.14"><defs><style>.cls-1{fill:#d3afa3;}.cls-2{fill:#dbc0b9;}.cls-3{fill:#ddc4bf;}.cls-4{fill:#e8c6ba;}.cls-5{fill:#efd4cb;}.cls-6{fill:#d8b8af;}.cls-7{fill:#e5ccc6;}.cls-8{fill:#ddbeb8;}.cls-9{fill:#c6aba7;}.cls-10{opacity:0.45;}.cls-11{fill:#a39391;}.cls-12{opacity:0.53;}.cls-13{fill:#202a66;}.cls-14{opacity:0.76;}.cls-15{opacity:0.22;}.cls-16{fill:#c44441;}.cls-17{fill:#4800ba;}.cls-18{opacity:0.5;}.cls-19{fill:#282420;}</style></defs><title>raport-adi</title><g id="Layer_8" data-name="Layer 8"><path class="cls-1" d="M765.8,324.05c-2.85,3.23-3.12,7.24-3.82,11.36a52.51,52.51,0,0,1-5.15,15.88q-7.8,15.25-15.71,30.45c-3.12,6,6.08,11.24,9,5.25,5.38-11.09,11.38-22,16.26-33.31a47,47,0,0,0,4-14.51c.44-4.74,1.15-10.48-1.35-14.71a2,2,0,0,0-3.17-.41Z" transform="translate(-559 -232.78)"/><path class="cls-1" d="M689.3,316.2c2,14.46,4.68,28.7,7.5,43,2,10.06,5,20.17,13.93,26.16,4.67,3.13,9-4.41,4.4-7.53-8.16-5.47-9.39-17.75-11.52-26.52-3-12.24-6.1-24.33-9.79-36.37-.91-3-4.91-1.66-4.52,1.24Z" transform="translate(-559 -232.78)"/><path class="cls-1" d="M684.17,312.26c-9-.89-2.17,16.93-1.24,20.36a252.81,252.81,0,0,0,12.15,34.45c1.65,3.81,8.28,1.07,6.76-2.85-3.27-8.45-6.53-16.9-9.5-25.46-1.43-4.14-2.92-8.25-4.29-12.41-.62-1.9-4.21-9.09-2.45-10.65,1.43-1.27.17-3.29-1.43-3.44Z" transform="translate(-559 -232.78)"/><path class="cls-1" d="M702.56,330.58l-1.14-2.17-6.06,3.52c3,3.62,8.59,5.45,13,6.79a43.15,43.15,0,0,0,15.48,1.84c6.14-.41,6.28-9.72,0-9.65a55.84,55.84,0,0,1-13-1.08c-4.11-.93-7.84-3.27-11.93-3.95-4.51-.76-6.54,6-1.92,7l2.09,1.23a2.49,2.49,0,0,0,3.51-3.52Z" transform="translate(-559 -232.78)"/><path class="cls-1" d="M744,334.19c2.65.16,4.8,1.08,7.43,1.14,1.84,0,3.71-.09,5.55-.22a58.11,58.11,0,0,0,12.19-1.76c5.86-1.7,3.38-10.16-2.49-9-3.64.7-7.18,1.83-10.82,2.54-1.81.35-3.66.51-5.46.88-2,.42-4.41,1.36-6.4,1.49a2.49,2.49,0,0,0,0,5Z" transform="translate(-559 -232.78)"/><path class="cls-1" d="M716.88,331.18A117.45,117.45,0,0,0,698.33,336c-4.75,1.65-2.8,9.12,2.1,7.61a15.73,15.73,0,0,1,4.9-.81l-1.1-8.15a28.72,28.72,0,0,0-10.34,4.54c-4.26,3.16-.61,10,4.26,7.28a43.44,43.44,0,0,1,8.28-3.82c4.32-1.32,3.75-8.41-1.1-8.15a21.64,21.64,0,0,0-7.94,1.9l4,6.81a147.6,147.6,0,0,1,16.9-6.92,2.63,2.63,0,0,0-1.39-5.06Z" transform="translate(-559 -232.78)"/><path class="cls-1" d="M755.33,333.71c-2.05-4.54-7.13-6.92-11.78-4.74a4.18,4.18,0,0,0-1.92,4.7,6.3,6.3,0,0,0,9,3.72c2-.94,2.53-3.85,1.48-5.64-1.23-2.11-3.59-2.38-5.64-1.48a2.21,2.21,0,0,1,3.22,1.19l-1.91,4.7c-.89.39,1.62-.72.84-.42a3.16,3.16,0,0,1,.75-.18c-.48.05.24.05.4.06a2.3,2.3,0,0,1,2,.88,2.27,2.27,0,0,0,3,.17,2.32,2.32,0,0,0,.59-3Z" transform="translate(-559 -232.78)"/><path class="cls-1" d="M774.07,324.72c-.48-.1-.54-.11-.61,0,3.51-4.07-2.56-10-5.88-5.88a10.85,10.85,0,0,0-2.39,9.38c.79,4.73,7.1,3.56,8.47,0A34.87,34.87,0,0,0,775.78,312a4.71,4.71,0,1,0-9.3,1.25,26.67,26.67,0,0,1-1.29,12.62h8.47a2.56,2.56,0,0,1,.45-2l-7.59-3.2c-1.79,4.44,2.14,9.58,6.84,9.33,2.87-.15,3.8-4.58.71-5.25Z" transform="translate(-559 -232.78)"/><path class="cls-1" d="M706.46,338.89a18.34,18.34,0,0,0-12.29,5.31l5,5,6.54-6.48a3.94,3.94,0,0,0,0-5.51,5.56,5.56,0,0,0-6.87-.8,15.76,15.76,0,0,0-1.5.95c-1.56,1.06-.32.54-.33.35.91-.09,1.11-.48.59-1.17l-.52-1.53-1.3-3.82a4.53,4.53,0,0,0-8.65,0,62.82,62.82,0,0,0-2.89,24.88c.52,5.79,9.43,6,9.19,0a75.85,75.85,0,0,1,2.35-22.5h-8.65c1.59,3.85,2.91,10.46,7.13,12.28a6.27,6.27,0,0,0,4.74-.09c.6-.23,3.19-2.35,3.44-2.33l-2.77-1.15.53.44v-5.51l-6,7c-2.94,3.42,1.9,8.38,5,5a16,16,0,0,1,8-4.78c3-.82,2.48-5.66-.74-5.53Z" transform="translate(-559 -232.78)"/><path class="cls-2" d="M746.82,336.08c-.77,2.05-1.5,4.12-2.39,6.13a3.8,3.8,0,0,0,2.22,5.45,5.66,5.66,0,0,0,7.58-4.34c.48-3.12-1.74-5.58-5-5-1.06.21-3.07-1.36-4.17-1.63a7.5,7.5,0,0,0-5.64.71c-3.33,2-4.07,6.29-2.36,9.6a8.53,8.53,0,0,0,9.63,4.38c4.49-1,7-5.33,11.16-6.48l-2.47-9a25.31,25.31,0,0,0-13.21,11.26,4.82,4.82,0,0,0,5.38,7,18,18,0,0,0,9.68-6.22l-7.6-5.86c-1.65,3.57-3.36,7.12-4.87,10.76-2.1,5.08,6.49,8.69,8.91,3.75,1.55-3.15,2.9-6.41,4.32-9.63,2.54-5.75-4.59-9.86-8.36-4.88a8.48,8.48,0,0,1-4.61,2.89l5.38,7a15.28,15.28,0,0,1,7.45-7.11c5.34-2.22,3.45-10.7-2.47-9a16.82,16.82,0,0,0-5.85,3.13c-1.48,1.18-3.31,2.23-4.71,3.39-.57.06-.52.17.16.35l-1.45,2.51a21.81,21.81,0,0,0,2.47.75,9.62,9.62,0,0,0,5.37,0l-5.1-3.89,2.31-1.74,2.59,4.56c.58-2.44,1.31-4.82,2-7.23,1.24-4.17-4.94-5.71-6.41-1.76Z" transform="translate(-559 -232.78)"/><path class="cls-2" d="M760.32,348.74a13.07,13.07,0,0,0,5.12-7l-4.93,2.8a9.05,9.05,0,0,0,9.08-4.23c1.55-2.24-.05-5.47-2.49-6.13a15.18,15.18,0,0,0-17,7.05c-2.09,3.64,2.17,8.24,5.89,5.89a35.72,35.72,0,0,0,11.3-11.32c2.89-4.55-4.08-8.4-7.12-4.16a32.52,32.52,0,0,1-8.53,8.05l5.9,5.89a6.53,6.53,0,0,1,7.36-3.35l-2.49-6.13c-.38.58-1.27.57-1.88.71a4,4,0,0,0-2.94,3.87c.18,1.45-.1,1.95-1.23,2.92-2.8,2.41.89,7.24,4,5.15Z" transform="translate(-559 -232.78)"/><path class="cls-2" d="M741.79,341.54a6.67,6.67,0,0,1-4,4.25l4.89,1.28c-1.67-3.32-3.51-6.55-5.3-9.81a3.94,3.94,0,0,0-6.1-.79,36.94,36.94,0,0,0-7.67,10c-1.78,3.39,2.06,8.19,5.66,5.66a20.54,20.54,0,0,0,7.1-8.17c2-4.06-3.19-8.87-6.62-5.11l-8.07,8.85,7.17,1.9A15.69,15.69,0,0,1,728,344c.07-2.6-2.87-5.2-5.49-4.18a13.85,13.85,0,0,0-7,5.45H723l-1.63-3.79c-1.14-2.63-5.13-2.73-6.92-.89l-4.09,4.22,3.13-1.3c-4.3-.26-6.87,3.64-5.93,7.6.85,3.56,6.47,4.54,8.15,1.06,2-4.08,1.54-7.94-1.6-11.29a4.62,4.62,0,0,0-5.46-.7c-6.45,3.06-3.37,10.86,1.94,13s12.85-.67,10.32-7.5c-2.07-5.57-9.67-6.77-14-3.24-5.12,4.17-3.37,11.23,1.34,14.78,4.3,3.25,9.11-3.6,5.6-7.26l-3.12-3.25a4.7,4.7,0,0,0-5.59-.73c-4.75,2.68-7.42,9.78-2.27,13.64A6.91,6.91,0,0,0,714,354.33c.25-4.76-7-5.59-8.2-1.11l4.08.72-5.6-.72,3.11,3.27,5.61-7.26q1.06,1.08-.64-2.39l2.73-2.1c-1.49,0-2.1,1.08-1.82,3.19l-5.46-.71.27.43,8.15,1.07-.19-.78-.45,3.43q-3.67,1.41-.85.84a3.33,3.33,0,0,0,1.51-.79c1.69-1.1,3.12-3.17,4.5-4.63l-6.92-.89,1.69,3.76c1.45,3.25,5.89,2.42,7.55,0l1.77-1.5L719.32,344a22.9,22.9,0,0,0,1.21,7.88c1,2.87,4.9,4.45,7.18,1.89l8-8.95-6.62-5.12a13.35,13.35,0,0,1-4,5.29l5.66,5.66a30.51,30.51,0,0,1,6-8.66l-6.1-.79c1.93,3.18,3.8,6.39,5.84,9.5,1,1.46,3.29,2.5,4.89,1.28a12.76,12.76,0,0,0,5.49-9.74c.26-3-4.19-3.32-5.06-.68Z" transform="translate(-559 -232.78)"/><path class="cls-2" d="M738.91,341.92a27.12,27.12,0,0,1-4.53-16.51c.15-2.81-3.06-4.18-5.29-3a11.28,11.28,0,0,0-5.77,13.24,3.78,3.78,0,0,0,5.5,2.24,20.87,20.87,0,0,0,10.86-20.48,4,4,0,0,0-6.68-2.77,29.88,29.88,0,0,0-6.89,7.93l7.2,3c1.26-4,5.67-12.78-.67-15-6.13-2.16-10.28,7.6-12.75,11.35l7.24,2,.68-1.86-5.59-4.3q-1.2,5.83-2.5,11.63c-1,4.71,5.24,6.15,7,1.94a43.47,43.47,0,0,0,2.13-29l-1,3.71,2.92-3.19c3.36-3.67-1.75-8.73-5.45-5.45a11.45,11.45,0,0,1-6,2.77l2.09,7.6,4.88-1.59-3.07-7.29a12.21,12.21,0,0,0-5.42,9.74l4.07-4.07c-13.88-1.32-26.8,4.84-35.14,15.85-3.32,4.39,4.07,8.58,7.37,4.3a31.89,31.89,0,0,1,27.77-12c2.27.17,4-2,4.07-4.07a3.86,3.86,0,0,1,2.11-3.47c3.16-2.46-.27-7.94-3.88-6.68l-4.85,1.69a3.94,3.94,0,0,0,2.09,7.6,19.13,19.13,0,0,0,9.33-4.92l-5.45-5.45c-1.21,1.37-3.37,3.11-3.84,4.93-.56,2.16.88,4.93,1.23,7.07a32.48,32.48,0,0,1-2.66,19.11l6.65,2.8c1-3.84,1.92-7.69,2.82-11.54.72-3.06-2.68-6.2-5.59-4.3a9.36,9.36,0,0,0-4.61,8.43c.06,4,5.1,5,7.24,2,1.52-2.17,3.63-6.84,6-8.24l-3,.4,1,.16-2.36-1.81c-.72-1.1-.77,1.68-1,2.41l-1.48,4.73c-1.36,4.33,4.9,6.78,7.19,3a25.17,25.17,0,0,1,5.62-6.37l-6.68-2.77c.73,5.88-1.59,11-6.81,14l5.5,2.24a4.3,4.3,0,0,1,2.1-5.19l-5.29-3a30.23,30.23,0,0,0,7.29,19.81c2,2.34,5.9-.7,4.27-3.3Z" transform="translate(-559 -232.78)"/><path class="cls-2" d="M718.46,291.66A64.75,64.75,0,0,1,702,297.05l1.89,6.85a113.38,113.38,0,0,0,24.47-8.12c3.41-1.56,1.8-7.58-2-7.19-15,1.55-31.66,4.11-45.22,11.11-4.19,2.16-1.28,8.8,3.18,7.54,6.85-1.94,13.41-4.76,20.32-6.59a169.32,169.32,0,0,1,21.72-4.34l-1.94-7.19A105.87,105.87,0,0,1,702,297.05c-4.46,1-2.56,7.81,1.89,6.85a71.72,71.72,0,0,0,17.92-6.49c3.83-2,.47-7.61-3.36-5.75Z" transform="translate(-559 -232.78)"/><path class="cls-3" d="M743.44,314.17c1.81-2,5.59-6.6,8.2-3.26l1.48-5.59a104.29,104.29,0,0,0-14.61,7.4l4,6.76c5-3.81,10.85-5.36,17.08-3.84,5,1.24,7.19-6.58,2.14-7.77a27.44,27.44,0,0,0-24,5.47c-3.47,2.78,1,8.5,4.75,6.14,4.36-2.76,8.86-5.31,13.24-8.05a3.39,3.39,0,0,0,.67-5.25c-5.59-6.15-13-1.26-17.11,3.81-2.34,2.9,1.61,7.07,4.18,4.18Z" transform="translate(-559 -232.78)"/><path class="cls-3" d="M749.7,302.91l-.59-3-2.78.08-4.62.13-9.25.2c-4.12.08-4.11,6.25,0,6.38a28.73,28.73,0,0,0,14.8-3.52c3.54-1.87,1.43-6.41-1.85-6.81-5.75-.7-11.69-.49-17.49-.64-5.53-.14-5.5,8.35,0,8.58A40.39,40.39,0,0,0,747,300.26c3.56-1.67,2.3-7-1-8l-17.24-5.16,2.64,6.5c-.41.83-.87-.14.82.47,1.39.5,2.7,1.12,4.05,1.73l8.78,4c5.16,2.36,9.74-5.1,4.53-7.75a19.17,19.17,0,0,0-15.72-1.22,4.59,4.59,0,0,0-1.09,8.27c10.34,7.49,23.33,3.31,34.39,8.23l2.34-8.62L753.3,297.7c-5.08-.33-5.73,6.24-2.36,8.71,2.37,1.74,4.75,3.47,7.18,5.14,5,3.43,9.19-4.42,4.63-7.93-2.34-1.8-4.7-3.55-7.09-5.28l-2.36,8.71,16.13,1c4.39.26,6.57-6.77,2.33-8.62-5.53-2.42-11.14-3.19-17.13-3.63-6.16-.44-12.17-.71-17.36-4.42l-1.08,8.27a10.25,10.25,0,0,1,8.79.24l4.53-7.75c-6.07-2.73-21.11-12.73-25.82-2.94a4.5,4.5,0,0,0,2.65,6.5l17.27,5-1.05-8a32.39,32.39,0,0,1-14.64,3v8.58c5.79-.15,11.74.06,17.49-.63l-1.84-6.81a21.47,21.47,0,0,1-11.11,3.45v6.38c3.7-.32,7.4-.66,11.1-1,2.51-.21,6.25.13,8.48-1.29,2.65-1.7,2.42-5.92-1-6.54-3.22-.58-4.65,4.21-1.37,5Z" transform="translate(-559 -232.78)"/><path class="cls-3" d="M747.67,375.6,728,376.78c-4,.23-4,6.12,0,6.2,5.21.11,9.84-1.05,14.87-2.2,4.29-1,3.22-7.43-1-7.52a69.63,69.63,0,0,0-24.33,4.23c-4.57,1.62-3.46,7.53,1.1,8.09,7.48.92,15,1.79,22.45,2.68l-1.08-8q-6.37,1.72-12.75,3.41c-3.8,1-4,6.94,0,7.86a15.35,15.35,0,0,0,14-3.39c3.43-2.86-1.22-9-4.83-6.26-2.21,1.67-4.3,2.43-7,1.79v7.86l12.75-3.39c4.78-1.27,3.21-7.49-1.09-8-7.48-.92-15-1.87-22.45-2.75l1.09,8.08a76.48,76.48,0,0,1,22.14-4.52l-1.93-7.12c-3.57,2.06-7.88,2.72-11.93,3l.82,6.09,19.5-2.85c2.5-.36,1.92-4.57-.6-4.42Z" transform="translate(-559 -232.78)"/><path class="cls-3" d="M748.77,367.73c-.06-.09-1-1.27-.84-1.48,2.46-4.38-5-7.46-6.28-2.64a15.26,15.26,0,0,1-3,6.07,3.82,3.82,0,0,0,5.41,5.4A26,26,0,0,0,752,362.33l-8.05-1.09.14,12.23c.06,5.49,8.74,5.48,8.53,0l-.47-12.23c-.17-4.49-6.9-5.73-8.05-1.09a19.48,19.48,0,0,1-5.45,9.53l6,4.63a19.37,19.37,0,0,0,3.78-9.79L742.54,367a31,31,0,0,0,2.62,3.56c1.82,1.72,5.15-.56,3.61-2.78Z" transform="translate(-559 -232.78)"/><path class="cls-3" d="M758,359.74l-.1-.11-.81-.63-1-.41a3,3,0,0,0-1.6-.07,2,2,0,0,0-1,.27,2.06,2.06,0,0,0-.89.52,2,2,0,0,0-.72.73,1.93,1.93,0,0,0-.52.88,3.08,3.08,0,0,0-.35,1.56l.14,1.07.41,1,.63.82.82.63,1,.4a3,3,0,0,0,1.61.08,2.06,2.06,0,0,0,1-.28,3,3,0,0,0,1.29-.83l.1-.12a3,3,0,0,0,.8-1.24,2.94,2.94,0,0,0,.33-1.49l-.14-1a3.89,3.89,0,0,0-1-1.71Z" transform="translate(-559 -232.78)"/><path class="cls-3" d="M746.71,345.94a155.32,155.32,0,0,0-3.43-24.47c-.78-3.5-6.64-2.8-6.35.86a22.25,22.25,0,0,0,3.94,10.8c2.66,4,9.19.06,6.39-3.74a30.19,30.19,0,0,1-4-7.92L737,323.19a146.32,146.32,0,0,1,4.89,22.75c.39,2.95,5,3.15,4.78,0Z" transform="translate(-559 -232.78)"/><path class="cls-3" d="M693.94,295.86A185.68,185.68,0,0,0,671.13,320c-3.5,4.43,2.86,9.42,6.19,4.77a186.34,186.34,0,0,1,21-24.49c2.87-2.82-1.41-7-4.37-4.38Z" transform="translate(-559 -232.78)"/><path class="cls-4" d="M716.83,383a7.11,7.11,0,0,0,5,.07c1.44-.51,2.61-2.36,1.56-3.82-1.48-2-3.44-4.55-6-5.12a3.16,3.16,0,0,0-3.7,1.82,3.2,3.2,0,0,0,1.28,3.92l.49.37a8.43,8.43,0,0,0,1.2.5c.47.19-.39-.19.08,0l.68.33a8.92,8.92,0,0,1,1.92,1.3l.53-4.08a2.37,2.37,0,0,1-1.81.43,2.21,2.21,0,0,0-1.17,4.25Z" transform="translate(-559 -232.78)"/><path class="cls-4" d="M716.86,379.9c-.45,6.17,4.65,11.48,10.66,11.91a3.7,3.7,0,1,0,0-7.4,4.67,4.67,0,0,1-4.1-4.51c0-4.26-6.27-4.17-6.56,0Z" transform="translate(-559 -232.78)"/><path class="cls-4" d="M744.94,335.92a1.88,1.88,0,0,0,0-3.75,1.88,1.88,0,0,0,0,3.75Z" transform="translate(-559 -232.78)"/><path class="cls-4" d="M738.1,333.2a46.39,46.39,0,0,0,.36,6.34,2.94,2.94,0,0,0,2.86,2.86c1.4,0,3-1.31,2.86-2.86a50.51,50.51,0,0,0-1.11-7c-.73-2.82-4.86-2.13-5,.68Z" transform="translate(-559 -232.78)"/><path class="cls-4" d="M728.31,324.68c2.93,2,.41,10.24.25,13a36.39,36.39,0,0,0,1.92,13.81c1.5,4.3,7.92,2.61,6.87-1.9-1.59-6.82-1.39-13.06-1.79-19.95-.22-4-1.9-7.2-5.7-8.63-2.26-.85-3.32,2.47-1.55,3.68Z" transform="translate(-559 -232.78)"/><path class="cls-4" d="M730.74,293.58c-.34,6.86-.72,13.71-1,20.56-.21,4.42-.28,9.7,4.43,11.85,11.9,5.44,10.23-16.84,9.09-22.35-.78-3.78-7.2-3-6.81.92a56.81,56.81,0,0,1,.34,10.43c-.13,1.48,0,3.48-.76,4.77.94-1.57.69-3.87.72-5.62.09-6.85.21-13.7.31-20.56.07-4.06-6.07-4-6.28,0Z" transform="translate(-559 -232.78)"/><path class="cls-4" d="M755.91,341.73c-3.44.11-7.3.27-10.33,2.11a9.17,9.17,0,0,0-4.44,8.15,3.28,3.28,0,0,0,2.36,3.1c6.89,1.85,15-5.6,11.16-12.61-1.94-3.59-6.64-4.06-9.77-1.85-4,2.8-3.75,7.7-2.61,11.92,1.49,5.47,10.17,3.09,8.5-2.34a29.62,29.62,0,0,0-.71-2.88c.1.12,0,.29-.29.17a7.46,7.46,0,0,0-2-.53c-.27.16-.47.91-.78,1.19a2.49,2.49,0,0,1-1.79.73l2.24,2.25c-.25-1.47,1.24-2.86,2.33-3.57,1.81-1.17,4.05-1.31,6.13-1.52,2.71-.28,2.83-4.4,0-4.32Z" transform="translate(-559 -232.78)"/><path class="cls-5" d="M754,342.32l-1.83.92a2.21,2.21,0,0,0-.79,3,2.25,2.25,0,0,0,3,.79l1.83-.92a2.22,2.22,0,0,0,.79-3,2.25,2.25,0,0,0-3-.79Z" transform="translate(-559 -232.78)"/><path class="cls-5" d="M751.89,348.4c2.85-.44,4.12-3.81,5.53-6,1.72-2.72-1.14-6.4-4.2-5.47a11.48,11.48,0,0,0-8.24,8.65c-.82,3.84,3.92,7.18,6.91,4a13,13,0,0,0,3.61-8.29c.19-2.24-2.09-4.27-4.23-4.22-6.92.16-13.39,5.27-14.39,12.29-.91,6.36,8,7.65,8.74,1.18a6.2,6.2,0,0,1,5.65-5l-4.22-4.23a3.79,3.79,0,0,1-1,2.45l6.91,4a5,5,0,0,1,3.13-4.05L751,338.62c-1.17,2.38-3.46,5.24-2.34,7.95a2.75,2.75,0,0,0,3.23,1.83Z" transform="translate(-559 -232.78)"/><path class="cls-5" d="M706.25,340.35l-.26.21,1.19-.69a.58.58,0,0,0,.61,0l1,1-.06,1.71c1.08-1.45.24-3.74-1.2-4.58a3.43,3.43,0,0,0-4.59,1.2,16.89,16.89,0,0,0-2.19,5.67,4.12,4.12,0,0,0,5,5c5.64-1.13,7.27-8.93,3.51-12.84-4.82-5-13.64-.54-13.66,6.05s7.56,10.52,13.16,7.54,6-10.91,1.88-15.31A4.68,4.68,0,1,0,704,342c.36.39.36.37,0,0,.24.47.25.45,0-.06a4.85,4.85,0,0,1,.19.75c-.07-.59-.1-.62-.07-.07s0,.52,0-.09c-.14.44-.15.5,0,.17s.12-.27-.1.13c.37-.42.36-.44,0-.05.45-.32.45-.35,0-.09.55-.23.57-.27.07-.13.62-.08.66-.12.12-.1.61.11.66.11.13,0l-.36-.11c.52.24.56.23.1,0,.42.36.45.37.08,0,.32.46.35.47.09,0a1.28,1.28,0,0,1,.26.78c-.1.53-.08.53.05,0-.27.53-.47.53,0,.28q-.55.38.09,0c-.43.16-.41.17.07,0a1.72,1.72,0,0,1-1.48-.33c-.32-.47-.36-.5-.11-.1l-.19-.42c.1.47.11.41,0-.17a4.85,4.85,0,0,1,0,.66c.08-.57.06-.63-.05-.17.22-.49.22-.54,0-.14a1.38,1.38,0,0,1,.61-.61c.51-.18.54-.2.09-.07l5,5a19.16,19.16,0,0,0,.48-7l-6.46,1.78c.61,3.19,5.14,4.73,7.41,2.32s-1.16-5.91-3.78-3.78Z" transform="translate(-559 -232.78)"/><path class="cls-5" d="M752.32,342.34l-2.83,2.19c-2.26,1.75.24,5.12,2.63,4.52a11.32,11.32,0,0,0,8.64-10.73,3.93,3.93,0,0,0-4.94-3.75,11.94,11.94,0,0,0-8.37,9.37,4.38,4.38,0,0,0,3,5.25c2,.56,4.87-.69,5.24-3a5.81,5.81,0,0,1,3.16-4.52l-5.73-2.33a4.58,4.58,0,0,1-.37,2.33,4.36,4.36,0,0,1-2,2.15l2.62,4.51,2.59-2.43a2.56,2.56,0,0,0,0-3.58,2.59,2.59,0,0,0-3.58,0Z" transform="translate(-559 -232.78)"/><path class="cls-5" d="M713.88,337.49a5.21,5.21,0,0,0-2.53,4.81,5.29,5.29,0,0,0,3.68,4.76,3.58,3.58,0,0,0,3.47-.92c1.94-1.71,2.08-4.88.84-7a5.68,5.68,0,0,0-7.67-2.24l6,4.58a3.26,3.26,0,0,1-3.69,2.19l-1.28-.76a2.12,2.12,0,0,1-.79-2.12c.07-.33,0-.27,0,.15l-.12.36c-.12.34-.27.67-.39,1a6.48,6.48,0,0,0,.65,5.78c1.36,1.78,3.77,2.92,5.9,1.55,1.76-1.14,3-4,1.54-5.9-.65-.86.2,1.43.16.86s-.23.75,0,0a13.57,13.57,0,0,0,.47-1.77,6.06,6.06,0,0,0-1.94-6.09,5.54,5.54,0,0,0-4.86-1,5,5,0,0,0-3.57,4.65c-.28,3.15,3.62,4.94,6.1,3.5a2.63,2.63,0,0,1-2.48,0l.37.2c-.45-.38-.57-.47-.35-.27s.12.08-.23-.35c.2.34.17.24-.07-.31.16.62.17.25,0-1.1.74-1,.88-1.33.43-.9l3.46-.91a2,2,0,0,1,1.54,1.88c0-.39,0-.3,0,.28a2.34,2.34,0,0,1-.95,1.3,3.56,3.56,0,0,0-3.59-6.16Z" transform="translate(-559 -232.78)"/><path class="cls-5" d="M737.33,320.79c-1-5-1.57-20.49-10.22-18.14-3.26.88-4.34,4.23-4.4,7.28a108.55,108.55,0,0,0,1.13,14.95c.58,4.64,7.61,5,7.5,0-.06-2.67-.23-5.31-.46-8l-.31-3.62c0-.28,0-3.57-.28-3.81l-2.15.5c.31.68.6,1.36.89,2,.38.9.79,1.78,1.22,2.66,1.24,2.51,2.51,5,3.73,7.51,1,2,3.74.52,3.35-1.41Z" transform="translate(-559 -232.78)"/><path class="cls-5" d="M736.59,296.86a34.8,34.8,0,0,1-13.46-5,3.66,3.66,0,0,0-4.4.57,6.43,6.43,0,0,0-1.62,6.95,3.84,3.84,0,0,0,4.65,2.64c6.94-2.15,12.78-1.81,19.64.37,4.07,1.29,7-5.19,3-7a31.84,31.84,0,0,0-24.61-.63l4.27,1.74-.16,1.09-4.4.57a39.62,39.62,0,0,0,16.35,4.57c3.27.2,4.09-5.28.78-5.8Z" transform="translate(-559 -232.78)"/><path class="cls-5" d="M782.64,327.47l.52-2.72a3.05,3.05,0,0,0-2.89-3.78c-3-.36-5.59,1.71-7.14,4.14a16.67,16.67,0,0,0-1.69,4c-.28.88-.51,2.54-1.34,3.12l5.82,3.34a1,1,0,0,1-.51.72c5-1.57,2.59-9.68-2.14-7.78-3.08,1.24-5.14,3.61-5.08,7.06s4.08,4.8,6.59,2.73a11.3,11.3,0,0,0,3.49-6.62c.23-1.07.43-4.74,2-4.71l-3-3-.26,2.75c-.3,3.18,5,3.92,5.62.76Z" transform="translate(-559 -232.78)"/><path class="cls-5" d="M686.25,325.27a19.2,19.2,0,0,1-9.6-12,3.84,3.84,0,0,0-5.56-2.26c-6.81,3.37-8,13.23-2.47,18.33a4.14,4.14,0,0,0,6.41-.83,10.52,10.52,0,0,0-.43-11.81c-2.69-3.5-9-1.72-7.64,3.23a34.51,34.51,0,0,0,6.34,12.34c2.84,3.6,8.78-1.07,6.33-4.89a40,40,0,0,1-4.61-9.68l-7,4.07a2.24,2.24,0,0,1,0,2.62l6.41-.83a3.76,3.76,0,0,1,.52-6l-5.56-2.26a21.63,21.63,0,0,0,15.16,14.07c2.4.68,4.07-3,1.74-4.12Z" transform="translate(-559 -232.78)"/><path class="cls-5" d="M708.3,342.12c-5.91-.32-10.15,5.71-8.88,11.23.49,2.13,3.61,3.07,5.08,1.34,1.18-1.38,2.34-2.76,3.49-4.16h-4.83l.33.41-.89-1.52c.33.8.2-.16,0,.74-.12.57-.38,1.1-.5,1.68a6.9,6.9,0,0,0,.47,4.43c1.33,2.89,4.45,4.34,7.34,2.66,4.18-2.43.31-9.05-3.78-6.48l.14-.08h2c1.33.36.74,1.51,1.17.28a8.79,8.79,0,0,0,.34-2.39A5.92,5.92,0,0,0,708,345.7a3.46,3.46,0,0,0-5.36.69c-1,1.53-2,3.07-2.9,4.62l5.56.72a3.39,3.39,0,0,1,3-4.74c3.15-.08,3.12-4.7,0-4.87Z" transform="translate(-559 -232.78)"/><path class="cls-5" d="M721.82,384.71c2.92,3.25,7.25,3.59,11,1.57,1.67-.9,1.93-3.94,0-4.77q-8.66-3.67-17.31-7.38c-4.61-2-7.43,4.73-2.67,6.34l17.85,6.09-.66-5.05a4.57,4.57,0,0,1-5.49-.34c-2.18-1.53-4.36,1.72-2.73,3.54Z" transform="translate(-559 -232.78)"/><path class="cls-5" d="M733.87,361l-2.07,10.75,4.25.57a39.36,39.36,0,0,1,8.19-20c1.82-2.37-2.1-5.3-4.12-3.17a79.65,79.65,0,0,1-15.25,12.17c-4.13,2.64-8,5.78-8.8,10.89-.45,2.85,3.18,6.08,5.53,3.22,3.27-4,6.47-8,9.69-12,1.51-1.88,1.13-4.8-1.46-5.52a15.08,15.08,0,0,0-15.42,4.22c-2.9,3.06,1.72,7.7,4.64,4.64a8.55,8.55,0,0,1,9-2.49l-1.45-5.52c-3.24,4-6.5,8-9.7,12l5.65,2.35c.64-4.94,8.19-7.93,11.71-10.64a53.68,53.68,0,0,0,10-10.13l-4.53-2.64a43.73,43.73,0,0,0-8,22.6c-.17,2.41,3.88,3,4.25.58q.85-5.43,1.7-10.86c.38-2.45-3.31-3.56-3.8-1Z" transform="translate(-559 -232.78)"/><path class="cls-5" d="M701.17,300.85l-8.84,4.79c-2.36,1.27-5.08,2.35-7.23,3.94-2.7,2-2.62,6.77,1.53,6.58,3.15-.14,3.09-5.16,0-4.87l-.58,0,1.71.71,0,0-.24,1.85c.56-1.14,2.7-1.91,3.73-2.54l3.77-2.27,8.06-4.88a1.92,1.92,0,0,0-1.94-3.32Z" transform="translate(-559 -232.78)"/><path class="cls-5" d="M708.26,302.7a48.91,48.91,0,0,1,12,3c3.12,1.2,4.73-4.23,1.4-5.06A53.38,53.38,0,0,0,708.26,299c-2.41,0-2.28,3.4,0,3.66Z" transform="translate(-559 -232.78)"/><path class="cls-5" d="M767.87,331.29a1.83,1.83,0,0,0,0-3.66,1.83,1.83,0,0,0,0,3.66Z" transform="translate(-559 -232.78)"/><path class="cls-5" d="M763.78,313.36l-.14-.41-3.19,1.3c2.32,1.38,4.68,2.66,7,4l1.37-5c-1.17.13-2.43.29-2.68-1l-4.09,4.09a11.11,11.11,0,0,1,7.86,10.48c.09,3.68,5.68,3.69,5.72,0a18,18,0,0,0-11.82-16.89c-2.5-.95-4.62,1.83-4.09,4.09,1.12,4.71,7.33,7.71,11,3.9,1.54-1.6.65-3.77-1.2-4.53-2.47-1-4.94-2.05-7.44-3-1.42-.52-2.66.81-2.75,2.09a4.2,4.2,0,0,0,2.07,4c1.82,1.28,3.82-1.5,2.33-3Z" transform="translate(-559 -232.78)"/><path class="cls-5" d="M780.47,314.89l-.36-.09,1.42,1.09-.07-.13a2.78,2.78,0,0,0-3.07-1.25,5.67,5.67,0,0,0-3.75,2.78,5.48,5.48,0,0,0,0,5.35,3.08,3.08,0,0,0,4.17,1.09,3.11,3.11,0,0,0,1.09-4.17c-.31-.53.13.59,0,0,0,.5.07.58.06.25v-.18c-.07.49-.08.57,0,.24l.05-.18c.09-.5-.34.48.06-.08.12-.17-.46.38,0,0,.18-.15-.52.29,0,0,.18-.1.1-.06-.23.1a2,2,0,0,0,.92-.49,2.69,2.69,0,0,0,1-1.54l-1.66,1.65-.25,0a2.3,2.3,0,0,0,.61-4.51Z" transform="translate(-559 -232.78)"/><path class="cls-5" d="M724.1,320.62a38.64,38.64,0,0,1-.12-11.21h-5.6a85.37,85.37,0,0,0,5,21c1.36,3.6,7.21,2,5.79-1.59a86.37,86.37,0,0,1-5.32-20.11c-.46-3.23-5.4-2.28-5.5.74a42.93,42.93,0,0,0,1.38,12.41c.75,2.86,4.8,1.6,4.34-1.2Z" transform="translate(-559 -232.78)"/><path class="cls-5" d="M723.31,323.41a58.06,58.06,0,0,1-4.92,4.49,16.06,16.06,0,0,1-2.53,2,2.87,2.87,0,0,1-1,.41c-.59.09-.46.27.4.51-1.89-2.76-6.18-.34-4.53,2.65,4.22,7.67,13.49-4.08,15.83-7.53,1.32-2-1.63-4.16-3.24-2.5Z" transform="translate(-559 -232.78)"/><path class="cls-5" d="M716.93,332.24a9.54,9.54,0,0,0-5.75,4.28c-1.31,2.06,1.66,4.3,3.35,2.59,4.66-4.72,9.11-9.64,13.64-14.49,2.1-2.26-1.32-5.67-3.39-3.39-4.44,4.94-9,9.81-13.27,14.86l3.35,2.59A5.27,5.27,0,0,1,718,336c2.3-.82,1.39-4.37-1-3.71Z" transform="translate(-559 -232.78)"/><path class="cls-5" d="M718.28,329.13a.55.55,0,0,1-.18,0c.36.07.46.08.31,0a.8.8,0,0,1,.34.18c.16.13.18.14.08.05s-.09-.09.15.21l-.05-.08c-.1-.18-.07-.1.1.26,0-.28,0-.2,0,.23v-.26c-.08.45-.09.56,0,.34l-.16.39c.16-.33-.45.48-.14.16s-.29.19-.41.24-.27.11-.11.06q-.72.07-.36.06l-.44-.06.18.05s-.69-.24-.23-.07c-.3-.11-.44-.36-.18-.13s-.32-.49-.15-.18c-.33-.6-.2-.44-.12-.22a1.57,1.57,0,0,1,0-.91.64.64,0,0,1-.06.18,2.41,2.41,0,0,0,1.67,2.94,2.46,2.46,0,0,0,2.95-1.67,3.63,3.63,0,0,0-1.68-4.08,3.53,3.53,0,0,0-4.34.44,3.31,3.31,0,0,0-.25,4.13,3.24,3.24,0,0,0,3.63,1.47,1.94,1.94,0,0,0,1.38-2.11,1.91,1.91,0,0,0-1.89-1.67Z" transform="translate(-559 -232.78)"/><path class="cls-6" d="M722,330.13l1.85,1.46,1.32-3.18c-3,0-5.7,1.74-8.78,2a19.82,19.82,0,0,1-10.1-1.76l-1.64,6.05a71,71,0,0,0,21.93-2c4.1-1.08,2.32-6.93-1.72-6.24a106.18,106.18,0,0,1-20.21,1.74c-3-.06-4.7,4.74-1.64,6.05a24.76,24.76,0,0,0,12.86,2.2c3.69-.45,9-1.69,10.9-5.22a1.9,1.9,0,0,0-.66-2.55,26.32,26.32,0,0,1-2.37-1.5c-1.88-1.26-3.48,1.68-1.74,3Z" transform="translate(-559 -232.78)"/><path class="cls-6" d="M752.84,339.43c2.39-1,5-1.38,7.41-2.39a57.76,57.76,0,0,0,6.84-3.13c2.53-1.46.81-6.06-2.06-4.89a58.18,58.18,0,0,0-6.72,3.43c-2.31,1.33-4.24,3.18-6.53,4.47-1.31.74-.41,3.12,1.06,2.51Z" transform="translate(-559 -232.78)"/><path class="cls-6" d="M711,330.26c-5.38-.46-11.11-1.08-16.49-.51-3.85.4-4,5.95,0,6.11,5.6.23,11.49-.82,17-1.66,2.38-.36,1.56-3.76-.53-3.94Z" transform="translate(-559 -232.78)"/><path class="cls-6" d="M699.91,339c6.47.86,12.93,1.76,19.42,2.54,3.18.38,3.15-4.62,0-5-6.47-.77-13-1.42-19.42-2.11-2.95-.32-2.86,4.19,0,4.57Z" transform="translate(-559 -232.78)"/><path class="cls-6" d="M728.71,361.82a7.19,7.19,0,0,0-3.79,2.33l4.55,1.88-.05-.38L728.09,368l.47-.23h-2.73l.43.23L725,364.86c-.27,1.64-11.36.71-12.89,1A10.82,10.82,0,0,0,704,371.2c-1.33,2.36.41,4.67,2.84,4.95a98.88,98.88,0,0,0,32.59-1.7c3.78-.82,3-5.75,0-6.92a42.55,42.55,0,0,0-22.86-2.21c-4.72.77-2.7,7.91,2,7.18,7.85-1.23,15.74-2.36,23.54-3.83,3.85-.72,3-7.38-.93-6.91-8.22,1-16.41,2.32-24.59,3.56l2,7.18a35.41,35.41,0,0,1,19,1.95v-6.92a96.19,96.19,0,0,1-30.68,2l2.84,4.95c3.22-6,21.34,1.57,20.74-8.93a2.88,2.88,0,0,0-2-2.65,3.22,3.22,0,0,0-3,.4,2.79,2.79,0,0,0-1.24,3l.08.37c.51,2.48,3.63,2.31,4.87.64l.95-.68c3-1.12,1.85-5.78-1.34-4.88Z" transform="translate(-559 -232.78)"/><path class="cls-6" d="M723.47,357.5l-1.92,1.68c-3.35,1.21-2,6.54,1.49,5.4a30,30,0,0,1,18.31-.34c3.29,1,5.45-3.94,2.36-5.58a40.08,40.08,0,0,0-32.65-2.59,3.36,3.36,0,0,0,.89,6.56,31.67,31.67,0,0,1,10.85,2.49c4,1.63,5.71-4.83,1.78-6.45A37,37,0,0,0,712,356l.89,6.56a34.89,34.89,0,0,1,27.78,1.43l2.36-5.59a35.56,35.56,0,0,0-21.43.83l1.49,5.4a9.09,9.09,0,0,0,5.17-4.32c1.74-3.07-2.92-5.79-4.74-2.76Z" transform="translate(-559 -232.78)"/><path class="cls-7" d="M720.28,347.26c-1.11-4.32-5.66-7.3-9.94-7.76-4.91-.54-9.16,2-12,5.81a3,3,0,0,0,0,3.13,10,10,0,0,0,10.77,4.11c3.89-.86,9.11-3.82,11.23-7.32,2.28-3.76,0-7.22-3.57-8.75a17.5,17.5,0,0,0-13.92.14c-3.39,1.47-1,6.92,2.49,5.91a14.3,14.3,0,0,1,6.18-.77c.84.11,2.16.87,3,.79.72.53.85.5.42-.07q-.33-1-1,.27c-3.28,1.56-7.39,6.18-10.71,1.93l.48,3.76a7.34,7.34,0,0,1,6.89-3.52c2.95.26,4.58,2.19,6.45,4.22,1.35,1.45,3.7-.07,3.24-1.88Z" transform="translate(-559 -232.78)"/><path class="cls-7" d="M708.51,338.34c-4.44-3.57-11.67-1.3-13,4.38-.6,2.57,3.45,3.64,3.93,1.08a4.8,4.8,0,0,1,7.21-3.08c1.42.92,3.19-1.29,1.83-2.38Z" transform="translate(-559 -232.78)"/><path class="cls-8" d="M698,393.21c-.5-1.71-1-3.43-1.49-5.14a1.79,1.79,0,0,0-3.24-.43c-2.24,4.12-4.48,8.23-6.76,12.32-1.2,2.14,1.89,4.81,3.55,2.74a39.67,39.67,0,0,0,7.6-15.59,2.64,2.64,0,0,0-5.09-1.41,48.88,48.88,0,0,0-1.47,20.52c.3,2.38,3.17,4.22,5.13,2.13q6.94-7.38,13.4-15.15l-5.3-3.08A113.05,113.05,0,0,1,699.05,407c-1.11,2.78,2.48,4.84,4.73,3.64A30.06,30.06,0,0,0,714.45,401c2.12-3-2.63-6.67-5.12-3.95A69.27,69.27,0,0,0,699,411.72a3.32,3.32,0,0,0,5.72,3.35,17.79,17.79,0,0,1,13.15-8L715,402c-3.2,4.5-6.5,8.93-9.8,13.35-2.12,2.85,1.92,6.31,4.67,4.68a200.46,200.46,0,0,0,19.49-13.17l-4.16-5.4c-3.38,3-14.46,15.6-4.89,18.41,3.87,1.13,9-2.92,12.07-4.71a135.79,135.79,0,0,0,15-10.31l-5.82-3.39c-1.38,3.62,1.15,7.56,4.9,8.35,4.32.92,7.61-2.52,9.47-6,2-3.72,10.63-22.07-.21-21.09a3.68,3.68,0,0,0-3.39,2.57c-1.87,5.79-.66,25,9.85,21.41,8.62-2.95,3.6-18.34-3.27-20.45-3.53-1.08-7.89.42-9.29,4-.79,2,.11,3.41.15,5.37s1.82.93-1.48,1.41c-1.93.28-3.86.63-5.78.95l-42.36,7c-4.61.76-2.61,7.65,1.92,7,5.12-.76,19.77-.81,18.06-9.62-.71-3.68-4.8-5.78-7.82-7.34a44.26,44.26,0,0,0-5.43-2.35c-.52-.18-8.06-2-7.27-3.19l-6.82-1.85a38.54,38.54,0,0,1-2.17,14.44c-1,2.91-2.26,5.6-.35,8.45,3.47,5.19,14.71,5,20.12,5.06,18.14.25,35.72-5.69,53.87-5.7,4.93,0,4.94-7.71,0-7.67-14.91.14-29.32,4.1-44.09,5.51a88.48,88.48,0,0,1-10.67.44c-2.8-.06-8.95.28-11.33-1.39-1.59-1.12-.86-1.57-.18-3.57a38,38,0,0,0,1.35-5,45.81,45.81,0,0,0,.77-10.52,3.69,3.69,0,0,0-6.82-1.85c-4.08,6,1.62,10.9,7,12.57a62.35,62.35,0,0,1,6.86,2.23c.89.4,4.15,1.57,4.36,2.37.17.64-3,.79-4.31,1l-7,1.06,1.92,7,42.34-7.07c4.17-.7,11.79-.44,13.08-5.76.29-1.24-1.18-4.81-.86-5.38.65-1.17,4.51,6.05,2.34,6.35l2.72.36c-4.35-2.27-3.79-9.52-2.58-13.27l-3.39,2.58-1.53-.47q-.36,1.25-.78,2.46c-.45,1.35-.94,2.7-1.47,4-1,2.6-2.7,5-3.67,7.52,1.39-3.64-3.43-5.25-5.81-3.38a122,122,0,0,1-15.14,10.16c-.79.46-2.65,1.05-3.19,1.76-1.14.26-1.24.95-.31,2.07l.78-1.33c2-1.71,3.43-4.43,5.48-6.27,2.86-2.55-1-7.79-4.17-5.4a197.58,197.58,0,0,1-19.47,13.21l4.67,4.67c3.3-4.43,6.56-8.88,9.73-13.39,1.4-2-.44-5.34-2.91-5.08A25,25,0,0,0,699,411.72l5.72,3.35a62.35,62.35,0,0,1,9.23-13.41l-5.12-4a23,23,0,0,1-8.29,7.34l4.73,3.64a111.89,111.89,0,0,0,5.14-16.89c.62-2.8-3.15-5.73-5.29-3.08-4.25,5.25-8.62,10.38-13.17,15.37l5,1.33a56.3,56.3,0,0,1,.65-18.31l-5.09-1.41A34.53,34.53,0,0,1,686.47,400l3.9,2.28c1.94-4.28,3.93-8.55,5.92-12.81l-3.24-.42q.84,2.55,1.65,5.1c.67,2.06,3.87,1.2,3.26-.9Z" transform="translate(-559 -232.78)"/><path class="cls-8" d="M760.16,405c-.76,2.78-10.35,4.91-13,5.81-4.3,1.46-8.66,2.66-13.06,3.77-4.06,1-2.28,6.85,1.71,6.17q15.34-2.62,30.5-6.17c4.11-1,2.36-7.19-1.74-6.3-14.11,3-28.23,6-42.67,6.89l2.9,5.06c1.91-3.45,8.05-5.13,11.39-6.81l13-6.55c3.21-1.6,1.47-6.28-1.73-6.4a175.39,175.39,0,0,1-29.24-3.58l.84,6.42,1.43-.26c2.93,1.11,5.5-2.7,4-5.18a30.83,30.83,0,0,0-26.07-14.89,3.64,3.64,0,0,0-3.46,4.55c.61,3.32,3.08,4.91,6.27,5.19,2,.17,3.6-1.79,3.61-3.61a12.92,12.92,0,0,0-9.4-12.75c-4.49-1.43-6.44,5.67-1.94,7.05a5.48,5.48,0,0,1,4.13,5.7l3.6-3.61.66.12-3.47,4.55a23.41,23.41,0,0,1,20,11.26l4-5.18c-2.91-1.08-5.21-.29-7.56,1.54-2.06,1.61-.86,5.38,1.55,5.88a187.09,187.09,0,0,0,31.11,3.67l-1.73-6.4-16.49,8.37c-3.87,2-8.11,3.55-10.29,7.53-1.16,2.1.25,5.23,2.9,5.06,15-1,29.74-4.09,44.41-7.32l-1.74-6.3q-15.14,3.61-30.47,6.3l1.71,6.17a141.16,141.16,0,0,0,16.91-6c4.4-1.88,11-3.28,12.18-8.4.68-3.08-3.91-4.38-4.75-1.31Z" transform="translate(-559 -232.78)"/><path class="cls-9" d="M704.79,385.13a6.58,6.58,0,0,0-6.21-2.62,3.09,3.09,0,0,0-2.92,3.84,29.71,29.71,0,0,0,9.69,17.11l4.53-4.53c-2.9-2.67-5.76-5.37-8.72-8-2.43-2.13-6.88-4.81-7.78-8.1l-5.22,4,20.43,15,3.65-6.23a61.84,61.84,0,0,1-12.64-9.39c-2.42-2.32-6-.51-6.23,2.58-.49,5.73,4.22,9.21,9,11.24,7.41,3.18,15.32,5.48,22.93,8.16v-7.19l-1.94-.65-1.89,6.95a107.48,107.48,0,0,0,25.21-1.16l-2-7.24c-3.55,1.14-7.17,2.15-10.62,3.56-4.21,1.71-2.73,8.1,1.93,7,3.62-.87,7.14-2.16,10.69-3.3,4.68-1.51,2.7-8-2-7.24a99.62,99.62,0,0,1-23.21.94c-4.07-.3-4.55,5-1.88,6.95a8.76,8.76,0,0,0,7.69,1.4c3.83-.84,3.24-6.06,0-7.19l-15.09-5.25c-3-1-11.84-2.67-11.5-7l-6.22,2.58a69.64,69.64,0,0,0,14.15,10.46c4.14,2.31,7.33-3.55,3.65-6.23l-20.49-14.94c-2.59-1.88-6,1.23-5.22,4,1.1,3.94,3.88,6.23,6.89,8.82,3.92,3.38,7.92,6.64,11.93,9.9,3.15,2.56,7.69-1.83,4.53-4.53a24.37,24.37,0,0,1-8.38-14.19l-2.92,3.84,2,.78c2.46,3,6.57-1.26,4.22-4.23Z" transform="translate(-559 -232.78)"/><path class="cls-9" d="M769.06,320.8a24.2,24.2,0,0,1-10.42-11.64l-1.76,2.28a17.85,17.85,0,0,1,11,9.62c.87,1.79,3.82.54,3.22-1.36-1.88-5.87-6.85-9-12.68-10.35-3-.7-7-1.58-10.11-1.13-2.29.34-8,5.88-9.35,5.22-2.61-1.26-4.88,2.67-2.27,3.88,4.62,2.14,6.39-.87,9.74-3.44,3.14-2.41,8.31-1.44,11.83-.55,4.15,1.05,7.93,3,9.44,7.31l3.22-1.36a21.11,21.11,0,0,0-13.25-10.83,1.57,1.57,0,0,0-1.75,2.28,25.36,25.36,0,0,0,12.18,11.64c1,.52,2-1,.92-1.57Z" transform="translate(-559 -232.78)"/><path class="cls-9" d="M723.27,320.82c5.52-6.51-3-11.52-8.48-13.1-1.45-.42-2.41.92-2.22,2.22.82,5.46,9.29,3.57,10.14,7.72l2.86-2.2c-8.72-5.1-20.07-7.08-29.67-3.25-2.39.94-1.53,4.58,1.08,3.93,9.43-2.35,18-2.22,26.62,2.68a2,2,0,0,0,2.86-2.19c-1.2-5.43-9.26-3.47-10.41-7.65l-2.22,2.22c3.29.53,11.62,2.79,7.62,7.79-1,1.28.73,3.11,1.82,1.83Z" transform="translate(-559 -232.78)"/><path class="cls-9" d="M695.92,317.17a25.09,25.09,0,0,1-8.76,12l2.88,2.88a8.11,8.11,0,0,0,1.64-7.66,2,2,0,0,0-3.8,1.05,4.07,4.07,0,0,1-.72,3.73c-1.6,2,1,4.79,2.88,2.88a35.2,35.2,0,0,0,8.46-14.17c.52-1.65-2-2.33-2.58-.71Z" transform="translate(-559 -232.78)"/><g class="cls-10"><path class="cls-11" d="M716.52,331.71a17.28,17.28,0,0,1,6.12,1.36l1-3.53q-6.36.25-12.72.53c-2,.09-11,1.77-12.1-.78-1-2.28-5-.64-4.07,1.72,1.28,3.27,4,3.94,7.36,3.91,7.15-.07,14.4-1,21.53-1.59a1.9,1.9,0,0,0,.5-3.72,11.71,11.71,0,0,0-7.91-.39,1.28,1.28,0,0,0,.34,2.49Z" transform="translate(-559 -232.78)"/></g><g class="cls-10"><path class="cls-11" d="M749.76,330.15l-3.17.17-1.21,2.93a118.09,118.09,0,0,0,18.61-.68c2.39-.28,2.54-3.86,0-3.85q-9,0-17.9.19l.55,4a66,66,0,0,1,27.54-2.45c2.23.25,2.78-3.64.53-4A66.52,66.52,0,0,0,745.55,329c-2.14.67-1.82,4,.54,4q9-.17,17.9-.42l-.51-3.78a115.27,115.27,0,0,1-18.1,1c-2.25,0-2.15,3.22,0,3.43s3.66.27,5.61-1c1.3-.85.12-2.93-1.23-2.1Z" transform="translate(-559 -232.78)"/></g><g class="cls-10"><path class="cls-11" d="M726.73,320c-1.3-4.56-2.17-4.58-7.05-5.68A64.52,64.52,0,0,0,704.81,313a2.08,2.08,0,0,0,0,4.15c5.68.07,11.36.07,17,.08v-4.33c-12.16,1.52-24.25,3.41-36.2,6.13-2.61.59-1.49,4.45,1.09,4,11.67-2.17,23.34-4.25,35.11-5.77,2.67-.35,2.87-4.34,0-4.33-5.68,0-11.36,0-17,.1v4.15c6.7-.25,13.08.68,19.7,1.51l-1.35-1c.42,1,.83,2,1.22,3.07.55,1.43,2.78.89,2.35-.65Z" transform="translate(-559 -232.78)"/></g><g class="cls-10"><path class="cls-11" d="M748.13,316.71l-1.91,2.52c-1,1.38.91,2.77,2.16,2.16A68.46,68.46,0,0,1,759,317.25a1.83,1.83,0,0,0-1-3.52c-6.25,1.36-12.5,2.74-18.73,4.2l1.62,3.84a25.09,25.09,0,0,1,24-1.34c2.58,1.22,4.84-2.65,2.25-3.85a29.65,29.65,0,0,0-28.38,1.57,2.11,2.11,0,0,0,1.62,3.83c6.21-1.52,12.4-3.12,18.58-4.73l-1-3.52a73,73,0,0,0-11.2,4.93l2.16,2.16,1.77-2.6c1.11-1.62-1.45-3-2.59-1.51Z" transform="translate(-559 -232.78)"/></g><g class="cls-10"><path class="cls-11" d="M700,364.29l1.69-1.34a1.58,1.58,0,0,0,.32-2.42,24,24,0,0,0-5.52-4.92,1.91,1.91,0,0,0-2.85,1.64,48.87,48.87,0,0,0,5.14,23.07c.88,1.85,4.23,1,4-1.08a41.81,41.81,0,0,0-8.23-20.68c-1.21-1.59-4.51-1.38-4.29,1.17A29.12,29.12,0,0,0,698.5,378c1.37,1.41,4.57.46,4.28-1.78a52.35,52.35,0,0,0-7.09-20.48c-1.65-2.73-5.94-.24-4.29,2.51a46.52,46.52,0,0,1,6.36,18l4.28-1.77a23.89,23.89,0,0,1-7.2-14.72l-3.94,1.63a37.41,37.41,0,0,1,7.66,18.45l3.9-1.64a50.92,50.92,0,0,1-5-20.92l-2.85,1.63a25.91,25.91,0,0,1,5.24,3.83l-.24-1.87c-.43.71-.88,1.4-1.35,2.08-.76,1.14.84,2.11,1.77,1.37Z" transform="translate(-559 -232.78)"/></g><g class="cls-10"><path d="M695.53,363.12l-.14-2.07a1.27,1.27,0,0,0-2.54,0c.17,6.3,4.27,11.61,9.15,15.21a1.92,1.92,0,0,0,2.8-1.14,13.35,13.35,0,0,0-13.64-15.42c-1.49.06-2.83,1.82-1.84,3.21,7,9.83,13.65,20,21.21,29.44,1.55,1.93,4.75-.58,3.42-2.65-6.44-10-13.94-19.37-21-28.94L691.16,364a9.46,9.46,0,0,1,9.89,10.64l2.87-1.64c-4.59-3.13-6.6-7.23-8.58-12.26l-2.31,1,.69,1.92a.94.94,0,0,0,1.81-.49Z" transform="translate(-559 -232.78)"/></g><path d="M699.35,366.43l-1.43,1.82,1.37,1.05c.53-.88,1.07-1.75,1.6-2.64a.94.94,0,0,0-1.62-.94c-.51.89-1,1.8-1.49,2.7a.87.87,0,0,0,1.51.88l1.35-1.88c.54-.75-.72-1.73-1.29-1Z" transform="translate(-559 -232.78)"/><path d="M698.49,365.69a3.07,3.07,0,0,1-1.91-3.18c.09-1.11-1.64-1.1-1.74,0a4.71,4.71,0,0,0,2.76,4.69c1,.45,1.93-1.07.89-1.51Z" transform="translate(-559 -232.78)"/><path d="M694.5,361.57a.93.93,0,0,0,0-1.85.93.93,0,0,0,0,1.85Z" transform="translate(-559 -232.78)"/><path d="M698.17,373.48a.92.92,0,0,0,0-1.83.92.92,0,0,0,0,1.83Z" transform="translate(-559 -232.78)"/><path d="M695,368.23l-1.82.94c-.74.38-.09,1.49.65,1.12l1.83-.93c.76-.37.09-1.52-.66-1.13Z" transform="translate(-559 -232.78)"/><path d="M693.41,368.9l.06-.92a.81.81,0,0,0-.81-.81.83.83,0,0,0-.81.81l.06.92a.75.75,0,0,0,1.5,0Z" transform="translate(-559 -232.78)"/><path d="M690.33,364.46a3.9,3.9,0,0,0-1.4,1.51,1.79,1.79,0,0,0,.28,2,1.86,1.86,0,0,0,1.68.48,1.33,1.33,0,0,0,1.05-1.36.92.92,0,0,0-1.83,0,.75.75,0,0,1,.4-.55.33.33,0,0,1,.17,0,.37.37,0,0,0-.15,0c.05,0,.18.1.07,0s0,0,0,0c-.12-.11,0,.07.06.13s.06.28,0,.15,0,.12,0,0-.1.19,0-.07c0-.05.08-.12,0,0a2.65,2.65,0,0,1,.29-.29s.2-.16.14-.12l.15-.1a1.06,1.06,0,0,0,.37-1.41,1,1,0,0,0-1.41-.37Z" transform="translate(-559 -232.78)"/><path d="M695.69,375.69l.91,1.84c.43.87,1.73.11,1.3-.76L697,375a.75.75,0,0,0-1-.27.76.76,0,0,0-.27,1Z" transform="translate(-559 -232.78)"/><path d="M694.5,368a.94.94,0,0,0,0-1.87.94.94,0,0,0,0,1.87Z" transform="translate(-559 -232.78)"/><path d="M695.06,372l1.83,1.83a.5.5,0,0,0,.71-.71l-1.83-1.84c-.46-.46-1.17.26-.71.72Z" transform="translate(-559 -232.78)"/><path d="M698.64,378.52l1.81,1.85c.6.6,1.53-.34.93-.93l-1.85-1.82a.63.63,0,0,0-.89.9Z" transform="translate(-559 -232.78)"/><path d="M721.85,390.06a3.34,3.34,0,0,0,4.34,2.92,3.38,3.38,0,0,0,1.43-5.1c-.32-.41-1.13-.48-1.25.16-.42,2.25-.1,4.4,1.73,6,.56.48,1.38-.33.82-.81-1.24-1.08-2.1-3-1.3-4.63h-1.18a2,2,0,1,1-3.67,1.37c-.1-.51-1-.41-.92.12Z" transform="translate(-559 -232.78)"/><path d="M728.75,392.12a4.26,4.26,0,0,0-.75,5.44c.49.75,1.7,0,1.2-.7a3,3,0,0,1,.42-3.88c.57-.54-.28-1.38-.87-.86Z" transform="translate(-559 -232.78)"/><g class="cls-12"><path class="cls-13" d="M671.65,297.36l-.19.21,9.18-1.19-.39-.25,3.66,9,.12-.3-5.74,5.74c5.88-2.43,9-8.59,15.31-10,12.91-2.84,9.86-22.85-3.09-22.8l.14.17-3.29,24.33c11.8-.55,17.58-10.4,17.64-21.31,0-2.94,0-4.76.63-6.36,1.4-3.48,2.75-4.63,5.5-6.92l-22.86-13.3a125.21,125.21,0,0,0-5.3,17.78c-1.87,8.49,3.92,17.62,13.26,17.41l37.56-.83c5.94-.13,11.87-.3,17.8-.45,1.46,0,2.93-.1,4.4-.09.28,0,3.37-.05,1.91-.09l1.55.37-.55-.24a2.8,2.8,0,0,1-.81-.72,4.78,4.78,0,0,1-1.31-3.33h27.84c-.27-9.11.6-19.48-2.45-28.19a25.53,25.53,0,0,0-9.84-13.32c-4.87-3.27-10-3.4-15.61-4.12,1.76.23-.09.25-.45-.19.64.78.71.06-.34-.71-2.58-1.88-6.83-2.52-9.89-2.79-5.16-.45-10.43.66-15.5,1.53-10.88,1.86-22.09,4.39-31.75,9.86a13.07,13.07,0,0,0-5.35,16.33c2.76,6.28,8.83,8.79,15.43,7.58,8-1.46,15.61-4.23,23.56-5.88,2.67-.55,7.28-1.43,8.91-1.59a22.07,22.07,0,0,1,3.15-.12l-.67,0c-1.09-.14-.93.11.48.74l4,1.67a25.16,25.16,0,0,0,5.19,1.06c1.09.18,2.18.3,3.28.38,1.72.19,1.92.17.61-.08l1.38.32a4.83,4.83,0,0,1-3.36-2.71c1.54,1.88,0-1.35.56,1.32.87,3.93.1-2.47.3,1.6.08,1.49.14,3,.19,4.47q.2,6.44.38,12.87a13.92,13.92,0,1,0,27.84,0A23.3,23.3,0,0,0,770,262.89c-7.72-3.27-16.18-2.49-24.36-2.27-16.48.43-33,1-49.43,1.47l13.26,17.41a125.33,125.33,0,0,1,5.16-17.83c2.08-5.61-1.39-12.58-6.29-15.45-5.53-3.23-11.9-1.82-16.57,2.14a37.54,37.54,0,0,0-11.57,18.06,39.12,39.12,0,0,0-1.51,10.42,19.38,19.38,0,0,0,.33,5l0,1.72q6.12-6.85,2-4.35c-5.93,3.09-7.71,11.37-4.45,17a12.59,12.59,0,0,0,17,4.44h0l-9-21.21c-7.85,4.24-16.34,14-16.77,23.27a8.13,8.13,0,0,0,4.07,7.09l.26.15c2.85,1.59,7.4,1.47,9.65-1.25l.31-.37c2.78-3.36,2.86-7.33,0-10.7l-.17-.21c-2.5-2.95-7.81-2.7-10.35,0Z" transform="translate(-559 -232.78)"/></g><path d="M737.61,258.83c1.54.14,2.2.69,3.78.46l-1.31-.75c.53,2.64-.43,5.7-1,8.26-.29,1.24-1.3,3.39-.71,4.66a1.17,1.17,0,0,0,1.81.23,1.31,1.31,0,0,0,.27-.35c.77-1.27-1.19-2.4-2-1.16l.31-.29,1.58.41c.39.91.06.49.29-.13a13.39,13.39,0,0,0,.35-1.55c.27-1.22.54-2.44.77-3.67.41-2.25.88-4.7.39-7a1.08,1.08,0,0,0-1.57-.64c-.77.39-2.11-.28-3-.34-1.19-.08-1.16,1.72,0,1.83Z" transform="translate(-559 -232.78)"/><path d="M739.69,260.51c.11,2.08.1,5.51-2.43,6.13-1.1.26-.9,2.17.27,2,3.88-.48,4.48-5,4.29-8.15-.08-1.37-2.21-1.38-2.13,0Z" transform="translate(-559 -232.78)"/><path d="M733.42,261a6.11,6.11,0,0,1-5.17,6.79c-1,.17-.81,2,.26,1.86a7.83,7.83,0,0,0,6.72-9.15c-.21-1.19-2-.68-1.81.5Z" transform="translate(-559 -232.78)"/><path d="M727.63,260.8l-3.7,4.56c-.86,1.06.67,2.58,1.51,1.5l3.63-4.62c.8-1-.61-2.47-1.44-1.44Z" transform="translate(-559 -232.78)"/><path d="M744.57,255.26a15.47,15.47,0,0,1-1.41,11.33c-.58,1.09,1.13,2.05,1.64,1a17.12,17.12,0,0,0,.83-12.58.55.55,0,0,0-1.06.29Z" transform="translate(-559 -232.78)"/><path d="M718.44,265.94l-.93,2.75c-.34,1,1.2,1.39,1.53.42l.94-2.74c.33-1-1.21-1.39-1.54-.43Z" transform="translate(-559 -232.78)"/><path d="M777.34,303.08l.08-.18a.78.78,0,0,0-.28-1.06,1.21,1.21,0,0,0-1.88.86c-.07,1.5,2,1.27,2.16,2.65s-1.13,2.85-1.47,4.1a4.23,4.23,0,0,0,.44,3.79,1.07,1.07,0,1,0,1.68-1.3c-1.09-1.39.86-4.51,1.06-6a3.09,3.09,0,0,0-.32-2.09,2.6,2.6,0,0,0-.72-.72,1.74,1.74,0,0,0-.49-.25c-.44-.29-.86-.18-1.24.33l-.36-.88-.07.18c-.33.81,1.05,1.39,1.41.6Z" transform="translate(-559 -232.78)"/><path d="M684.38,295.61c-4.88.41-8.4,5.56-6.51,10.2a1,1,0,0,0,1.25.7,9.19,9.19,0,0,0,4.16-2.65l-1.8-1-.6,4,2-.26q-1.64-3.3-3.24-6.62a1.11,1.11,0,0,0-1.9,0,32.07,32.07,0,0,0-3.13,7.51c-.24.85.83,1.89,1.64,1.26a24.21,24.21,0,0,0,5.57-5.94l-2.07-.87a2.3,2.3,0,0,1-1.92,1.64l1.45,1.1c-.09-1.74-.19-3.48-.29-5.22a1.17,1.17,0,0,0-2-.82,6.7,6.7,0,0,0-2,5.18c.06,1.49,2.38,1.49,2.32,0a4.37,4.37,0,0,1,1.36-3.54l-2-.82.3,5.22a1.17,1.17,0,0,0,1.45,1.11,4.85,4.85,0,0,0,3.5-3.25c.47-1.26-1.41-1.9-2.08-.87a21.68,21.68,0,0,1-5,5.32l1.88,1.09a29.57,29.57,0,0,1,2.87-7h-1.9q1.6,3.31,3.26,6.6a1.09,1.09,0,0,0,2-.26c.2-1.33.39-2.67.58-4,.14-.94-1-2-1.79-1.05a7,7,0,0,1-3.18,2.22l1.14.47a6.28,6.28,0,0,1,4.79-8.48c.53-.07.41-1-.13-.94Z" transform="translate(-559 -232.78)"/><path d="M773.23,307.54a1.33,1.33,0,0,1,1.18,2l1.5.64c.43-1,.71-2.08,1-3.12a.91.91,0,0,0-1.32-1,4.84,4.84,0,0,0-2.43,5.38,1,1,0,0,0,1.59.42,7.07,7.07,0,0,0,1.84-7.39l-1.85.78a3.17,3.17,0,0,1-.82,3.65c-.94.87.25,2.14,1.28,1.66a7.4,7.4,0,0,0,4.27-6.42,1.09,1.09,0,0,0-1.63-.94c-.77.51-1.54,1-2.3,1.54-1.12.78-.09,2.62,1.09,1.86.78-.49,1.54-1,2.3-1.52l-1.63-.94a5.35,5.35,0,0,1-3.17,4.59l1.28,1.67a5.28,5.28,0,0,0,1.08-6.17c-.48-1-2.23-.3-1.85.78a5.12,5.12,0,0,1-1.23,5.5l1.58.42a2.94,2.94,0,0,1,1.51-3.31l-1.33-1c-.31,1-.67,2.09-.89,3.16-.17.86,1.08,1.53,1.51.64a2.82,2.82,0,0,0-2.6-4.11.66.66,0,0,0,0,1.31Z" transform="translate(-559 -232.78)"/><path d="M676.17,304.18a3.2,3.2,0,0,0,2.67-.75.58.58,0,0,0,.24-.61c-.2-1.19-.38-2.38-.57-3.57a.8.8,0,0,0-1.32-.35,15.61,15.61,0,0,0-4.11,8.48c-.15.94,1.26,1.8,1.72.73,1.31-3.11,2.55-6.24,3.82-9.36h-1.9a8,8,0,0,1-.92,6.53c-.57,1,.85,2.14,1.6,1.23,3.68-4.49,7.43-8.93,11-13.5.8-1-.59-2.48-1.46-1.45-3.75,4.43-7.34,9-11,13.52l1.6,1.23a10,10,0,0,0,1.06-8.09,1,1,0,0,0-1.9,0c-1.22,3-2.47,6.09-3.64,9.16l1.85.25a13.8,13.8,0,0,1,3.38-7.61l-1.32-.35c.27.88,1.76,3.7-.82,3.53-.64,0-.63.92,0,1Z" transform="translate(-559 -232.78)"/><path d="M774.44,309.3a1.5,1.5,0,0,1-.51-2.74h-.69c1.48,1,3,2,4.5,3a.87.87,0,0,0,1.3-.74,9,9,0,0,0-2-6.36.93.93,0,0,0-1.54.41,10.5,10.5,0,0,0,1.42,8.94c.71,1,2.37.07,1.68-1a9,9,0,0,1-1.32-7.46l-1.54.41a7.43,7.43,0,0,1,1.63,5.05l1.3-.75c-1.55-.92-3.1-1.84-4.69-2.7a.68.68,0,0,0-.69,0c-1.84,1.28-1.45,4.58.91,5,.68.11,1-.9.29-1Z" transform="translate(-559 -232.78)"/><g class="cls-14"><path class="cls-13" d="M675.05,391.57c5.08,1.25,10.88-.79,13.09-5.82,2-4.63,1.74-9.85-2.62-13.11a10.18,10.18,0,0,0-13.35.79c-2.72,2.81-4.54,6.32-7,9.36-2.15,2.71-4.56,5.18-6.93,7.68-5.36,5.64-10.79,11.16-16.39,16.57-11.3,10.9-22.57,22.19-30.08,36.14-6.7,12.46,8.89,24.22,19.29,14.89q10.39-9.31,21.34-18c3-2.35,6-4.73,9.11-6.88.1-.06,3.59-1.69,2.35-1.56.25,0,3.46,1.17,4.45,1.52,17.29,6.18,34.1,11.93,52.44,14,17.82,2.05,36.59,0,52.62-8.47,16.53-8.75,28.82-31,16.21-48.23L769.42,410.7a162.65,162.65,0,0,1,16.09,8.39q3.53,2.13,7,4.45c1.37.93,2.71,1.88,4,2.85a13.66,13.66,0,0,1,1.59,1.21,144,144,0,0,1,12.7,11.75q2.87,3,5.57,6.1c1.08,1.25,2.13,2.53,3.18,3.81a17.86,17.86,0,0,1,1.6,2.07l17.65-23c-17.15-5.68-35-4.29-52.52-1.15-15.48,2.78-32.31,7.71-46.74,9.24-17.55,1.86-35.29,1.84-52.91,2.33s-36-.21-53.63,2c-8,1-15.88,6.38-15.47,15.47.4,8.87,6.8,14.85,15.47,15.47,17.69,1.26,35.9-.49,53.63-1,17-.5,34.06-.53,51-2.21s33.31-5.75,50-9.24c8.27-1.74,12.78-2.66,20.82-3.06a92.71,92.71,0,0,1,12.36.23c5.25.45-2.42-.6,2.79.37,2.35.44,4.66,1,7,1.65,6.41,1.81,14.46-1.14,17.66-7.19,3.49-6.6,2.14-13.32-2.45-18.94a170,170,0,0,0-61.39-47.18c-6.08-2.71-12.89-2.68-17.88,2.31-4.25,4.25-6.19,12.73-2.31,17.88a12.16,12.16,0,0,1,1.54,2.3q-.9-2.11-.17.38l-.27-1.14c-.09,1.77-.07,1.87,0,.29q-.81,2.47,0,.5l-.68,1.23q-1.43,2.21-.41.63a26.47,26.47,0,0,1-2.15,2.09c1.68-1.42-1.87,1.17-2,1.24-1,.57-3.53,1.91-3.82,2a64.87,64.87,0,0,1-9.8,3c-6.57,1.53-13.66,1.72-21.27,1.21-7.22-.48-14.33-2-21.91-3.55s-15.38-3.45-23-5.44c-9.32-2.43-18-5.42-27.21-.93-7.15,3.46-13.48,9.48-19.62,14.43q-10.14,8.18-19.71,17L633,455.58c6.9-13.14,17.41-23.08,28.08-33.6,5.72-5.64,11.44-11.27,16.29-17.69,4.5-6,10.32-13.49,11.78-21l-17,4.48.62.76-2.45-4.2.19,1v-4.72l-.24,1.06,2.12-3.64-.71.83c-3.57,4.14-2.55,11.24,3.35,12.69Z" transform="translate(-559 -232.78)"/></g><g class="cls-15"><path class="cls-16" d="M716.49,366.48h.38a3.06,3.06,0,0,0,3-3c.38-2.93-2.48-4.42-5-3.6a3.57,3.57,0,0,0-2.53,2.53c-.89,6,3.8,10.68,9.31,12.21,6.71,1.86,13.67-1,19.44-4.32,5-2.87.6-10.23-4.5-7.69-3.17,1.59-6.5,3.82-10.17,4-2.22.13-7.28-.91-6.87-4l-4.66,2.68.48.21-1.5-2.62.08.59,2.16-2.85-.36.11c-3.05.93-2.6,5.83.77,5.71Z" transform="translate(-559 -232.78)"/></g><path class="cls-17" d="M703.6,505.17H707l10.47,28.4h-4.3l-7.87-22.91-7.87,22.91h-4.3ZM698,523.55H712.9v3.79H698Z" transform="translate(-559 -232.78)"/><path class="cls-17" d="M724,533a6,6,0,0,1-2.39-2.82,10.91,10.91,0,0,1-.82-4.45v-4.47a11.18,11.18,0,0,1,.8-4.48,6.06,6.06,0,0,1,2.33-2.82,6.8,6.8,0,0,1,3.68-1,6.09,6.09,0,0,1,3.29.94,7,7,0,0,1,2.42,2.64l-.41,4.14a4.84,4.84,0,0,0-.47-2.21,3.23,3.23,0,0,0-1.36-1.4,4.6,4.6,0,0,0-2.16-.47,3.85,3.85,0,0,0-3,1.23,5,5,0,0,0-1.09,3.45v4.42a4.89,4.89,0,0,0,1.09,3.41,3.9,3.9,0,0,0,3,1.2,4.37,4.37,0,0,0,2.16-.5,3.27,3.27,0,0,0,1.36-1.44,5,5,0,0,0,.47-2.24l.27,4.27a5.65,5.65,0,0,1-2,2.52,5.55,5.55,0,0,1-3.39,1A7.06,7.06,0,0,1,724,533Zm8.9-27.78h4v28.4h-4Z" transform="translate(-559 -232.78)"/><path class="cls-17" d="M742.94,505.17h4v4h-4Zm0,8.12h4v20.28h-4Z" transform="translate(-559 -232.78)"/><circle class="cls-17" cx="26" cy="61.22" r="26"/></g><g id="Layer_9" data-name="Layer 9"><path d="M772.06,303.34a33.88,33.88,0,0,0-.19,16.53,1.51,1.51,0,0,0,2.74.36c1.55-2.58,4.55-7.38,8.28-5.39,1.79,1,1.34,3.37,1,5s-.79,3.37-1.27,5c-1.75,6.13-4.67,13.28-11.29,15.4-1.84.58-1.05,3.48.79,2.89,6.53-2.09,10.15-8,12.34-14.19a47.57,47.57,0,0,0,2.66-10.35c.44-3.79-1.73-7-5.71-7.14-4.54-.14-7.3,3.77-9.39,7.25l2.74.36a30.63,30.63,0,0,1,.2-14.95,1.5,1.5,0,0,0-2.9-.79Z" transform="translate(-559 -232.78)"/><path d="M766.1,341.83c.76,11.41-5,21.73-11.08,30.94-5.47,8.27-11.64,18.91-22.16,21.06-11,2.25-21.46-4.57-28.85-11.94a148.56,148.56,0,0,1-11-12.68,37.63,37.63,0,0,1-4.8-7.07,39.73,39.73,0,0,1-2.53-8.29C682.5,340,679.31,326,680,311.75c.1-1.93-2.9-1.93-3,0-.62,13.39,2.09,26.62,5.07,39.6a89.65,89.65,0,0,0,2.37,9.29,28.48,28.48,0,0,0,4.37,8,164.5,164.5,0,0,0,11.3,13.55c7.74,8.21,18.13,15.67,30,15A23.82,23.82,0,0,0,744.63,391c4.16-3.68,7.32-8.37,10.44-12.92,7.34-10.68,14.93-22.71,14-36.21-.13-1.92-3.13-1.93-3,0Z" transform="translate(-559 -232.78)"/><path d="M678.25,312.67c-.86-4.11-5.61-6.09-9.39-4.86-4.05,1.33-6.84,5.22-7.94,9.2a17.76,17.76,0,0,0,.88,11.74c1.63,3.75,4.53,6.32,8,8.36s7.83,3.83,9.55,7.87c.76,1.77,3.34.24,2.59-1.52-2.73-6.4-10.44-7.44-14.89-12.11s-5.2-13.28-.7-18.3c1.3-1.45,3.14-2.75,5.19-2.63a4,4,0,0,1,3.83,3.05c.4,1.89,3.29,1.09,2.89-.8Z" transform="translate(-559 -232.78)"/><path d="M680.83,306.37c4-4.71,2.75-11,1.55-16.56a41,41,0,0,1-.19-18.24c2.89-12.39,11.31-22.58,22.34-28.71a59.68,59.68,0,0,1,38.28-6.28c6.65,1.08,13.54,3.07,19.3,6.63a19,19,0,0,1,6.44,6.18c1.81,3,2.53,6.54,3.35,9.91,3.63,14.83,7.16,31,1.09,45.72-.74,1.78,2.16,2.56,2.89.8,5.62-13.58,3.26-28.67.06-42.54-1.53-6.64-2.65-14-7.68-19.06-4.67-4.65-11.29-7.19-17.51-8.95a64.36,64.36,0,0,0-41.6,2.07c-12,4.95-22.19,13.88-27.36,25.92a42.23,42.23,0,0,0-3.38,21.25c.39,3.47,1.35,6.83,1.9,10.28.51,3.21.64,6.85-1.6,9.46-1.26,1.46.86,3.59,2.12,2.12Z" transform="translate(-559 -232.78)"/><path d="M683.08,298a77.06,77.06,0,0,1,36.16-12.18c12.77-.95,26.4,1,37.79,7.12a53.61,53.61,0,0,1,16.31,13.49c1.22,1.5,3.33-.63,2.12-2.12-8.72-10.72-21-17.34-34.4-20.09A80.71,80.71,0,0,0,701.77,286a78.8,78.8,0,0,0-20.2,9.36c-1.62,1.05-.11,3.64,1.51,2.59Z" transform="translate(-559 -232.78)"/><path d="M711,269.59a1.5,1.5,0,0,0,0-3,1.5,1.5,0,0,0,0,3Z" transform="translate(-559 -232.78)"/><path d="M710,270.14c4.42-1.2,9,.67,13.27,1.6a76.64,76.64,0,0,0,13.32,1.66c3.83.13,8.68.52,12-1.82a10.2,10.2,0,0,0,3.91-8.64c-.1-4-2.18-7.65-4.32-10.94-1.93-3-4.09-6.39-7.79-7.25a15.68,15.68,0,0,0-6.25.23c-2,.35-3.92.71-5.86,1.14a38.19,38.19,0,0,0-11,4c-6.57,3.85-11.77,12-8.85,19.73.68,1.79,3.58,1,2.89-.8-2.19-5.79,1.23-12.12,6.05-15.44a30.3,30.3,0,0,1,9.66-4.12,59.79,59.79,0,0,1,10.16-2,6.28,6.28,0,0,1,4.66,1.19,16,16,0,0,1,3.16,3.87c1.92,2.9,4.1,6.06,4.47,9.62.27,2.66-.55,5.79-3,7.16a10.54,10.54,0,0,1-4.83,1c-2.07.08-4.14.05-6.21,0a72.57,72.57,0,0,1-13.43-2c-4.19-1-8.45-2.28-12.75-1.11a1.5,1.5,0,0,0,.8,2.89Z" transform="translate(-559 -232.78)"/><path d="M719,250.44l4.85,13.91a1.51,1.51,0,0,0,2.89,0q2.35-6.78,4.69-13.55H728.5A26.91,26.91,0,0,0,733.1,261a1.54,1.54,0,0,0,2.36.31,17.15,17.15,0,0,0,5.63-12.82c0-2-2.8-1.88-3,0a25,25,0,0,0,2.75,14.32,1.51,1.51,0,0,0,2.59,0l3.82-8.11c.82-1.72-1.69-3.24-2.59-1.51a4.6,4.6,0,0,0,2.78,6.54,1.5,1.5,0,0,0,.79-2.9,1.55,1.55,0,0,1-1-2.13l-2.59-1.51-3.82,8.11h2.59a22.29,22.29,0,0,1-2.34-12.81h-3a14.16,14.16,0,0,1-4.75,10.7l2.36.3a24.92,24.92,0,0,1-4.31-9.52c-.33-1.55-2.44-1.3-2.89,0q-2.34,6.78-4.69,13.55h2.89l-4.84-13.91c-.64-1.81-3.53-1-2.9.8Z" transform="translate(-559 -232.78)"/><path d="M730.41,249a3.77,3.77,0,0,0-1.47,5,1.49,1.49,0,0,0,1.29.74,1.53,1.53,0,0,0,1.3-.74,6.87,6.87,0,0,0,.9-5.58,1.5,1.5,0,0,0-1.25-1.08,1.47,1.47,0,0,0-1.49.72,3.12,3.12,0,0,0-.33,1.34,3.18,3.18,0,0,0,.33,1.32,3.88,3.88,0,0,0,3.52,2,3,3,0,0,0,2.31-1.32,1.51,1.51,0,0,0-.9-2.21,9,9,0,0,0-7.17,1.31,1.5,1.5,0,0,0,1.15,2.74l4.19-1a1.52,1.52,0,0,0,1.05-1.84,1.54,1.54,0,0,0-1.85-1.05l-4.19,1,1.16,2.75a6.79,6.79,0,0,1,.67-.42c.08,0,.53-.35.62-.31l-.09,0,.19-.07a2.65,2.65,0,0,1,.37-.12,4.74,4.74,0,0,1,.72-.18,1.59,1.59,0,0,0,.34-.06h-.1l.19,0a6.15,6.15,0,0,1,.74,0H733a1.8,1.8,0,0,0,.39,0h-.1l.19,0,.39.09-.9-2.21s.26-.29.09-.13l-.08.08c-.11.12.33-.2.13-.11l-.1.06c-.18.12.34-.1.18-.08l-.11,0c-.24.08.19,0,.2,0h-.39c-.17,0,.42.08.19,0l-.11,0s-.26-.12-.3-.1.36.17.19.07l-.14-.07s-.23-.16-.24-.15.3.25.16.12l-.12-.11s-.13-.19-.18-.2.21.32.13.16a.57.57,0,0,1-.08-.13s0-.07-.05-.1.11.38.07.17a.2.2,0,0,0,0-.11c-.07-.19,0,.3,0,.2a.48.48,0,0,0,0-.12c0-.25,0,.19,0,.2a.24.24,0,0,1,0-.12c0-.11.12-.33-.07.12l-2.74-.36c.05.18.06.39.12.57,0-.12,0-.31,0-.06,0,.08,0,.16,0,.24a5.66,5.66,0,0,1,0,.58,1.94,1.94,0,0,1,0,.24c0,.14.06-.37,0,0a5.94,5.94,0,0,1-.29,1c-.06.18.14-.29,0,0a2.1,2.1,0,0,1-.13.26,5.09,5.09,0,0,1-.3.5h2.59c-.11-.23.07.28,0,.11a1.06,1.06,0,0,0-.06-.19.4.4,0,0,1,0-.15s0,.41,0,.13c0-.1,0-.26,0-.35s-.08.38,0,.13c0-.06,0-.13,0-.19s0-.1.05-.15c-.06.33-.12.24,0,.11a1,1,0,0,0,.1-.17c.09-.17-.06.09-.1.12a1.43,1.43,0,0,0,.27-.28s-.29.19-.12.09l.21-.11a1.5,1.5,0,0,0-1.52-2.59Z" transform="translate(-559 -232.78)"/><path d="M734,249.29c-1.64,3.08.2,7.39,3.78,7.92a1.53,1.53,0,0,0,1.7-2.21l-2.59-5.41-1.69,2.21,6.57.95c.85.13,2-.37,1.9-1.44a5.43,5.43,0,0,0-5-5,1.44,1.44,0,0,0-1.3.74c-2.77,5.35,3.4,11.64,8.81,9.26a1.53,1.53,0,0,0,.54-2.06,11.41,11.41,0,0,0-4.46-4.6c-.89-.52-2.39.12-2.26,1.29a8.87,8.87,0,0,0,3.59,6.28c.84.63,1.92-.09,2.21-.89,1-2.87-1.19-5.65-3.84-6.54-3.22-1.09-6.5.93-9.06,2.68a1.51,1.51,0,0,0,.76,2.79c3.57.42,5.79-4.94,2.94-7.15a1.53,1.53,0,0,0-2.36.3c-2.85,5.43-13.63,3.94-13.54,11.57a1.5,1.5,0,0,0,2.25,1.29c2.16-1.45,4.25-5.86,1.3-7.67-2.5-1.54-5.21.7-6.51,2.7-.64,1-1.38,2.52-2.76,2-1.55-.64-2.81-1.8-4.63-1.32-3.22.85-2.17,6.09,1,5.07,1.83-.59,1.05-3.49-.79-2.89.7,0,.9.24.6.71a1.65,1.65,0,0,1,.66.13,6.47,6.47,0,0,1,1.16.62,5.44,5.44,0,0,0,2.66.86,4.89,4.89,0,0,0,3.77-2.26c.77-1,1.3-2.49,2.6-2.92a1.13,1.13,0,0,1,.7-.09c-.24-.12-.06-.07-.07.19a2.79,2.79,0,0,1-1.19,2.33l2.26,1.3c0-2.73,3.39-3.75,5.45-4.6,2.91-1.21,6.13-2.51,7.68-5.45l-2.35.3a1.16,1.16,0,0,1-.82,2l.76,2.8c1.66-1.14,3.65-2.64,5.78-2.55,1.51.06,3.3,1.36,2.7,3l2.21-.9a5.53,5.53,0,0,1-2.11-3.69l-2.25,1.3a8.58,8.58,0,0,1,3.38,3.53l.54-2.05c-2.69,1.18-6-2.64-4.71-5.16l-1.29.75a2.34,2.34,0,0,1,2,2l1.9-1.45-6.57-1a1.52,1.52,0,0,0-1.7,2.2l2.59,5.41,1.69-2.2a2.52,2.52,0,0,1-2-3.52c.9-1.7-1.69-3.22-2.59-1.51Z" transform="translate(-559 -232.78)"/><path d="M722.17,255a7.1,7.1,0,0,0,5.89-4.5,1.5,1.5,0,0,0-1.44-1.9,18.43,18.43,0,0,0-11.58,5,1.52,1.52,0,0,0,1.06,2.57,12.39,12.39,0,0,0,6.24-1,1.52,1.52,0,0,0,.3-2.36,5.65,5.65,0,0,0-8,0,1.52,1.52,0,0,0,1.06,2.56,84.91,84.91,0,0,0,11.6-.82c1-.15,1.25-1.44.89-2.21-1.78-3.83-8.39-3-9.22,1.14a1.52,1.52,0,0,0,1.45,1.89,28.61,28.61,0,0,0,13.42-2.59c1.44-.65.61-2.74-.75-2.79l-5.08-.2.4,3,5.06-1.16c1.71-.39,1.23-2.86-.4-3a33.71,33.71,0,0,0-14.9,2.7,1.51,1.51,0,0,0,0,2.59,6.41,6.41,0,0,0,7.29-1.07,1.52,1.52,0,0,0-1.06-2.56,14.78,14.78,0,0,0-9.18,2,1.52,1.52,0,0,0,.76,2.8l4-.14a1.52,1.52,0,0,0,1.06-2.56c-2-2-6.38-1-6.66,2.13-.15,1.76,2.26,2.65,3.68,2.76a5,5,0,0,0,4.08-1.65c1.24-1.46-.87-3.59-2.12-2.12a2.07,2.07,0,0,1-3.1.15l.38,1.46a1,1,0,0,1,1.62-.61l1.06-2.56-4,.14.76,2.79a12.06,12.06,0,0,1,7.66-1.63l-1.06-2.56a3.32,3.32,0,0,1-3.66.6V254A30.39,30.39,0,0,1,733,251.66l-.4-2.94-5,1.15c-1.7.39-1.25,2.89.39,2.95l5.08.2-.76-2.8a25.43,25.43,0,0,1-11.91,2.18l1.44,1.9a2.08,2.08,0,0,1,3.74-.41l.9-2.2a79.63,79.63,0,0,1-10.8.71l1.06,2.56a2.62,2.62,0,0,1,3.79,0l.31-2.35a9.55,9.55,0,0,1-4.73.6l1.06,2.56a15.1,15.1,0,0,1,9.46-4.14l-1.45-1.9a4,4,0,0,1-3,2.3,1.54,1.54,0,0,0-1.5,1.5,1.51,1.51,0,0,0,1.5,1.5Z" transform="translate(-559 -232.78)"/><path d="M735.25,251.42c-2.76.37-3.4,5.13-.28,5.37,2.6.19,3.7-3.9,1-4.7a1.51,1.51,0,0,0-1.9,1.44l0,6.47a1.5,1.5,0,0,0,3,0,11.87,11.87,0,0,0-2.7-7.87,1.53,1.53,0,0,0-2.12,0,11.72,11.72,0,0,1-12.06,1.18l-.76,2.8a6.46,6.46,0,0,0,6.44-4.62,1.5,1.5,0,0,0-1.45-1.9,20.18,20.18,0,0,0-14.67,8.87c-1.08,1.61,1.52,3.11,2.59,1.52a16.9,16.9,0,0,1,12.08-7.39l-1.44-1.9a3.43,3.43,0,0,1-3.55,2.42,1.51,1.51,0,0,0-.76,2.79,14.85,14.85,0,0,0,15.7-1.65H732.3a8.71,8.71,0,0,1,1.82,5.75h3l0-6.47L735.2,255c-.45-1.07-.64-1.4-.58-1-.27.33.13.42,1.2.26.38,0-.94.22.23.06a1.52,1.52,0,0,0,1.05-1.85,1.54,1.54,0,0,0-1.85-1Z" transform="translate(-559 -232.78)"/><path d="M718.53,256.79a2.46,2.46,0,0,0-1.2-2.12,2.54,2.54,0,0,0-.88-.33,3.83,3.83,0,0,0-1.35,0,3,3,0,0,0-1.72.9,3.77,3.77,0,0,0-.89,2.64,8.32,8.32,0,0,0,.61,2.65,1.64,1.64,0,0,0,.69.9,1.52,1.52,0,0,0,1.16.15,1.5,1.5,0,0,0,.89-.69,1.46,1.46,0,0,0,.16-1.15,8.79,8.79,0,0,1-.54-1.88l.06.4a3.24,3.24,0,0,1,0-.88l-.06.4a2.61,2.61,0,0,1,.16-.61l-.15.36a1.81,1.81,0,0,1,.23-.41l-.23.3a1.67,1.67,0,0,1,.23-.23l-.31.24a1.79,1.79,0,0,1,.38-.22l-.36.15a2.72,2.72,0,0,1,.49-.13l-.4.06a2.18,2.18,0,0,1,.51,0l-.4-.06a1.82,1.82,0,0,1,.4.11l-.36-.15a1.12,1.12,0,0,1,.28.16l-.31-.24a1,1,0,0,1,.18.17l-.23-.3a1.14,1.14,0,0,1,.1.19l-.15-.36a.79.79,0,0,1,.06.22l-.05-.4a1,1,0,0,1,0,.17,1.56,1.56,0,0,0,.44,1.06,1.5,1.5,0,0,0,2.56-1.06Z" transform="translate(-559 -232.78)"/><path d="M679.66,280.89a51.79,51.79,0,0,0-7.26,26.38,1.5,1.5,0,0,0,3,0,48.55,48.55,0,0,1,6.85-24.86,1.5,1.5,0,0,0-2.59-1.52Z" transform="translate(-559 -232.78)"/><path d="M763.14,368.05c-3,6.09-4.44,13.45-1.7,19.92,2.32,5.47,7.42,9.68,13.46,10,1.93.11,1.92-2.89,0-3-4.92-.28-9.11-4-10.85-8.51-2.15-5.52-.88-11.77,1.68-16.92.86-1.72-1.73-3.24-2.59-1.51Z" transform="translate(-559 -232.78)"/><path d="M691.12,371.47l-4.4,15.78c-1.45,5.19-3.15,10.38-4.32,15.65a12.09,12.09,0,0,0,.13,7,10.53,10.53,0,0,0,3.81,4.64c3.6,2.6,8.29,3.92,12.46,5.27A124.54,124.54,0,0,0,728,425.75c8.51.65,17.38.05,25.23-3.53A29.24,29.24,0,0,0,770.06,400a1.57,1.57,0,0,0-1-1.85,1.52,1.52,0,0,0-1.85,1,26.31,26.31,0,0,1-13.07,19.21c-6.91,3.9-15.11,4.79-22.92,4.51a113.42,113.42,0,0,1-26.85-4.57,94.59,94.59,0,0,1-13.09-4.52,13.77,13.77,0,0,1-4.67-3.06,6.79,6.79,0,0,1-1.53-5.72,62.19,62.19,0,0,1,2-7.92l2.34-8.37L694,372.26a1.5,1.5,0,0,0-2.9-.79Z" transform="translate(-559 -232.78)"/><path d="M693,377,669,384c-7.1,2.1-14.71,3.75-20.64,8.43a79.6,79.6,0,0,0-8,7.8c-2.78,2.9-5.55,5.82-8.26,8.79a184.7,184.7,0,0,0-14.58,18,157.29,157.29,0,0,0-13,22.22c-.83,1.73,1.75,3.26,2.59,1.52a161.61,161.61,0,0,1,25.23-37.47c5-5.64,10.18-11.36,15.68-16.55a28.43,28.43,0,0,1,8.83-5.72c3.51-1.42,7.21-2.38,10.83-3.45l26.15-7.71c1.84-.54,1.06-3.44-.8-2.89Z" transform="translate(-559 -232.78)"/><path d="M769.05,377.67a1,1,0,0,1-1,.25,2.54,2.54,0,0,1-.52-.2l-.18-.18c-.09-.18-.12-.15-.08.1.05,0,0,.3-.09.24a2.83,2.83,0,0,1,.35-.1,4.81,4.81,0,0,1,1.5.25,14.5,14.5,0,0,1,3.47,2.24c1.5,1.08,3,2.21,4.4,3.37,2.3,1.87,5.25,3.89,6.52,6.65.87,1.89.26,5.29-2.4,5v3a34.47,34.47,0,0,1,8.28,1.78,78.65,78.65,0,0,1,7.35,3.37c4.61,2.12,9.87,2.06,14.71,3.5a49.45,49.45,0,0,1,22.39,14.2A48,48,0,0,1,842,433.73c.78,1.76,3.37.24,2.59-1.51a52.09,52.09,0,0,0-30.26-27.5,47.66,47.66,0,0,0-6.75-1.81c-2.77-.52-5.64-.64-8.3-1.62-2.91-1.08-5.54-2.81-8.46-3.89a38.19,38.19,0,0,0-9.73-2.11c-1.93-.17-1.89,2.8,0,3,3.24.35,5.58-2.74,5.84-5.7.31-3.63-2.59-6.6-5.11-8.78a78.83,78.83,0,0,0-10.28-7.93c-2-1.22-6.06-2-7,.95-.55,1.69.8,3.23,2.3,3.82a4.09,4.09,0,0,0,4.39-.86c1.38-1.36-.74-3.48-2.12-2.12Z" transform="translate(-559 -232.78)"/><path d="M680.16,370.57l8.36-3.44a1.5,1.5,0,0,0-.79-2.89,65.77,65.77,0,0,0-35.35,21.84,64.11,64.11,0,0,0-6.76,9.82,1.5,1.5,0,0,0,2.59,1.51,63.06,63.06,0,0,1,29.37-26.65,60.5,60.5,0,0,1,10.94-3.63l-.79-2.89-8.37,3.44c-1.76.72-1,3.62.8,2.89Z" transform="translate(-559 -232.78)"/><path d="M782.16,320c-5.91.89-10,7.87-7.93,13.46a1.5,1.5,0,1,0,2.89-.8,8.39,8.39,0,0,1-.27-.85l-.09-.44c-.08-.34,0,.14,0-.18a9.51,9.51,0,0,1,0-1.77c0,.29,0-.13,0-.19a3.29,3.29,0,0,1,.09-.43,8.42,8.42,0,0,1,.24-.86c0-.14.1-.28.16-.42.11-.31-.06.08.08-.19s.29-.58.45-.86.32-.51.5-.75l.13-.18c-.07.09-.07.09,0,0s.19-.23.29-.34.41-.43.63-.63.22-.2.34-.29.07-.07,0,0l.18-.13a10.15,10.15,0,0,1,1.43-.83,8.78,8.78,0,0,1,1.67-.43,1.5,1.5,0,0,0,1-1.85,1.53,1.53,0,0,0-1.84-1.05Z" transform="translate(-559 -232.78)"/><path d="M674.27,313.91l-2.11,15.69c-.11.8.77,1.5,1.5,1.5a1.54,1.54,0,0,0,1.5-1.5l2.11-15.69c.11-.8-.77-1.5-1.5-1.5a1.54,1.54,0,0,0-1.5,1.5Z" transform="translate(-559 -232.78)"/><path d="M738.21,312a5.35,5.35,0,0,0,3.88-5.58c-.13-1.3-2.12-2.27-2.79-.76a8.91,8.91,0,0,0-.72,5.06c.22,1.63,2.44,1.2,2.89,0a3.48,3.48,0,0,1,1.47-1.74l-2.05-2.05L739,310.1a1.52,1.52,0,0,0,1.69,2.21A64.88,64.88,0,0,1,755.67,309c.92-.09,2.25-.39,3.11.07s1.36,1.86,1.8,2.71l3.87,7.48c.89,1.72,3.48.2,2.59-1.51-1.44-2.79-2.86-5.59-4.33-8.36-1.26-2.4-3-3.66-5.74-3.5a63.71,63.71,0,0,0-17,3.55l1.7,2.21,1.85-3.21a1.51,1.51,0,0,0-2.05-2.05,6.8,6.8,0,0,0-2.85,3.53h2.89a5.17,5.17,0,0,1,.42-2.74l-2.8-.76a2.39,2.39,0,0,1-1.68,2.69c-1.84.54-1.06,3.44.8,2.89Z" transform="translate(-559 -232.78)"/><path d="M710.62,309.66a1.87,1.87,0,0,0,.73,3.42c1.94.46,2.89-1.76,2-3.27-.78-1.35-2.56-2.22-3.94-2.82a16,16,0,0,0-4.39-1.22,17.08,17.08,0,0,0-16.09,6.7c-1.13,1.57,1.47,3.07,2.59,1.51a13.63,13.63,0,0,1,9.22-5.26,14.23,14.23,0,0,1,5.36.29,12.54,12.54,0,0,1,2.57.93,12.17,12.17,0,0,1,1.11.63,6.1,6.1,0,0,1,.59.4l.19.15c.49.64,1.17.52,2.07-.37l-.16,1.15-.35.36a1.51,1.51,0,0,0-1.52-2.6Z" transform="translate(-559 -232.78)"/><path d="M751.28,321.15a2.74,2.74,0,0,0-1-.6,2.33,2.33,0,0,0-.58-.09h-.24a4,4,0,0,0-.59.09,3.83,3.83,0,0,0-.56.22,3,3,0,0,0-.7.48,2.82,2.82,0,0,0-.88,1.39,2.66,2.66,0,0,0,0,1.19,2,2,0,0,0,.2.55,1.59,1.59,0,0,0,.13.22,2.44,2.44,0,0,0,1.54,1.06,2.92,2.92,0,0,0,1.63-.11,3.45,3.45,0,0,0,.86-.48,3.1,3.1,0,0,0,.66-.69l.1-.18a2.6,2.6,0,0,0,.21-.55,2.57,2.57,0,0,0,0-1.17,1.81,1.81,0,0,0-.61-.89c-.19-.17-.39-.32-.59-.47a4,4,0,0,0-.69-.4,5.45,5.45,0,0,0-1.11-.4,5.75,5.75,0,0,0-1.17-.13,1.5,1.5,0,0,0-1.5,1.5,1.46,1.46,0,0,0,.44,1.06,1.54,1.54,0,0,0,1.06.44,3.71,3.71,0,0,1,.47,0l-.39-.06a4.54,4.54,0,0,1,1,.26l-.36-.15a4.27,4.27,0,0,1,.83.48l-.31-.23a3.57,3.57,0,0,1,.46.4l-.39-.66a.25.25,0,0,1,0,.08l0-.39a.88.88,0,0,1,0,.23l0-.4a.84.84,0,0,1-.06.24l.15-.35a1.14,1.14,0,0,1-.15.23l.24-.3a1.36,1.36,0,0,1-.24.24l.3-.24a1.51,1.51,0,0,1-.35.2l.36-.15a1.69,1.69,0,0,1-.44.12l.4,0a1.53,1.53,0,0,1-.37,0l.4,0a1,1,0,0,1-.29-.08l.36.16-.22-.13.31.23a.87.87,0,0,1-.17-.16l.24.3a1.59,1.59,0,0,1-.13-.22l.15.36a1.74,1.74,0,0,1,0-.22l0,.4a1,1,0,0,1,0-.25l-.06.4c0-.1,0-.19.08-.29l-.15.36a2.07,2.07,0,0,1,.19-.32l-.23.31a1.59,1.59,0,0,1,.29-.29l-.31.24a1.31,1.31,0,0,1,.36-.21l-.36.15a1.4,1.4,0,0,1,.35-.1l-.4,0h.3l-.4,0a.94.94,0,0,1,.24.06l-.36-.15.2.11-.31-.23a.35.35,0,0,1,.09.07,1.59,1.59,0,0,0,1.07.44,1.5,1.5,0,0,0,1.06-2.56Z" transform="translate(-559 -232.78)"/><path d="M733.25,320.67a71.2,71.2,0,0,0,4.61,28.12l2.5-1.46a4.28,4.28,0,0,0-5.07-.28c-1.64.9-2.53,2.4-3.69,3.8-.8,1-2.08,2.27-3.29,1.18-1-.93-1.49-2.58-2.12-3.8-1.46-2.84-4-4.44-7.19-3.79a6.55,6.55,0,0,0-5.46,6,1.5,1.5,0,0,0,1.9,1.44l8.34-2.77a1.52,1.52,0,0,0,.9-2.21,2.77,2.77,0,0,0-4.69,0c-1.09,1.6,1.5,3.1,2.59,1.51-.15.22-.32.23-.49,0l.89-2.21L714.64,349l1.9,1.45c.06-2.11,2.51-3.44,4.43-3.17,2.43.35,3,3.61,4.09,5.38,1.46,2.41,4.16,3.62,6.74,2a12.38,12.38,0,0,0,3.13-3.32c.51-.69,2.27-2.79,3.31-1.95s3.1.1,2.51-1.46a69,69,0,0,1-4.5-27.32c.07-1.93-2.93-1.93-3,0Z" transform="translate(-559 -232.78)"/><path d="M710.84,365c5.53,2,11.53,3.58,17.47,3a23.66,23.66,0,0,0,8.15-2.31c2.13-1,5.08-2.94,7.36-1.37,1.59,1.1,3.09-1.5,1.51-2.59-2.31-1.6-5.05-1-7.47,0-2.77,1.17-5.27,2.59-8.28,3.1-6.05,1-12.3-.69-18-2.74-1.81-.66-2.6,2.23-.79,2.89Z" transform="translate(-559 -232.78)"/><path d="M707.08,364.16a40.32,40.32,0,0,1,15.27-2.88c.9,0,1.81,0,2.71.1a10.59,10.59,0,0,1,1.38.15l.34.08c.45,0,.67.32.64.81v1.06a11.25,11.25,0,0,1,16.42-.67c.67.71,1.73-.36,1.06-1.06-4.87-5.15-14.06-4.85-18.54.67a.77.77,0,0,0,0,1.06c1.11,1.15,2.95-.18,2.68-1.62-.41-2.21-3.95-2-5.56-2.06a42.3,42.3,0,0,0-16.8,2.92c-.89.34-.51,1.79.4,1.44Z" transform="translate(-559 -232.78)"/><path d="M742.19,364.18a18.15,18.15,0,0,1-16.79,9.89c-6.32-.14-12.61-3.15-16.06-8.54-.52-.81-1.82-.06-1.3.75,5.78,9.05,19,12.05,28.19,6.52a19.63,19.63,0,0,0,7.26-7.86c.43-.86-.86-1.62-1.3-.76Z" transform="translate(-559 -232.78)"/><path d="M744.23,329.22c3.72,1.29,7.65,2.61,11.65,2.08a10.35,10.35,0,0,0,7.68-4.64.75.75,0,0,0-1.29-.75,9.11,9.11,0,0,1-7.19,4c-3.6.28-7.11-1-10.46-2.11-.91-.32-1.3,1.13-.39,1.44Z" transform="translate(-559 -232.78)"/><path d="M712.87,328.25a18.81,18.81,0,0,1-15-3.62c-.77-.59-1.52.72-.76,1.3a20.26,20.26,0,0,0,16.19,3.76c1-.18.55-1.63-.4-1.44Z" transform="translate(-559 -232.78)"/><path d="M749.82,319.18l-2.13,5.15a1.48,1.48,0,0,0,.54,1.57,1.52,1.52,0,0,0,1.67.12c.25-.14.5-.28.76-.4l.38-.19.22-.09.28-.11.34-.13c.27-.1.54-.18.81-.27.51-.14,1-.27,1.53-.36l.43-.07c.46-.08-.3,0,.16,0l.86-.07a1.52,1.52,0,0,0,1.5-1.5,9.27,9.27,0,0,0-2.59-6.24,1.52,1.52,0,0,0-2.36.31l-3.15,5c-.25.4-.53.8-.77,1.22a1.94,1.94,0,0,0,.09,2.05,4.72,4.72,0,0,0,1.6,1.72,5.11,5.11,0,0,0,4.28.67,4.67,4.67,0,0,0,3.09-3.34A5,5,0,0,0,756,319.3a1.5,1.5,0,1,0-2.13,2.12l.29.28c.22.23-.16-.27,0,0,.06.11.13.22.19.34s-.08-.3,0,0c0,0,.16.67.17.67,0-.23,0-.26,0-.1s0,.1,0,.15,0,.24,0,.35c0,.39,0,0,0,0s-.07.36-.08.39l-.09.29c-.06.15-.05.12,0-.09l-.09.18-.15.25-.11.16c.12-.16.15-.19.08-.11a1.48,1.48,0,0,0-.25.25c-.19.2.27-.14,0,0l-.3.16c-.27.16.28-.07,0,0l-.37.1c-.32.08.34,0,0,0a3.9,3.9,0,0,0-.68,0c.23,0,.27,0,.11,0l-.15,0-.33-.09c-.35-.12,0,0,0,0a1.67,1.67,0,0,1-.35-.18l-.25-.16c-.13-.09-.11-.07.07.06l-.15-.13-.2-.2-.13-.15c.13.18.16.2.06.07l-.15-.25a.89.89,0,0,1-.08-.17c.08.21.1.23,0,.08l-.15,1.16,4-6.38-2.35.3c.15.16.29.32.43.49s-.15-.24.08.11l.15.21.34.56.17.35s.16.36.09.18.07.19.06.19a2.83,2.83,0,0,1,.11.31c.06.21.12.42.16.63s.05.21.07.32c0,.29,0-.13,0,.05s0,.48,0,.72l1.5-1.5a17,17,0,0,0-7.29,2.13l2.21,1.69,2.12-5.14a1.51,1.51,0,0,0-1.05-1.85,1.54,1.54,0,0,0-1.84,1.05Z" transform="translate(-559 -232.78)"/><path d="M755,321.27l-.05-1.51,0-.67a1.6,1.6,0,0,0-.06-.69c-.27-.46-1.18-.62-1.66-.65a3.52,3.52,0,0,0-3.07,1.52c-1.61,2.38,1.3,5.61,3.87,4.59a3.31,3.31,0,0,0,.4-5.8c-2.55-1.41-5.69.92-7.16,2.9a3.08,3.08,0,0,0-.75,2.22,2.72,2.72,0,0,0,1.16,1.77,4.79,4.79,0,0,0,7.55-5,4.12,4.12,0,0,0-1.92-2.8,4.41,4.41,0,0,0-3.34-.32c-2.34.67-4.23,3.14-3.06,5.57.72,1.5,2.67,1.95,4.19,2a4.75,4.75,0,0,0,4.13-1.67,3.32,3.32,0,0,0,.37-3.75,2.87,2.87,0,0,0-3-1.12,2.14,2.14,0,0,0-1.31,1c-.25.41.4.78.65.37a1.78,1.78,0,0,1,2.29-.47,2,2,0,0,1,1,2.47c-.76,2.72-4.16,2.84-6.33,1.94a2.49,2.49,0,0,1-1.48-2.9,3.49,3.49,0,0,1,1.44-2.08,3.73,3.73,0,0,1,4.87.21,4.32,4.32,0,0,1,.23,5,4,4,0,0,1-5.81,1,1.85,1.85,0,0,1-.85-1.53,3.32,3.32,0,0,1,.94-1.79,8.19,8.19,0,0,1,2.65-2.1,3.77,3.77,0,0,1,3-.32,2.29,2.29,0,0,1,1.43,2.25,2.64,2.64,0,0,1-1.28,2.23,2.39,2.39,0,0,1-2.78-.61,2.21,2.21,0,0,1-.43-2.73A2.75,2.75,0,0,1,753,318.5a2.2,2.2,0,0,1,1.29.41l-.18-.32.09,2.68c0,.48.77.48.75,0Z" transform="translate(-559 -232.78)"/><path d="M714.69,306.65l-1.12,2,.68.29.62-2a.39.39,0,0,0-.26-.46c-1-.38-1.09,1.52-.06,1.48a1.06,1.06,0,0,0,.89-1.1c0-.79-.64-1.28-.79-2-.07-.37-.62-.34-.72,0-.33,1.18-1.79,1.49-2.83,1.69l-2.39.44a4.11,4.11,0,0,1-1.1.15c-.09,0-.36,0-.41-.13s0-.08,0-.12.08-.08,0-.09l.13-.51L705,307.38c-.44.2-.06.85.38.65l2.32-1.07a.39.39,0,0,0,.13-.52c-.38-.79-1.46-.1-1.42.6.07,1.19,1.78.83,2.49.7a23,23,0,0,0,3.77-.81,2.88,2.88,0,0,0,2-1.85h-.72c.12.57.56,1,.72,1.51a.72.72,0,0,1-.07.61c-.07.1,0,0,0,0,.16-.1-.5-.1-.16,0l-.27-.46-.61,2a.37.37,0,0,0,.68.29l1.13-2c.23-.42-.42-.8-.65-.38Z" transform="translate(-559 -232.78)"/><path d="M710.28,309.66a10.14,10.14,0,0,0-7.89-1.26l.2.72,2.57-1a.37.37,0,0,0-.1-.73,11.16,11.16,0,0,0-6.87,2,.38.38,0,0,0,.29.69l4.45-1-.19-.72-6.07,2.19a.37.37,0,0,0,.2.72l5.36-1.19c.47-.1.27-.82-.2-.72l-9.3,1.95.28.68a35.42,35.42,0,0,1,17-3.2l-.09-.74a133.15,133.15,0,0,0-16.21,3.22.38.38,0,0,0,.2.73,131.48,131.48,0,0,1,16.2-3.22c.44-.06.3-.72-.1-.74a36.12,36.12,0,0,0-17.4,3.31c-.41.18-.11.77.28.68l9.31-1.95-.2-.72-5.36,1.19.2.72,6.06-2.19a.37.37,0,0,0-.19-.72l-4.46,1,.29.68a10.5,10.5,0,0,1,6.49-1.94l-.1-.74-2.57,1a.37.37,0,0,0,.2.72,9.4,9.4,0,0,1,7.31,1.18c.41.26.79-.39.38-.64Z" transform="translate(-559 -232.78)"/><path d="M744,307.87l-2.32-.89.16.63c1.87-1.78,4.65-1,6.89-.58s4.42.78,6.42-.32a.38.38,0,0,0-.19-.7l-12.21,1c-.48,0-.49.77,0,.75a85.21,85.21,0,0,1,15.72.72l.1-.74a20.47,20.47,0,0,1-8.13-2l-.09.69a20.24,20.24,0,0,1,10.11,1.09c.46.17.65-.56.2-.72a21,21,0,0,0-10.51-1.1.39.39,0,0,0-.09.69,21.45,21.45,0,0,0,8.51,2.08c.41,0,.52-.68.1-.73a85.64,85.64,0,0,0-15.92-.75v.75l12.21-1-.19-.69c-4.18,2.28-9.69-2.58-13.46,1a.38.38,0,0,0,.17.63l2.32.89c.45.17.65-.56.2-.73Z" transform="translate(-559 -232.78)"/><path d="M749.6,309.16l10.67,1v-.75a48.62,48.62,0,0,1-11.18-.34l-.1.74a95.37,95.37,0,0,1,13.31-.31v-.75l-2.7,0a.38.38,0,0,0,0,.75l2.7,0a.38.38,0,0,0,0-.75,95.37,95.37,0,0,0-13.31.31c-.38,0-.55.67-.1.73a49.24,49.24,0,0,0,11.38.37.38.38,0,0,0,0-.75l-10.67-1c-.48-.05-.47.7,0,.75Z" transform="translate(-559 -232.78)"/><g class="cls-18"><path class="cls-19" d="M717.76,325.75a7.84,7.84,0,0,0-2.41-10.86c-2.38-1.4-5.41-1.06-8-.48a13.39,13.39,0,0,0-7.32,3.94,8.25,8.25,0,0,0-1.8,8.12c.16.45.89.26.72-.2A7.75,7.75,0,0,1,701.5,318a15.43,15.43,0,0,1,9.29-3.27,6.71,6.71,0,0,1,6.75,3.75,6.83,6.83,0,0,1-.43,6.94c-.28.4.37.77.65.38Z" transform="translate(-559 -232.78)"/></g><path d="M708.78,318.2a4.6,4.6,0,0,0-1.17.11,5.09,5.09,0,0,0-1.11.4,3.24,3.24,0,0,0-.36.2,5.67,5.67,0,0,0-.89.73,5.38,5.38,0,0,0-.69.9,1.14,1.14,0,0,0-.1.19,8.59,8.59,0,0,0-.37.88,5.08,5.08,0,0,0-.17,1.16.81.81,0,0,0,0,.22c0,.26.17,1,.11.85a3.09,3.09,0,0,0,.78,1.37,14.29,14.29,0,0,0,1.35,1.09,5.49,5.49,0,0,0,1.5.73,4.88,4.88,0,0,0,1.19.21,1.13,1.13,0,0,0,.26,0h.08c.28,0,.61-.07.88-.12l.18-.05a8.19,8.19,0,0,0,.86-.36l.17-.09A8.59,8.59,0,0,0,712,326a4,4,0,0,0,1.19-2,3.74,3.74,0,0,0-.41-3,2.33,2.33,0,0,0-.77-.85,2.27,2.27,0,0,0-1-.53,3.28,3.28,0,0,0-2.31.3,3,3,0,0,0-1.38,1.79l-.11.8a3,3,0,0,0,.41,1.51,1.09,1.09,0,0,1,.08.15l-.3-.72a1.21,1.21,0,0,1,.05.18l-.11-.79a1.62,1.62,0,0,1,0,.22l.1-.79a1.25,1.25,0,0,1-.07.26l.3-.72a1.17,1.17,0,0,1-.17.28l.47-.6a1.66,1.66,0,0,1-.27.26l.61-.47a1.49,1.49,0,0,1-.3.18l.72-.3a1.78,1.78,0,0,1-.33.09l.8-.11a1.61,1.61,0,0,1-.38,0l.8.11a2,2,0,0,1-.54-.16l.71.3a3.32,3.32,0,0,1-.76-.47l.6.47a7.46,7.46,0,0,1-.61-.53l.77,1.33v-.05l.1.8a1.45,1.45,0,0,1,0-.36l-.11.79a1.9,1.9,0,0,1,.11-.39l-.3.72a2.24,2.24,0,0,1,.22-.4l-.46.61a2,2,0,0,1,.35-.36l-.6.47a2.5,2.5,0,0,1,.39-.23l-.71.31a1.6,1.6,0,0,1,.39-.11l-.8.11h.37a3.38,3.38,0,0,0,2.12-.88,2.25,2.25,0,0,0,.62-1,2.32,2.32,0,0,0,.26-1.16l-.11-.8a3,3,0,0,0-.77-1.32l-.61-.47a3,3,0,0,0-1.51-.41Z" transform="translate(-559 -232.78)"/><path d="M712.63,324.5a.57.57,0,0,1-.2,1l.4,1.45c2.31-.7,1.75-3.92,1.34-5.68a5.16,5.16,0,0,0-1.8-3,3.24,3.24,0,0,0-3.29-.43.74.74,0,0,0-.27,1,.75.75,0,0,0,1,.27,1.86,1.86,0,0,1,1.8.46,4,4,0,0,1,1.12,2.26,9.88,9.88,0,0,1,.28,2.42,2.62,2.62,0,0,1-.17.85.64.64,0,0,1-.43.43.75.75,0,0,0,.4,1.45,2.09,2.09,0,0,0,.86-3.51.77.77,0,0,0-1.06,0,.75.75,0,0,0,0,1.06Z" transform="translate(-559 -232.78)"/><path d="M725.23,356a.38.38,0,0,0,0-.75.38.38,0,0,0,0,.75Z" transform="translate(-559 -232.78)"/><path d="M726.07,357a2.38,2.38,0,0,0-2.27-1.83.38.38,0,1,0,0,.75H724s.06,0,.08,0l.29.08.07,0c-.09-.05,0,0,0,0l.15.07.12.08.07,0,0,0,0,0a2.18,2.18,0,0,1,.22.21l.06.06c.05.06,0-.05,0,0l.09.13s.05.08.07.13a.43.43,0,0,1,0,.07l0,0,0,0a.94.94,0,0,0,.06.15c0,.05,0,.11,0,.16a.37.37,0,0,0,.46.26.38.38,0,0,0,.26-.46Z" transform="translate(-559 -232.78)"/><path d="M723.08,355.26h-.71a.44.44,0,0,0-.27.11.46.46,0,0,0-.11.27.44.44,0,0,0,.11.27.45.45,0,0,0,.27.1h.71a.43.43,0,0,0,.27-.1.46.46,0,0,0,.11-.27.44.44,0,0,0-.11-.27.41.41,0,0,0-.27-.11Z" transform="translate(-559 -232.78)"/><path d="M719.83,356.13l-.72,1.43a.39.39,0,0,0,.13.52.39.39,0,0,0,.52-.14l.72-1.43a.39.39,0,0,0-.14-.51.38.38,0,0,0-.51.13Z" transform="translate(-559 -232.78)"/><path d="M718.54,356.63l-3.44,1.71a.38.38,0,1,0,.38.65l3.44-1.72a.37.37,0,0,0,.13-.51.38.38,0,0,0-.51-.13Z" transform="translate(-559 -232.78)"/><path d="M712.79,358.76l-3.58,2.15c-.41.25,0,.9.38.65l3.58-2.15c.41-.25,0-.9-.38-.65Z" transform="translate(-559 -232.78)"/><path d="M708.05,360.28h-.72a.36.36,0,0,0-.26.11.33.33,0,0,0-.11.26.35.35,0,0,0,.11.27.41.41,0,0,0,.26.11h.72a.36.36,0,0,0,.26-.11.35.35,0,0,0,.11-.27.33.33,0,0,0-.11-.26.36.36,0,0,0-.26-.11Z" transform="translate(-559 -232.78)"/><path d="M704.79,361.86l-.72,1.43a.38.38,0,0,0,.14.51.37.37,0,0,0,.51-.13l.72-1.43a.38.38,0,0,0-.13-.51.38.38,0,0,0-.52.13Z" transform="translate(-559 -232.78)"/><path d="M734.39,356.82l-1.44.72a.38.38,0,0,0-.13.51.38.38,0,0,0,.51.13l1.43-.72a.37.37,0,1,0-.37-.64Z" transform="translate(-559 -232.78)"/><path d="M733.11,358.16h1.43a.38.38,0,1,0,0-.75h-1.43a.38.38,0,1,0,0,.75Z" transform="translate(-559 -232.78)"/><path d="M738.12,356.85l3.58,0a.38.38,0,0,0,0-.75l-3.58,0a.38.38,0,0,0,0,.75Z" transform="translate(-559 -232.78)"/><path d="M742.42,356.73a.38.38,0,0,0,0-.75.38.38,0,0,0,0,.75Z" transform="translate(-559 -232.78)"/><path d="M737.63,354.08c-.15-.29-.51-.46-.75-.15a.93.93,0,0,0,.08,1c.32.49.92.42,1.43.49a21.89,21.89,0,0,1,2.39.46,22.21,22.21,0,0,1,8.66,4.35c.37.3.9-.23.53-.54a22.85,22.85,0,0,0-9.6-4.67c-.57-.13-1.15-.23-1.73-.32a4.48,4.48,0,0,1-.82-.1l-.21-.05a.35.35,0,0,1-.06-.14c-.13-.07.21-.23-.08,0l-.37.1-.12,0c.23.42.88.05.65-.38Z" transform="translate(-559 -232.78)"/><path d="M724.1,379a1.19,1.19,0,0,1-1.51.34.39.39,0,0,0-.56.22c-.31,1.36,1.28,1.64,2.28,1.49a8.72,8.72,0,0,0,2.41-1l3.18-1.56-.55-.23a4.74,4.74,0,0,0,5.95,2.66c.44-.17.25-.89-.2-.72a4,4,0,0,1-5-2.14.38.38,0,0,0-.55-.22l-4.29,2.1a3.34,3.34,0,0,1-1.54.41c-.36,0-1.06-.08-.94-.59l-.55.23a2,2,0,0,0,2.53-.61c.29-.39-.36-.77-.64-.38Z" transform="translate(-559 -232.78)"/><path d="M704.77,374.67l-1.22-1.33a.37.37,0,0,0-.58.08l-1.46,2.07.69.19-.46-3.59a.42.42,0,0,0-.28-.36c-1.05-.41-1.44.77-1.39,1.61a4,4,0,0,0,.78,1.92,33.4,33.4,0,0,0,1.9,2.79c2.3,2.94,6,5.22,9.77,3.62l-.56-.42c-.65,2.5,1,4.69,2.92,6.1,2.39,1.74,5.54,2.38,7.32,4.91a.38.38,0,0,0,.42.17l5-1.81c.62-.22,1.65-.84,2.23-.54.42.22.75.66,1.19.89,2,1,4.43.67,6.54.29l-.46-.26a8,8,0,0,1-.11,6.24l.68.29,1.08-4.87c.34-1.53.42-4.33,2-5,.92-.39,1.78-.49,2.37-1.39a2.78,2.78,0,0,0,.26-2.52.38.38,0,0,0-.68-.09,5.26,5.26,0,0,0-.61,3c0,.33.52.55.7.19l2.81-5.61-.7-.19a3.34,3.34,0,0,0,.93,2.28.39.39,0,0,0,.53,0,8,8,0,0,0,2.71-5.31l-.73.1c.71,1.92,2.9,1.17,3.88-.07a43.35,43.35,0,0,0,2.59-4.22l2.73-4.53c.25-.41-.4-.79-.65-.37l-3.22,5.34-1.49,2.47a6.44,6.44,0,0,1-.79,1.14c-.54.56-1.89,1.24-2.33,0a.38.38,0,0,0-.74.1,7.2,7.2,0,0,1-2.49,4.78h.53a2.48,2.48,0,0,1-.71-1.75.38.38,0,0,0-.7-.19l-2.81,5.61.7.19a4.54,4.54,0,0,1,.51-2.66l-.69-.09a2.06,2.06,0,0,1-.26,2c-.48.64-1.21.7-1.9,1a2.62,2.62,0,0,0-1.62,1.69,33.25,33.25,0,0,0-1,4.09l-1,4.63c-.09.39.5.7.68.29a8.69,8.69,0,0,0,.19-6.82.39.39,0,0,0-.46-.26c-2.45.44-5.58.83-7.32-1.36a.35.35,0,0,0-.36-.1l-7.29,2.63.42.17c-1.32-1.88-3.32-2.85-5.32-3.87-2.42-1.23-5.67-3.38-4.83-6.56a.38.38,0,0,0-.55-.42c-2.79,1.18-5.77-.2-7.75-2.23a19.15,19.15,0,0,1-2.33-3,12.3,12.3,0,0,1-1-1.58c-.06-.12-.58-2,.19-1.72l-.27-.37.46,3.59a.38.38,0,0,0,.7.19l1.46-2.07-.59.07,1.22,1.33c.33.36.86-.17.53-.53Z" transform="translate(-559 -232.78)"/><path d="M702.64,375.29l-2.94,3a.38.38,0,0,0,0,.53,1.53,1.53,0,0,0,2.62-.48l-.55.22a8.36,8.36,0,0,1,3.06,3,2.69,2.69,0,0,1-.92,3.57l.46.59,2.39-2.48-.64-.27c.18,3,4.66,4.22,6.31,1.67l-.68-.09a4.73,4.73,0,0,1-.43,3.2.39.39,0,0,0,.33.57l2.6.15-.37-.37a4.9,4.9,0,0,1-.2,2.08.37.37,0,0,0,.36.47,10,10,0,0,0,3.54-1l-.51-.52a2.46,2.46,0,0,0,4.37,2.24l-.52.14a15.82,15.82,0,0,1,6,4.41.37.37,0,0,0,.36.1,6.8,6.8,0,0,0,3.41-2l-.59-.45c-.56.89.23,1.59,1.06,1.88,1.24.43,2.83,0,4.09-.19,2.48-.45,5.32-1.35,6.84-3.52.36-.51,1.39-2.15.69-2.67-.52-.39-1.1.32-1,.84.23,1.18,1.59.28,2-.22,1.46-1.75,2.74-3.7,4.09-5.53l-.7-.19a1.55,1.55,0,0,0,1.5,1.62c1.33.12,2.13-1.23,2.71-2.21q3.36-5.64,6.69-11.3c.23-.39-.27-.71-.59-.46A46,46,0,0,0,746.91,384a.37.37,0,0,0,.64.37A45.56,45.56,0,0,1,758,372.2l-.59-.45-4.16,7-2,3.41c-.3.51-.58,1-.92,1.53a2.77,2.77,0,0,1-.73.83c-.47.31-1.76.52-1.67-.54,0-.41-.5-.45-.69-.19l-2,2.73-1,1.36a6.86,6.86,0,0,1-1.2,1.58c-.56-.12-.86,0-.88.48l-.08.28a4.53,4.53,0,0,1-.61,1.15,5.76,5.76,0,0,1-1.62,1.49,12.54,12.54,0,0,1-4.13,1.56,22.67,22.67,0,0,1-2.45.38c-.42.05-3.1.14-2.49-.84a.38.38,0,0,0-.59-.46c-.43.45-1.93,1.86-2.71,1.68s-1.32-1.25-1.82-1.68a16.27,16.27,0,0,0-4.31-2.67.38.38,0,0,0-.51.14,1.71,1.71,0,0,1-3.07-1.49.38.38,0,0,0-.52-.51A9,9,0,0,1,714,390l.36.48a5.19,5.19,0,0,0,.23-2.28.4.4,0,0,0-.38-.38l-2.6-.15.32.56a5.62,5.62,0,0,0,.5-3.78.38.38,0,0,0-.69-.09c-1.24,1.92-4.78,1-4.91-1.29a.38.38,0,0,0-.64-.26l-2.39,2.48a.38.38,0,0,0,.45.59,3.29,3.29,0,0,0,1.51-3.69c-.42-1.92-2.14-3.14-3.66-4.2a.38.38,0,0,0-.55.23c-.51.61-1,.66-1.36.15v.53l2.94-3c.34-.35-.19-.88-.53-.53Z" transform="translate(-559 -232.78)"/><path d="M715.94,309.09c0-.07.11-.15.15-.22s-.2.2,0,0,.24-.24.37-.35c-.12.11-.19.12,0,0l.22-.14c.12-.07.58-.24.2-.12.32-.1.62-.18.95-.26s-.32,0,0,0H718a4.69,4.69,0,0,1,.53,0c.09,0,.35,0,0,0l.21,0a4.77,4.77,0,0,1,.51.13l.25.08c.19.06.13.06,0,0a5.06,5.06,0,0,1,.46.24l.21.14c.1.06.21.22,0,0,.11.12.25.23.36.35l.14.16c-.24-.27-.07-.1,0,0s.31.62.16.24l2.2-1.69a6.93,6.93,0,0,0-7.16.3,1.59,1.59,0,0,0-.69,1.7,5.48,5.48,0,0,0,3.66,4.14l.4-2.95a.76.76,0,0,1,.44.13c-.13-.08-.08,0,.15.11a1,1,0,0,1,.26.44c0,.29,0,.35,0,.19s-.07.4,0,0-.17.19,0,0l.1-.16c.09-.13.07-.1-.07.08l.14-.14c.12-.1.09-.09-.09.05a.79.79,0,0,1,.25-.14c-.22.08-.25.1-.1.05s.12,0-.13,0h.31l.46.1c.4.1.8.21,1.21.27a4,4,0,0,0,2.83-.39,1.5,1.5,0,0,0-1.52-2.59c-.36.21.12,0-.1.06s-.29,0-.08,0h-.36c-.15,0,.15,0-.12,0-.51-.11-1-.25-1.53-.35a3.33,3.33,0,0,0-4.21,3,2.15,2.15,0,0,0,2.12,2.17,1.5,1.5,0,0,0,1.48-1.3,1.52,1.52,0,0,0-1.08-1.65c-.16-.06-.17-.06,0,0l-.25-.13-.35-.22c.24.16-.09-.08-.12-.11a2.73,2.73,0,0,1-.33-.35c-.07-.08-.06-.07,0,0l-.15-.23c-.07-.12-.14-.24-.2-.36.14.26,0-.09-.05-.16a4.54,4.54,0,0,1-.12-.53l-.69,1.69a5.21,5.21,0,0,1,.56-.34l.32-.16c-.15.06,0,0,0,0s.46-.14.7-.19.2,0,0,0l.37,0a4.73,4.73,0,0,1,.65,0l.29,0c-.22,0,0,0,.1,0a6.52,6.52,0,0,1,.63.18c.09,0,.19.08.05,0l.39.2a1.5,1.5,0,0,0,1.66-.12,1.46,1.46,0,0,0,.54-1.57,5.75,5.75,0,0,0-5-3.52,5.65,5.65,0,0,0-5.31,2.52,1.51,1.51,0,0,0,.54,2.05,1.53,1.53,0,0,0,2.05-.53Z" transform="translate(-559 -232.78)"/><path d="M744.2,308.25c-.08.06-.39.39-.12.1a1.78,1.78,0,0,1-.36.25c-.24.16-.49.31-.74.45l-.39.19-.2.09q.29-.12.06,0c-.25.1-.51.19-.77.27l-.79.19-.14,0a3,3,0,0,1-.43,0,8.36,8.36,0,0,1-1.73,0,1.47,1.47,0,0,0-1.06.44,1.5,1.5,0,0,0,0,2.12,1.77,1.77,0,0,0,1.06.44,10.23,10.23,0,0,0,7.73-2.42,1.51,1.51,0,0,0,0-2.12,1.54,1.54,0,0,0-2.12,0Z" transform="translate(-559 -232.78)"/><path d="M722.29,305.7a69.77,69.77,0,0,0-14.94-.38l.4,2.95a34.71,34.71,0,0,1,10.88-1c1.93.12,1.93-2.88,0-3A37.71,37.71,0,0,0,707,305.37c-1.59.42-1.32,3.09.4,2.95a69.77,69.77,0,0,1,14.94.38,1.52,1.52,0,0,0,1.5-1.5,1.54,1.54,0,0,0-1.5-1.5Z" transform="translate(-559 -232.78)"/><path d="M727.91,378.71l-3.53,1.82c-.43.22,0,.84.38.65l4-1.78a.37.37,0,0,0-.09-.68,3.21,3.21,0,0,0-3.51,3.83.38.38,0,0,0,.55.22l6.88-3.28c.38-.18.11-.85-.28-.69l-4.08,1.62a.38.38,0,0,0,.1.74,8.7,8.7,0,0,0,4.51-.91.38.38,0,0,0-.19-.7l-6.44.06a.38.38,0,0,0,0,.75l6.44-.06-.19-.7a8,8,0,0,1-4.13.81l.1.74,4.07-1.63-.28-.68-6.88,3.28.55.23a2.45,2.45,0,0,1,2.58-2.91l-.09-.68-4,1.77.38.65,3.53-1.83c.42-.22.05-.87-.38-.64Z" transform="translate(-559 -232.78)"/><path d="M731,382l9.36-1.76c.41-.08.32-.78-.1-.74l-11,1.1.19.7,4.5-2c.44-.19.06-.84-.37-.64l-4.5,2a.38.38,0,0,0,.18.7l11-1.1-.1-.74-9.35,1.77c-.48.09-.28.81.19.72Z" transform="translate(-559 -232.78)"/><path d="M732.89,380.07l-7.66-.24c-.49,0-.49.73,0,.75l7.66.24a.38.38,0,0,0,0-.75Z" transform="translate(-559 -232.78)"/><path d="M711.16,386.41a3.81,3.81,0,0,1-.93-2.54.38.38,0,0,0-.37-.37h-4.41a.38.38,0,0,0-.19.7A24.22,24.22,0,0,0,717,387.68a.38.38,0,0,0,.32-.57,11.35,11.35,0,0,0-5.57-5.45.38.38,0,0,0-.45.06c-1.46,1.2-1.31,3.41-.33,4.86,1.31,1.93,3.84,2.43,6,2.82a.38.38,0,0,0,.42-.55,10.38,10.38,0,0,0-7.21-6c-.26-.06-.56.18-.46.46a15,15,0,0,0,9.14,9.27.38.38,0,0,0,.42-.55,17.28,17.28,0,0,0-11.62-7.33c-.29,0-.63.26-.42.56a32.53,32.53,0,0,0,4.32,5.13,26.71,26.71,0,0,0,5.31,4.1c1.44.8,3.13.45,3.39-1.34s-.63-3.23-1.57-4.58a30.82,30.82,0,0,0-5.23-5.77l-.45.59,6,4.12a.38.38,0,0,0,.55-.43,8.21,8.21,0,0,0-9.85-4.89.38.38,0,0,0-.22.55,10.51,10.51,0,0,0,8.14,5.16.38.38,0,0,0,.37-.38,4.53,4.53,0,0,0-5.2-4.07.38.38,0,0,0-.28.36,3.89,3.89,0,0,0,4.12,4.17c.47,0,.48-.79,0-.75a3.14,3.14,0,0,1-3.37-3.42l-.27.36a3.78,3.78,0,0,1,4.25,3.35l.38-.37a9.73,9.73,0,0,1-7.49-4.79l-.23.55a7.45,7.45,0,0,1,8.93,4.37l.55-.42-6-4.12c-.35-.23-.78.31-.46.59a30,30,0,0,1,5.18,5.72,7.87,7.87,0,0,1,1.31,2.54c.17.71.31,1.83-.34,2.37-1,.83-2.58-.57-3.39-1.14a30.82,30.82,0,0,1-2.84-2.25,31.71,31.71,0,0,1-5-5.69l-.42.55a16.5,16.5,0,0,1,11.17,7l.42-.55a14.23,14.23,0,0,1-8.61-8.75l-.46.46a9.71,9.71,0,0,1,6.76,5.65l.43-.55c-1.82-.34-3.95-.7-5.25-2.14-1-1.16-1.38-3.21-.06-4.29l-.46.06a10.65,10.65,0,0,1,5.3,5.18l.33-.56a23.37,23.37,0,0,1-11.36-3.38l-.19.7h4.41l-.38-.38a4.61,4.61,0,0,0,1.15,3.07c.31.37.84-.16.53-.53Z" transform="translate(-559 -232.78)"/><path d="M726.81,393.7l4.17,3.66c.3.26.84-.08.59-.46a18.16,18.16,0,0,0-9.21-7.13.38.38,0,0,0-.46.46,14.26,14.26,0,0,0,7.26,7.85c.32.15.71-.17.51-.51a12.64,12.64,0,0,0-6.37-5.45.38.38,0,0,0-.42.55,7.15,7.15,0,0,0,8.3,2.53c.49-.19,1.55-.57,1.76-1.11a2.35,2.35,0,0,0-.46-1.94,3,3,0,0,0-3.75-1.09.38.38,0,0,0-.08.59,4.7,4.7,0,0,0,6.2.9c.39-.27,0-.92-.38-.65a4,4,0,0,1-5.29-.78l-.08.59a2.27,2.27,0,0,1,3.11,2.28l.18-.32a6.35,6.35,0,0,1-8.87-1.38l-.42.55A11.83,11.83,0,0,1,729,398l.52-.52a13.59,13.59,0,0,1-6.92-7.4l-.46.46a17.36,17.36,0,0,1,8.76,6.79l.59-.45-4.17-3.66c-.36-.32-.9.21-.53.53Z" transform="translate(-559 -232.78)"/><path d="M739.69,393.81a2.19,2.19,0,0,1-1.44-2.25l-.38.38a20.12,20.12,0,0,0,8.49-2.56.38.38,0,0,0-.29-.69,10.06,10.06,0,0,0-6.4,4c-.25.35.3.74.59.45l7.47-7.17a.38.38,0,0,0-.36-.63,14.19,14.19,0,0,0-6.74,3.92l.59.45a16.83,16.83,0,0,1,5.71-5.26.37.37,0,0,0-.29-.68,15.15,15.15,0,0,0-6.95,3.64.38.38,0,0,0,.37.63,33.89,33.89,0,0,0,10.13-5c.39-.28,0-.93-.38-.65a33.33,33.33,0,0,1-9.95,4.9l.36.62a14.33,14.33,0,0,1,6.62-3.45l-.29-.69a17.8,17.8,0,0,0-6,5.53c-.24.36.3.76.59.46a13.59,13.59,0,0,1,6.41-3.73l-.37-.62-7.47,7.17.59.46a9.37,9.37,0,0,1,5.95-3.69l-.29-.68a19.3,19.3,0,0,1-8.11,2.46.38.38,0,0,0-.37.37,2.94,2.94,0,0,0,2,3c.46.16.66-.56.2-.72Z" transform="translate(-559 -232.78)"/><path d="M749.59,390.22c-2.25,3.67-7.39,2.3-10.92,2.95-2.88.53-6.44,2.41-5.86,5.84a.38.38,0,0,0,.46.26,53.62,53.62,0,0,0,23.15-17.89c.23-.3-.21-.71-.51-.51l-2,1.29a.38.38,0,0,0,.38.65,5.61,5.61,0,0,0,2.84-4.53.36.36,0,0,0-.37-.37,5.32,5.32,0,0,0-4.89,2.78c-.14.26.11.67.43.55a14.63,14.63,0,0,0,4.38-2.61l-.59-.46-3.53,5.44c-.26.41.39.79.65.38l3.53-5.44c.25-.37-.28-.71-.59-.45a13.64,13.64,0,0,1-4,2.41l.42.55a4.57,4.57,0,0,1,4.24-2.4l-.38-.38a4.84,4.84,0,0,1-2.47,3.88l.38.65,2-1.29-.51-.51a52.81,52.81,0,0,1-22.71,17.54l.46.26c-.72-4.26,5.4-5,8.3-5.1s6.65-.24,8.4-3.11c.26-.41-.39-.79-.64-.38Z" transform="translate(-559 -232.78)"/><path d="M711.62,273.31a9,9,0,0,1,1.74,7.28c-.09.47.63.67.73.2a9.85,9.85,0,0,0-1.94-8c-.3-.38-.82.15-.53.53Z" transform="translate(-559 -232.78)"/><path d="M749.67,273a148.54,148.54,0,0,1,1.51,17.24c0,.48.77.48.75,0a149.8,149.8,0,0,0-1.54-17.44c-.07-.47-.79-.27-.72.2Z" transform="translate(-559 -232.78)"/><path d="M710,274a3,3,0,0,1,2.3-4.09l-.47-.27q1.4,7.54,2.77,15.1c.09.47.81.27.72-.2l-2.76-15.09a.38.38,0,0,0-.46-.27,3.76,3.76,0,0,0-2.82,5c.18.44.91.25.72-.2Z" transform="translate(-559 -232.78)"/><path d="M724.55,276.44a4.92,4.92,0,0,0-6.79,1.24.37.37,0,0,0,.06.45c1.54,1.76,5,.34,4.82-2,0-.29-.41-.54-.64-.26a4.53,4.53,0,0,0-.9,3.95c.11.47.83.27.72-.2a3.76,3.76,0,0,1,.71-3.22l-.64-.27a2.12,2.12,0,0,1-3.54,1.46l.06.46a4.17,4.17,0,0,1,5.77-1c.38.29.76-.36.37-.65Z" transform="translate(-559 -232.78)"/><path d="M728.56,279.54c3,1.4,7.06-1.25,6.83-4.64a.38.38,0,0,0-.47-.36,3.45,3.45,0,0,0-2.32,4.3c.15.46.87.26.72-.2a2.71,2.71,0,0,1,1.8-3.38l-.48-.36c.19,2.77-3.13,5.18-5.7,4-.43-.2-.82.45-.38.65Z" transform="translate(-559 -232.78)"/><path d="M743.17,282.26c.46-.43.16-1-.36-1.16a1,1,0,0,0-1.29.46c-.23.67.36,1.26.94,1.46a2.25,2.25,0,0,0,1.92-.28,3.46,3.46,0,0,0,1.47-3.38,2.93,2.93,0,0,0-.29-.91,3.34,3.34,0,0,0-.25-.4.56.56,0,0,0-.58-.22,4.59,4.59,0,0,0-2.1.63,5,5,0,0,0-2.47,4.15.38.38,0,0,0,.75,0,4.18,4.18,0,0,1,4-4l-.27-.11a2.62,2.62,0,0,1-.15,3.16,1.85,1.85,0,0,1-1.44.75,1.1,1.1,0,0,1-.72-.24.42.42,0,0,1-.14-.26v-.05c0-.05,0,0,0,0s0,0,0,0l.06,0h.19c-.07,0,.07,0,.1,0s0,0,.08,0,0,0,0,0-.06,0,0,0,0,.12,0,0c0,.06,0,0,0-.06v0c0-.05,0-.06,0,0s0,0,0,0c-.35.34.18.87.53.53Z" transform="translate(-559 -232.78)"/></g></svg>