<svg id="Layer_1" data-name="Layer 1" xmlns="http://www.w3.org/2000/svg" viewBox="0 0 274.8 314.79"><defs><style>.cls-1{fill:#efcad9;}.cls-2{fill:#442c1b;}.cls-3{fill:#e0c1b1;}.cls-4{fill:#6b4f4b;}.cls-5{opacity:0.85;}.cls-6{fill:#edb9a3;}.cls-7{fill:#edc9bc;}.cls-8{fill:#563531;}.cls-9{fill:#e2b6a8;}.cls-10{opacity:0.77;}.cls-11{fill:#674f49;}.cls-12{fill:#d77800;}.cls-13{fill:#5c4738;}.cls-14{fill:none;stroke:#fcf7f9;stroke-miterlimit:10;}.cls-15{fill:#00c1b3;}.cls-16{opacity:0;}.cls-17{fill:#f4d1be;}</style></defs><title>raport-claudia</title><path class="cls-1" d="M714.21,368.7c7.66,0,7.67-11.91,0-11.91s-7.67,11.91,0,11.91Z" transform="translate(-560.44 -220.47)"/><path class="cls-2" d="M759.73,268.16a32.48,32.48,0,0,1,4.18,2.92c1.38,1.11,2.68,2.23,4.16,3.46l4.81,4c1.73,1.47,3.42,3,5,4.26a46.24,46.24,0,0,1,5.43,5c1.65,1.75,3.09,3.46,4.5,5.23a62.72,62.72,0,0,1,8.07,12.84c-.83.36-2.42.13-2.48,1.13a4.72,4.72,0,0,1-1,3.66,5.59,5.59,0,0,1-2.36,1.29c-.86.31-.84-2.18-1.41-1.12-.83-2.17-3-5.13-2.79-2.78-.47,1,1.6,3.28.52,4.46s-2.77.37-3.81,1.46c.23.57.59,1.7.74,2.27-.75.76-2.76.19-2.63.7-.48,1.69.18,3.32,0,5-.45-.05-.92.07-1.31,0a.84.84,0,0,1-.53-.24,1,1,0,0,1-.4-.38,12.42,12.42,0,0,0-1.18-5,35.59,35.59,0,0,0-3.6-6.1c-1.53-2.16-3.35-4.44-5.28-6.88s-3.65-4.52-5.4-6.35c-.87-.91-1.74-1.75-2.6-2.5s-1.82-1.51-2.94-2.37c-2.2-1.66-5.13-3.87-7.67-6.08a99.38,99.38,0,0,1-14-14.75c-1.64-2.65,1.25-2,3.74-1.22-.83-.27.19-1.16-.63-1.43,1-.88,3.7-1.22,6,.6l-1.45-1.61c-.13-.84,1-.9,1.71-1.5.47.52.94,1.05,1.28.75l1.34-1.22L746,263.66c.45.52.91,1,1.25.74l1.36-1.2c1.23.72,2,2.84,3.23,3.51l1-.94c-.6-1.29-2.3-2.45-3.19-3.47.79.2,1.13-.1,1.8-.71,1.65,1.17,2,3.57,4.41,4l-1.38-1.41C756.94,263.57,758,267.14,759.73,268.16Z" transform="translate(-560.44 -220.47)"/><path class="cls-3" d="M726.44,352.39a2,2,0,0,0-2.72,0,12.72,12.72,0,0,1-2.8,1.59,4,4,0,0,1-4.46-1.05,13,13,0,0,0-3.83-2.89,4.83,4.83,0,0,0-2.53-.22c-.3,0-.61.09-.91.1-.11,0-.44-.05-.53,0,.24-.16.52,2.62.5.68a1.52,1.52,0,0,0-2.56-1.07,2.74,2.74,0,0,0,.13,3.78c1.19,1.22,2.95,1,4.44.54a1.53,1.53,0,0,0,.9-2.21,30.64,30.64,0,0,1-3.74-10c-.35-1.9-3.25-1.1-2.89.79a33.08,33.08,0,0,0,4,10.69l.89-2.21a12.87,12.87,0,0,1-1.37.3s-.16-.06-.15-.07,0,.38-.12.48l-2.57-1.06c0,2.47,2.54,2.36,4.32,2.16,1.52-.17,2.48,1,3.51,2,1.46,1.36,3,2.53,5.13,2.58a8,8,0,0,0,3.39-.76,13.36,13.36,0,0,0,1.68-.87l.79-.52.26-.18c.33-.19.33-.23,0-.13l-1.06-.44.13.11c1.45,1.25,3.58-.87,2.12-2.13Z" transform="translate(-560.44 -220.47)"/><path class="cls-4" d="M766.75,372.72c.4.08.82,0,1,.27.22.95-1.24,1.38-1.06,2.35l.62.2c-.42.64-1,1.31-1.45,2-.27,1.46-.53,3-.73,4.64.24,0,.46.05.5.23a10.72,10.72,0,0,1-.78,2.53v.46a1.09,1.09,0,0,0,.46.29,10.21,10.21,0,0,1-.45,1.19,62.46,62.46,0,0,0,.63,8.3,42.89,42.89,0,0,0,2.19,8.58,31.78,31.78,0,0,1,2,3.3c.55,1.6.65,3.77,1.11,5.36,1-.48,2.17.12,3.26.57s2.17.77,3.11,0c.29.9.86,2.21,1.46,2a7.5,7.5,0,0,1,6.23.09c.64.53.7,2,1.18,2s.49-.45.64-.84.27-.81.65-.82a55.73,55.73,0,0,1-3.54-7.5,23.31,23.31,0,0,1-1.63-8.21,8.29,8.29,0,0,1-.46-3.29,33.73,33.73,0,0,1,.8-6.31c.51-2.43,1.21-5.12,1.84-7.57s1.18-4.74,1.5-6l0-.49c.64-2.87.8-6.75-.2-9.47a23.28,23.28,0,0,0-2.15-3.6,11.29,11.29,0,0,1-.94,1.67c-.06-1.21-.22-2.44-.72-2.83-1.53-2.33-2.3-.52-3.67.6-.56.72-1.74.14-2.27,1.14-.08-.63-.12-.95-.24-1.58-.33.05-.12.49,0,.92s.16.82-.41.7c.16-.64-.39-1.21-.49-1.8-.41.21-.37.73-.35,1.21s0,.94-.43,1c-.13-.14.09-.59.2-1s.09-.79-.45-.71c-.22,0-.12.6-.07.88a2.28,2.28,0,0,0-1.37-1.47c-.5-.1-1,.24-1.36,1a3.35,3.35,0,0,1,0-.84,1.51,1.51,0,0,0-.18-.82h0c.05.25,0,.73,0,.94l-.22-.81-.38.3a1.25,1.25,0,0,0,0,.66l-.15-.51q-.44.38-.81.75c-.48.79-1.36,1.54-1.32,1.82A47.9,47.9,0,0,1,766.75,372.72Z" transform="translate(-560.44 -220.47)"/><path class="cls-4" d="M673.46,369.56c.38-.13.68-.49,1-.2.75,1-.35,2.3.23,3.37l.66,0a20.61,20.61,0,0,1-.67,3,32.62,32.62,0,0,1,0,5.59c.24,0,.46,0,.51.23a9.46,9.46,0,0,1-.94,3l-.07.54a1,1,0,0,0,.42.36,11.3,11.3,0,0,1-.68,1.35,40.32,40.32,0,0,1-3.08,9.45,52.67,52.67,0,0,1-5.93,9.78A30.55,30.55,0,0,1,662,410.7c-1.72,1.94-4.43,4-6.21,6,1,.59.68,2.29.6,3.88s0,3,1.32,3.17c-.9,1.24-2,3.27-1.39,3.64a8.25,8.25,0,0,1,2.27,2.29,13.45,13.45,0,0,1,1.56,3.47,4.55,4.55,0,0,1-.22,1.5c-.12.48-.15.89,0,1s.35.17.5,0a4.6,4.6,0,0,1,.47-.41c.3-.27.66-.5,1-.34a13.07,13.07,0,0,1,1.2-4.3,21.18,21.18,0,0,1,1.42-2.61,26.38,26.38,0,0,1,2-2.71,74.73,74.73,0,0,1,5.73-6c2.23-2.16,4.76-4.52,7.34-7.3.68-1.12,2.63-3.54,4.89-7a61,61,0,0,0,6.62-13.2,45.45,45.45,0,0,0,1-27.48l-.31-.86a28.15,28.15,0,0,0-3.9-7.89,25,25,0,0,0-2.76-3.23,19.46,19.46,0,0,0-2.36-1.95c-1.36-.76-2.6-1.28-3.59-1.74a8.45,8.45,0,0,0-.19,1.78c-.75-1.11-1-1.89-1.57-2.12-.8-.79-1.3-1-1.89-.71a4.65,4.65,0,0,0-1.63,1.88c-.17.53-.59.63-1,.78s-.82.35-.78,1.26a12.07,12.07,0,0,1-.9-2.92c-.35,0-.06.94.27,1.73s.65,1.5,0,1.34c-.28-1.19-1.1-2.4-1.23-3.76-.43.27-.31,1.5,0,2.56s.66,2,.22,2.09a5.63,5.63,0,0,1-.49-2.24c-.11-.92-.18-1.78-.73-1.83-.24,0,0,1.46.24,2.13-.87-2.08-1.21-3.92-1.61-4.64-.2-.36-.45-.46-.73-.16a4.3,4.3,0,0,0-.81,2.26,10.22,10.22,0,0,1,.25-2.89c.21-1,.53-2,.76-2.84h0a11.28,11.28,0,0,0-1,3.11,11.74,11.74,0,0,1,.68-3,7.23,7.23,0,0,0-.61.41,7.1,7.1,0,0,0-.7,2.32,13.27,13.27,0,0,1,.4-2.07,7.74,7.74,0,0,0-1.35,1.67,19.08,19.08,0,0,0-1.1,3.9,8.17,8.17,0,0,0,0,3.16,21.47,21.47,0,0,0,1.53,4.17,28.48,28.48,0,0,0,2,3.37c1.31,1.93,2.52,3.38,3.35,4.5a15.54,15.54,0,0,1,1,1.45c.27.42.51.87.75,1.32A25.75,25.75,0,0,1,673.46,369.56Z" transform="translate(-560.44 -220.47)"/><path class="cls-4" d="M780.48,277.86c.3-.27.19-1,.95-.44a7.89,7.89,0,0,1,2.25,3.22l.38.86c.12.29.23.58.36.86a14.59,14.59,0,0,0,1,1.81l.69-.07c.47,1.22,1,2.71,1.72,4.44.38.87.81,1.79,1.33,2.76s1.19,2,1.78,2.88c1.24,1.49,2.29,2.57,3,3.37.36.4.63.73.83,1a7.25,7.25,0,0,1,.49.7,21.76,21.76,0,0,1,2,5.52c.2-.18.4-.29.6.21.63,2.21,1.11,5.46,1.67,8.72l.39,1.42a.88.88,0,0,0,.61.43c.28,1.48.43,2.79.59,4a239.74,239.74,0,0,1,5.27,23.94,106.76,106.76,0,0,1,1.31,25.27c0,.94,0,1.87,0,2.8s-.14,1.85-.21,2.77-.18,1.84-.29,2.75-.36,1.78-.56,2.66a45.17,45.17,0,0,1-3.07,8.08l-2.12,3.88c-.69,1.25-1.46,2.42-2.16,3.55,1.22.24.31,3.3-.4,6.22s-1,5.6.63,5a23.17,23.17,0,0,0-1.91,5.07c-.4,1.64-.46,3-.16,3.15a6.93,6.93,0,0,1,2.62,3.22,61.65,61.65,0,0,1,2.74,8.14c.35,1.53.62,3.55,1,5.33a13.06,13.06,0,0,0,1.08,3.81c.31.45.45.36.51,0a10,10,0,0,0,.08-1.46c0-1.12.09-2.2.63-1.43-1.46-5.74-2-11.31-1.25-16a22.51,22.51,0,0,1,.78-3.38,24,24,0,0,1,1.32-3.26c1.13-2.33,2.81-5,4.68-8.15.46-.79.94-1.63,1.41-2.48l1.32-2.64a51.75,51.75,0,0,0,2.44-5.37,84,84,0,0,0,3.68-11.11,103.34,103.34,0,0,0,3.08-22.79c0-1.31-.2-3.51-.29-6.42,0-1.45-.21-3.05-.32-4.81s-.3-3.65-.51-5.65c-.81-8-2.37-17.69-4.34-27.33l-1.5-7.21c-.53-2.43-1-4.64-1.64-7.37a33.48,33.48,0,0,0-3.43-8.83c-.45-.75-.94-1.51-1.42-2.16s-.94-1.24-1.38-1.77c-.87-1.05-1.63-1.88-2.21-2.56a17.31,17.31,0,0,1-1.26-1.62c-.32-.49-.67-1.09-1-1.76-.71-1.36-1.47-3.06-2.39-4.83a48.82,48.82,0,0,0-3-4.94c-1-1.42-1.91-2.63-2.74-3.61-.41-.47-.83-.93-1.26-1.36a48.83,48.83,0,0,0-13.65-10.26,50.94,50.94,0,0,0-14.34-4.86,77.84,77.84,0,0,0-11.55-.63c1.65.65,3.16,1.32,4.45,2-3.71-.81-7.42-1.35-8.89-1.12-4,0-4.85.5-4.42,1.15s2.21,1.52,3.58,2.49c2,.95-.94,1.62,2.23,2.75-2.34-.35-3.52-.51-5.89-.8-.17.32,1.66.41,3.31.59s3.11.41,2.22.82c-2.22-.57-4.8-.46-7.16-.71.37.48,2.4.76,4.27,1.07s3.57.63,3.33,1c-1.25,0-6.4-2-7-.94-.11.2,2.23.47,3.39.63a26.42,26.42,0,0,0-7.56.22c-1.13.37-.49,1,2.73,1.84-2.26-.24-5.47-.95-7.94-1l0,0c1.22.12,3.3.5,4.41.61l-4.14-.37c.21.16.44.33.69.5a29.16,29.16,0,0,0,3.13.5l-2.75-.25a22.42,22.42,0,0,0,2.26,1.19c3.21,1,6.12,2.28,7.8,2.5a85.46,85.46,0,0,1,18.81,4.74A40.73,40.73,0,0,1,780.48,277.86Z" transform="translate(-560.44 -220.47)"/><g class="cls-5"><path class="cls-6" d="M707.51,285.51c-1.83,3.16-3.73,6.29-5.47,9.5-1.32,2.46-3,4.8-2.1,7.65a3.5,3.5,0,0,0,2.47,2.48c4.54.67,7.74-3.23,10.45-6.47a40.48,40.48,0,0,0,6.94-12.46c1.54-4.26-4.72-6.4-7-2.95a39.78,39.78,0,0,0-5.72,13.53c-.77,3.5,2.62,5.77,5.69,4.38a22.8,22.8,0,0,0,10.35-9.48c2.56-4.4-4-8.18-6.77-4a30.6,30.6,0,0,0-4.72,12.42c-.51,3.48,3.7,7.19,6.62,3.86l7.67-8.73-6.7-1.77a7.93,7.93,0,0,1-1.17,5.84c-2,3.66,3,7.92,6,4.6,3.22-3.57,4-7.94,2.94-12.57-.65-2.82-4.75-4-6.7-1.76l-7.6,8.78,6.62,3.86a25.38,25.38,0,0,1,3.85-10.57l-6.77-4a15.78,15.78,0,0,1-7.49,6.74l5.7,4.38a33.82,33.82,0,0,1,4.86-11.72l-7-2.95a34.93,34.93,0,0,1-4,7.93c-.71,1.05-4,6.17-5,6.05l3.42,2.61c-.19-.55,2.33-5,2.66-5.79l3-7.39c1.18-2.88-3.44-4.67-4.94-2.08Z" transform="translate(-560.44 -220.47)"/></g><g class="cls-5"><path class="cls-7" d="M740.33,294.91c-.16,0,.4-5.6.28-6.7a7.29,7.29,0,0,0-4.29-6.15c-6.16-2.58-11.53,5.13-7.61,10.26,1.47,1.93,4.69,3.17,6.6.85a11.13,11.13,0,0,0,1.3-13.1,4.48,4.48,0,0,0-7.66,0,16.3,16.3,0,0,0-1.71,13.57,4.66,4.66,0,0,0,5.66,3.21,10,10,0,0,0,4.81-3c2.78-3.22.21-9.27-4.48-7.7a9.34,9.34,0,0,0-6.67,8.91,4.65,4.65,0,0,0,6.94,4l13.69-8.35-6.81-5.23a15.22,15.22,0,0,1-2.11,4.75c-3.28,5,4.76,9.68,8,4.68a23,23,0,0,0,3-7c1-3.82-3.28-7.4-6.81-5.24l-13.67,8.39,6.94,4c0-.57.06-.08-.1,0l-4.48-7.69c-.13.47-.37.68-.74.65l5.65,3.21a8.21,8.21,0,0,1,.5-6.63H729c.88,1.36.71,2.22-.24,3.52l6.6-.85c-1.4.56-1.95,1.38-1.67,2.46v.73c0,1-.21,2-.18,3a7.38,7.38,0,0,0,1.65,4.88,5.4,5.4,0,0,0,7.52.5c1.86-1.5-.16-4.56-2.29-3.92Z" transform="translate(-560.44 -220.47)"/></g><g class="cls-5"><path class="cls-7" d="M713.05,376l-.46.44,3.12,1.77a22,22,0,0,0-5.83-8.54,3.42,3.42,0,0,0-3.34-.88c-5.22,2-7.39,8.2-3.52,12.71,4.46,5.18,11.57,3.6,16.62.33a4.22,4.22,0,0,0,1.91-4.7,8,8,0,0,0-2.27-3.66,4.3,4.3,0,0,0-5.09-.66,8.26,8.26,0,0,0-3.07,3.14c-1.45,2.52.35,6.79,3.67,6.38a45.36,45.36,0,0,0,20.68-7.58c4.65-3.18.25-10.82-4.45-7.61A41.6,41.6,0,0,1,713.66,374l4.79,6.23,0-.16-5.09-.66.18-.07,1.92-4.7a12.47,12.47,0,0,1-3.25,1.85,2.5,2.5,0,0,1-1.65.33c-1.09.3-1.54-.29-1.35-1.76h-3.47a10.94,10.94,0,0,1,5.35,5.11,2.6,2.6,0,0,0,3.48.91,5.39,5.39,0,0,0,2.33-2.13c1.58-2.25-2-5-3.83-2.95Z" transform="translate(-560.44 -220.47)"/></g><g class="cls-5"><path class="cls-7" d="M739.92,390.22c-7.41,9.18-12.54,20.46-16.77,31.4l7.65,2.11a88.34,88.34,0,0,1,9.11-26.11l-8-2.17c-.77,6.07-1.51,12.14-2.27,18.22-.57,4.66,6.08,5.53,8.22,2.22A71.84,71.84,0,0,0,748,390.94c1.16-5.76-6.5-7.66-8.63-2.38A66.43,66.43,0,0,0,734.78,419l8.67-1.17c-.76-3.79-.62-10.86-4.46-13.12-4.47-2.63-7.79,1.71-10.2,4.82-7.67,9.92-15.43,19.77-22.93,29.82-3.18,4.26,3.37,8.36,6.93,5.35,4.28-3.63,8.61-7.22,12.92-10.82L719,428.72a48.57,48.57,0,0,1-9.72,13.94c-3.9,3.9,1.87,9.42,6,6,2.85-2.41,5.7-4.84,8.66-7.13,3.42-2.65-1-8-4.54-5.89a69.94,69.94,0,0,0-10.09,7.06l6,6A57.49,57.49,0,0,0,726.38,433c2.17-4.49-2.94-8.24-6.71-5.18-4.37,3.55-8.72,7.11-13.12,10.62l6.24,6.24c4.22-5.31,8.33-10.7,12.46-16.08l5.84-7.62c1.87-2.44,4.34-7.34,7-8.81l-3.41.45.87.16-2.64-2c1.44,2,1.53,7.05,2,9.41.94,4.84,9,3.8,8.66-1.17A60.87,60.87,0,0,1,748,390.94l-8.63-2.38a68.43,68.43,0,0,1-9.17,22.88l8.21,2.23c.68-6.08,1.38-12.15,2-18.22.47-4.28-6.13-5.81-8-2.17a91.62,91.62,0,0,0-9.33,28.34c-.76,5,5.94,7,7.65,2.11,3.66-10.55,9-19.82,14.13-29.65,1.59-3-2.62-6.81-5-3.86Z" transform="translate(-560.44 -220.47)"/></g><path class="cls-8" d="M663.73,309.9l.26.2-.5-3.93-.27.39L667,305c1.3.53-1.66-1.07-2.48-1.17a6.08,6.08,0,0,0-4.41,1.37c-3.91,3-1.73,6.85-2.79,10.83-.92,3.44,3.12,7.07,6.34,4.88l6.64-4.52-6.76-3.88c0,3.82-6,8.1-8.14,11.15a42,42,0,0,0-5.84,13.47c-1.54,6,7.72,8.59,9.31,2.57a38.16,38.16,0,0,1,7.93-15.16c3.07-3.61,5.88-7.05,5.72-12-.09-3.08-3.87-6-6.76-3.88l-6.46,4.82,6.34,4.88c.41-1.83.91-4.56.18-6.35q.47-1.68-1-1c-1.08,0-1.27.05-.55.28a3.67,3.67,0,0,0,1.86.31,3.38,3.38,0,0,0,3.22-2.45l.1-.46a3.32,3.32,0,0,0-2.27-4l-.31-.1c-2.89-.92-5.65,3.31-3.11,5.33Z" transform="translate(-560.44 -220.47)"/><path class="cls-8" d="M789.84,374.65c-6,3.28-7.12,9.79-7,16.16.18,9.26.85,19.11-.94,28.27-1.52,7.77-7.8,11.73-12.66,17.35a25.05,25.05,0,0,0-5.08,8.21c-.44,1.27-2.15,10.87-1.85,11-5-2.82-9.51,4.9-4.5,7.69,8.08,4.5,13.53-3.7,14-10.88.36-4.87,1.53-7.69,4.88-11.28,2.67-2.88,5.65-5.45,8.11-8.52,6-7.53,6.25-16.47,6.26-25.73,0-5.18-.25-10.31-.63-15.48-.33-4.31-1.07-9.71,2.24-13.08a2.4,2.4,0,0,0-2.89-3.75Z" transform="translate(-560.44 -220.47)"/><g class="cls-5"><path class="cls-7" d="M730.4,346.82q.3.89-.63-.18l-.82-.35a6,6,0,0,0-3.54.51,14.65,14.65,0,0,0-6,4.14c-3.21,3.55.78,8.14,4.89,6.33l7.78-3.42c4.28-1.89,1.21-8.68-3.14-7.45l-7,2,2.19,7.94c2.87-1.08,6.18-2.92,9.17-3.44,2.79-.48,5.61,2.06,8.12,3.38,4.7,2.49,8.65-4.27,4.16-7.12-3.16-2-7.21-5.27-11.13-5.13-4.09.16-8.74,2.91-12.51,4.37-4.83,1.87-3,9.46,2.19,7.94l6.93-2L728,346.81l-7.73,3.5,5.52,5.51c1.71-2.47,4.81-2.92,5.74-5.89l-1.68,1.69,1.16-.29c2.47-.63,2-4.65-.61-4.51Z" transform="translate(-560.44 -220.47)"/></g><g class="cls-5"><path class="cls-9" d="M701.81,396.05l-2.54-1.81C697.55,393,695,394,694,395.62a68.1,68.1,0,0,0-7.57,19.43c-1.33,5.48,6.26,7.3,8.26,2.28L702,399c1.73-4.33-4.59-7.44-7.55-4.4a49.25,49.25,0,0,0-12.74,23.06c-1.28,5.28,5.51,7.83,8.48,3.58a57.81,57.81,0,0,0,7.71-15.78c1.6-5.06-5.89-8.12-8.5-3.58L681,416.52c-1.94,3.37-6.26,8.24-4.1,12.36,5,9.6,15.27-4.69,18.08-8.53l-8-4.7-7.74,17c-2.53,5.54,4.41,9.45,8.05,4.71a78.42,78.42,0,0,0,8.69-14.23l-8.53-3.59L679.48,439c-2,5,5.94,8.06,8.54,3.6q8.63-14.82,16.2-30.19c2.65-5.37-4.87-9.89-8.08-4.72A20,20,0,0,0,693,419c.08,3.77,5.26,6.55,8,3.31a68.32,68.32,0,0,0,10.82-17.18c1.44-3.3-1-8.43-5.28-6.87-4.43,1.62-7.48,4.56-8.56,9.26-1,4.29,4.51,8.17,7.79,4.54l12.47-13.83L711,392.65a94.67,94.67,0,0,1-8.7,12.69,4.61,4.61,0,0,0,6.51,6.51l4.77-4-7.21-5.56L686,433.53l7.82,4.57,4.32-6.75-8.25-3.48c-.76,4.74-2.29,9.93-2.34,14.73,0,2.76,1.29,5.25,4.17,5.95,3.19.78,5.5-1.5,7.52-3.53,3.43-3.46,6.65-7.16,10-10.73l-7-5.4-7.6,15.73c-2.27,4.7,3,8.45,7,5.36a35.08,35.08,0,0,0,8.77-10.21l-8.07-3.4-2.27,7c-1.38,4.26,4.43,7.46,7.45,4.33l5.94-6.16-7.69-3.18a21.17,21.17,0,0,1-1.74,6.24c-1.6,3.61,2.14,9.3,6.24,6.24l6-4.47-6.93-4a12,12,0,0,1-.44,5.18c-1.71,5.73,7.31,8.21,8.95,2.47a19.06,19.06,0,0,0,.7-7.65c-.35-3-3.83-6.35-6.93-4L705.63,443l6.24,6.23a36,36,0,0,0,2.87-10.84c.42-4-5.18-5.86-7.69-3.19l-5.87,6.23,7.44,4.33,2.19-7c1.5-4.79-5.59-7.72-8.06-3.4a28.3,28.3,0,0,1-7.4,8.42l6.95,5.36,7.64-15.7c2.11-4.32-3.34-9.3-7-5.4l-6.26,6.68c-1.27,1.36-3.69,4.83-4.93,5.23l3.46.45-.78-.43,2.22,3.88c-.3-4.26,1.28-9.34,2-13.53.81-4.91-5.34-8-8.25-3.48L686,433.53c-3.16,4.93,4.64,9.42,7.82,4.57L714.3,407c3.05-4.65-3.44-8.67-7.21-5.56l-4.79,3.93,6.51,6.51A110.74,110.74,0,0,0,719,397.33c2.6-4.45-3.67-9.59-7.27-5.62l-12.51,13.78L707,410a2.81,2.81,0,0,1,2.06-2.72l-5.29-6.87a61.37,61.37,0,0,1-9.37,15.28l8,3.31a11,11,0,0,1,1.81-6.58l-8.08-4.72q-7.57,15.38-16.19,30.19l8.54,3.6L696.37,422c2-4.87-6.28-8.37-8.53-3.6a78.93,78.93,0,0,1-8.68,14.23l8.05,4.71,7.73-17a4.66,4.66,0,0,0-8-4.7c-.52.7-4.62,6.91-5.59,6.83l4,2.31-.43-.61.46,3.59c1.09-3.61,4.12-7.4,6-10.63l6.11-10.61L689,403a49.32,49.32,0,0,1-6.76,13.56l8.49,3.58A42.25,42.25,0,0,1,700.87,401l-7.55-4.39-6.88,18.49,8.26,2.28A112.74,112.74,0,0,1,701,398.58l-5.65,2.3,2.87,1.24c4.13,1.78,7.3-3.4,3.55-6.07Z" transform="translate(-560.44 -220.47)"/></g><g class="cls-5"><path class="cls-9" d="M702.89,332.3l.53,1.12c.14-2.76-4-4.75-5.81-2.41a43.72,43.72,0,0,0-6.41,12.09,3.74,3.74,0,0,0,2.18,4.45A3.85,3.85,0,0,0,698.1,346a28.82,28.82,0,0,0,5.09-11.85c.55-3-2.75-6.73-5.8-4.46a23,23,0,0,0-9.27,14.35,4.1,4.1,0,0,0,2.78,4.9c1.93.53,4.52-.65,4.9-2.78a15.07,15.07,0,0,1,5.58-9.65l-5.81-4.46a26.76,26.76,0,0,1-4,10.14l6.9,2.91a61.5,61.5,0,0,1,4.48-10l-4.66,1.22a5.63,5.63,0,0,0,4.59.82,2.55,2.55,0,0,0,0-4.88Z" transform="translate(-560.44 -220.47)"/></g><g class="cls-5"><path class="cls-9" d="M741.91,325.59c-1.68,3.14.52,6,3.76,6.65,4.37.85,9.51-.75,13.55-2.28,3.37-1.28,3.3-7.43-.93-6.88a46,46,0,0,0-17.2,5.48c-4,2.32-.48,8.15,3.6,6.15A51,51,0,0,1,759.22,330l-2.7-6.41a33.29,33.29,0,0,1-5.53,2.1c-1.19.34-4.44.43-4.88,1.71.85-2.46-3-4.05-4.2-1.77Z" transform="translate(-560.44 -220.47)"/></g><g class="cls-10"><path class="cls-11" d="M753.08,382c.4.12,1-1.52.83,1.15-.88,8.37-3,14.95-3.26,23.42l.61.65c-.73,6.48-1.35,13.26-1.66,20.22,0,5.68.26,11.34.64,16.94l.6,8.63,8.55.74a15,15,0,0,0,7.64-1.45,16.46,16.46,0,0,0,5.11-3.93,24.18,24.18,0,0,0,4.33-7.46c.22-.58.42-1.14.6-1.7.09-.29.17-.56.25-.84l.21-.74.68-2.52,1.32-5.05c-.31.25-.56.34-.32-.88,1.2-5,3.2-12,4.93-19.21.2-1.09.4-2.17.6-3.23a1.76,1.76,0,0,0-.24-1.28c.18-.81.36-1.59.5-2.18l-17.11-2.39c-.22,2.71-.34,5-.42,7.25q.13,6.27.88,12.53c.24,2.08.55,4.17.9,6.26.17,1.05.37,2.09.57,3.14l.31,1.58a20.6,20.6,0,0,0,.65,2.43,17.53,17.53,0,0,0,2.47,4.88,14.12,14.12,0,0,0,1.1,1.34,12,12,0,0,0,1.55,1.39A11.8,11.8,0,0,0,778,443a10.84,10.84,0,0,0,2.8.82,10.27,10.27,0,0,0,3,0,11.29,11.29,0,0,0,2.68-.75,10.92,10.92,0,0,0,4-2.94,13.33,13.33,0,0,0,1.81-2.75c.2-.39.37-.76.51-1.09a2.11,2.11,0,0,0,.12-.29l0-.11c.34-1.15.71-2.49,1.1-4.07s.8-3.55,1.22-5.81c.1-.57.21-1.16.31-1.75l0-.23c0-.05,0,.06,0,.08l0,.25a4.38,4.38,0,0,0,0,.52,11.82,11.82,0,0,0,.1,2.47,16.5,16.5,0,0,0,.45,2.14,7.18,7.18,0,0,0,1.14,2.6,2.7,2.7,0,0,0,.41.42,3.47,3.47,0,0,0,.66.42,8.66,8.66,0,0,0,3.41,1,8.29,8.29,0,0,0,3.65-.65,8.85,8.85,0,0,0,2.63-1.81,11.62,11.62,0,0,0,1.47-1.78c.63-1,1.16-2,1.73-3.05s.88-2.17,1.3-3.27.59-2.25.83-3.39.34-2.27.41-3.39.12-2.24.07-3.32a92.56,92.56,0,0,0-1.93-13,81.12,81.12,0,0,1-1.7-11.76,28.56,28.56,0,0,1,.93-8.54,54.9,54.9,0,0,1,3.53-8.87c1.42-3,3-6.11,4.17-9.36a36,36,0,0,0,2.28-9.83c-.61.43-1-1.17-1.41-3.58a70.68,70.68,0,0,0-2.19-8.6,42.7,42.7,0,0,0-3.06-7.34c-.94-1.63-1.62-2.16-1.81-.66-1-3.67-2.47-8.28-3.66-12.09s-2.08-6.83-2.47-7c-1.17-.64-2.66-2.37-4.57-6.24-1-1.93-2-4.36-3.36-7.23-.68-1.42-1.43-2.95-2.3-4.51-.43-.77-.92-1.59-1.42-2.34a25.78,25.78,0,0,0-1.63-2.24,32.69,32.69,0,0,0-3.16-3.65,19,19,0,0,0-3.67-2.86c-2.43-1.44-4.47-1.55-5.2-1.35-1.11.19-1,.35-.31.5l.29.06a.84.84,0,0,1,.19.07l.38.14a7.4,7.4,0,0,1,.88.33,8.22,8.22,0,0,1,.84.42,4.42,4.42,0,0,1,.6.45c.28.25.25.42-.3.42a13.88,13.88,0,0,1,5.07,3.3,24,24,0,0,1,2.33,2.74A24.68,24.68,0,0,1,793,293.8c2.44,4.81,3.87,11.06,5.53,18.16.82,3.52,1.86,7.44,2.94,11s2.16,6.9,3.1,10.12c1.89,6.42,3.13,12.34,2.8,17.39a24.54,24.54,0,0,1-1.66,7.42c-1,2.7-2.46,5.73-4,9.25a57.14,57.14,0,0,0-4.13,12.36,51.53,51.53,0,0,0-.55,13.42c.32,4.09.89,7.82,1.34,11.26a62.21,62.21,0,0,1,.73,9.21,14.44,14.44,0,0,1-1.26,6.2,11.43,11.43,0,0,0-.67,1.12l0,.09h0l.77.59a29.84,29.84,0,0,1,2.41,2,8.92,8.92,0,0,1,1.82,2.15l.12.25,0,.08h0c-.21-.67,0-.17-.1-.31l0,.05a.85.85,0,0,1,.05.24V426l0-.1a.71.71,0,0,1,.06-.22c0-.05.08-.23.13-.32l.09-.16,3.16-5.77.06-.23.12-.48.48-1.89c-.06-.44-.14-.86-.21-1.29l-.11-.64-.08-.77a41.62,41.62,0,0,1-.09-8.71l-4.81-.85-2.48-.48a18.06,18.06,0,0,1-2.78-.37c-.28-.08-.42-.17-.4-.27a.28.28,0,0,1,.14-.15l.15-.09h-.13l-.21,0a23.77,23.77,0,0,1-2.7.19,62.54,62.54,0,0,1-6.62-.24c-.27,1.15-.54,2.3-.82,3.47s-.58,2.18-.88,3.28-.61,2.11-.92,3.18l-.46,1.57-.5,1.51c-1.32,4-2.75,7.91-4.39,11.73l-.55,1.31-.12.25h0l.81.46.78.48c.23.13.44.27.66.42a15.14,15.14,0,0,1,1.79,1.37,5.91,5.91,0,0,1,.84.92,1.54,1.54,0,0,1,.18.33h0l-.11-.37h0v0l0,.08a1.16,1.16,0,0,1,0,.18l0,.25c0,.05,0,.13,0,.06v0h0l0-.08a5.14,5.14,0,0,1,1.28-1.78,14.82,14.82,0,0,1,3-2.16c.81-.42.49-.27.54-.32s0-.07-.06-.13a3,3,0,0,1-.11-.37c0,.05-.07-.35-.11-.59l-.14-.8c-.08-.54-.17-1.08-.25-1.62-.17-1.08-.31-2.17-.45-3.27-.26-2.2-.47-4.43-.6-6.68a111.85,111.85,0,0,1,0-13.7l-18-2.51c-1.6,7.68-3.42,15.39-5.41,22.93-.51,1.88-1,3.76-1.53,5.62-.26.94-.52,1.86-.78,2.79s-.56,1.95-.72,2.43a8.6,8.6,0,0,1-1.11,2.39v0h0s0,0,0,.05l.25.22c.17.15.33.31.49.47s.31.35.43.46a10.32,10.32,0,0,1,.66.82,4.8,4.8,0,0,1,.42.67c.42.77.2.87.27.13l8.5,4.68a264.79,264.79,0,0,1,.06-32c.61-9.32,1.58-17,2.41-22.26.15-1,.3-2.06.44-3.09.58-3.58,1.25-7.3,2-11.07.19-.94.38-1.89.58-2.84l.25-1.21.05-.2h0l-.47-.15q-.44-.14-.87-.3c-.44-.14-1-.36-1.29-.48a14.66,14.66,0,0,1-1.63-.8,6.72,6.72,0,0,1-.76-.54l-.09-.09,0,0v0h0l-.78-.91h0v0l0,.05.07.1a1.27,1.27,0,0,1,.17.38c0,.07,0,0,0-.06a1.79,1.79,0,0,1,.08-.54,1.47,1.47,0,0,1,.26-.49c.07-.09.09-.07,0,0l10.57-.25a5.79,5.79,0,0,1,1.29-3.29,6.83,6.83,0,0,1,3-2.26c.13,0,.26-.08.38-.12l.18,0,.09,0,.05,0,.4,0,1.15-.1,1-.11a17.49,17.49,0,0,0,1.94-.37,12.6,12.6,0,0,0,6.4-3.78,15.54,15.54,0,0,0,2.11-3c.57-1.1,1-2.24,1.54-3.33.25-.53.46-1.13.59-1.49l.38-1.11c.25-.74.45-1.49.67-2.21a42.89,42.89,0,0,0,1.2-6.78c.14-1.14.15-2.36.2-3.54a35.34,35.34,0,0,0-.2-3.68,31.39,31.39,0,0,0-.63-3.76,26.78,26.78,0,0,0-1.28-3.82,21.83,21.83,0,0,0-2-3.67c-.42-.58-.86-1.15-1.3-1.7a19.67,19.67,0,0,0-1.49-1.54,18.72,18.72,0,0,1,3.5,6.47,20.13,20.13,0,0,1,.69,3.11c.06.49.14,1,.18,1.46s0,.92.05,1.37a20.77,20.77,0,0,0-2.09-7.18,19,19,0,0,0-2-3.21,18,18,0,0,0-2.54-2.55l-1.31-1c-.45-.3-.89-.58-1.3-.81a24,24,0,0,0-2.2-1.11c-1.28-.56-2.18-.89-2.79-1.09l-1-.42c-.25-.11-.48-.22-.7-.34a6.59,6.59,0,0,1-1.07-.75c-.17-.16-.3-.33-.45-.46a2,2,0,0,1-.37-.41c-.19-.26-.4-.46-.51-.62-.26-.31-.46-.38-.62-.23-.33.29-.52,1.58.08,3.12a9.16,9.16,0,0,0,2.26,3.06c3.61,2.61-2.14.87,3.76,4.62-1.36-.78-2.89-1.43-4.43-2.24a13.12,13.12,0,0,1-4.35-3.39c-.32-.43-.58-.9-.87-1.36a13.77,13.77,0,0,1-.64-1.48c-.21-.14.1,1.31,1.33,3a11.57,11.57,0,0,0,3.17,2.68c1.3.76,2.44,1.26,3.4,1.74,1.91.92,2.78,1.61,1.59,1.37-1.19-.72-2.61-1.34-4.11-2.11a13.88,13.88,0,0,1-4.46-3.38,10.84,10.84,0,0,1-2.36-6.93,2.91,2.91,0,0,0-.15,1,7.44,7.44,0,0,0,.11,1.75,10.39,10.39,0,0,0,1.89,4.54,13.1,13.1,0,0,0,3.66,3.2c.73.45,1.31.75,1.88,1.05l1.55.8c1.86,1,2.68,1.68,2.38,1.81l-3.7-2.06c-.46-.26-.94-.53-1.45-.84a18.73,18.73,0,0,1-1.67-1.12,13.41,13.41,0,0,1-2.79-2.73c-.41-.63-.78-1.24-1.11-1.81s-.51-1.15-.72-1.63a5.76,5.76,0,0,0-.81-1.88c-.11-.07,0,.68.24,1.83a15,15,0,0,0,.69,1.9c.34.65.77,1.32,1.2,2A13.29,13.29,0,0,0,779.7,318a14,14,0,0,1-2.81-2.53,13.21,13.21,0,0,1-2.59-6c-.07-.5-.13-1-.2-1.47s0-1-.05-1.43c0-.85,0-1.54.05-2.26a49,49,0,0,0,.27-5.27c-.08-.86-.31-.91-.72,0a18.68,18.68,0,0,0-.81,2.34,28,28,0,0,0-1,4.79,69.32,69.32,0,0,1,1.53-9.08,15.16,15.16,0,0,0,.32-3.36,4.32,4.32,0,0,0-.47-1.9v0a5.88,5.88,0,0,1,.32,2.32,26.87,26.87,0,0,1-.46,3.67c.47-2.7.49-4.79,0-5.67,0,.11-.07.21-.1.32a3.73,3.73,0,0,1-.15.38,18.22,18.22,0,0,1-.33,4.33,13.76,13.76,0,0,0,.21-4c-.32.93-.69,2-1.09,3.13-.59,2.45-1.83,5.58-2.38,9.59,0,.27-.06.55-.08.82s-.05.67-.07,1c0,.65,0,1.26,0,1.88a18.09,18.09,0,0,0,.51,3.53,21,21,0,0,0,1.08,3.11c.49.92,1,1.77,1.5,2.56a22.34,22.34,0,0,0,1.66,1.91,21.16,21.16,0,0,0,3.27,2.61l.9.56.45.26.41.22c.45.26.87.47,1.27.68,1.58.79,2.74,1.34,3.35,1.74a2.1,2.1,0,0,1,.59.47c.07.08.18.12.24.2a1,1,0,0,0,.17.23.52.52,0,0,0,.11.1l.06.14a1.38,1.38,0,0,0,.17.25c.08.21.19.41.28.66a11.79,11.79,0,0,1,.44,4.56,24.89,24.89,0,0,1-1.35,6.22c-.21.52-.36,1.07-.6,1.58l-.26.64c0,.07,0,.05,0,.07a.41.41,0,0,1-.14.15.23.23,0,0,1-.2,0h0s0,0,.11,0l.15,0h-.18l-.48.06-1,.14a24.18,24.18,0,0,0-3.72,1,25.32,25.32,0,0,0-11.74,8.51,24.6,24.6,0,0,0-5.2,14l19.66-3.23a11.64,11.64,0,0,0-3-4.47,12,12,0,0,0-4-2.45,12.9,12.9,0,0,0-10.22.67,13,13,0,0,0-1.6,1l-.79.61-.54.49a14.3,14.3,0,0,0-2.95,4,17.75,17.75,0,0,0-1.18,3.14c-.23.85-.37,1.51-.47,2l-.6,2.89C754.42,374.29,753.72,378.15,753.08,382Z" transform="translate(-560.44 -220.47)"/></g><path d="M770.79,318.84l-2.24,2,2.12,2.13c1.4-1.61,2.94-3.53,5.11-4.06a3,3,0,0,1,4,2.25,11.49,11.49,0,0,1-.33,4.94c-.58,2.59-1.18,5.17-1.77,7.76-1,4.23-1.45,9.19-4.77,12.33A11.3,11.3,0,0,1,762.73,349c-1.88-.44-2.68,2.45-.8,2.89a14.31,14.31,0,0,0,10.56-1.69,14.85,14.85,0,0,0,6.58-9.25c1.3-4.79,2.33-9.72,3.36-14.58.68-3.24,1-7.41-2.09-9.58-4.35-3.07-9,.82-11.79,4a1.5,1.5,0,0,0,2.12,2.13l2.24-2c1.44-1.29-.69-3.41-2.12-2.13Z" transform="translate(-560.44 -220.47)"/><path d="M772.37,317.71a90.53,90.53,0,0,0-.55-15.44c-.31-2.54-.71-5.06-1.23-7.56-.38-1.78-.88-3.81-2.94-4.25-1.71-.36-3,.88-4.25,1.86s-2.28,1.18-3.13-.38c-.95-1.75-.45-3.46.19-5.22.76-2.11,1.62-4.16,1.47-6.44a1.54,1.54,0,0,0-1.5-1.5,9.68,9.68,0,0,1-7-4c-.73-1-1.14-2.27-2.14-3.08-1.29-1-2.78-.82-4.31-.77-2.89.08-4.44-2.78-6.4-4.44s-5-3.08-7.6-1.51c-.88.54-1.61,1.85-2.61,2.11-1.27.33-3.08-1.43-4.14-1.94a13.73,13.73,0,0,0-8.54-1.06,12.75,12.75,0,0,0-4.08,1.57,13.72,13.72,0,0,1-4.18,2.11c-1.49.29-3,.19-4.51.49a14.31,14.31,0,0,0-4,1.47,15.82,15.82,0,0,0-8.21,14.64c.15,1.92,3.15,1.93,3,0a12.85,12.85,0,0,1,6.88-12.13,11.2,11.2,0,0,1,3.43-1.15c1.52-.25,3.08-.13,4.59-.52,2.85-.74,4.88-3,7.84-3.59a10.91,10.91,0,0,1,7.94,1.76c2.48,1.55,4.75,1.91,7-.21.83-.78,1.52-1.47,2.75-1.17a7.32,7.32,0,0,1,3.36,2.29c1.79,1.85,3.62,3.91,6.33,4.23,1.42.17,3.15-.61,4,.81a16.33,16.33,0,0,0,2.62,3.57,12.94,12.94,0,0,0,8,3.5l-1.5-1.5c.27,4.19-3.32,7.67-1.79,12a5.9,5.9,0,0,0,3.23,3.69,4.6,4.6,0,0,0,4.49-1,16.31,16.31,0,0,1,1.82-1.4c.24-.14.31-.2.38-.17.3.16.37.9.43,1.18a71.19,71.19,0,0,1,1.33,7.7,89.52,89.52,0,0,1,.55,15.44c-.1,1.93,2.9,1.92,3,0Z" transform="translate(-560.44 -220.47)"/><path d="M678.7,303.57a7.44,7.44,0,0,1-2.81,2,7.9,7.9,0,0,0-2.86,2.33,7.71,7.71,0,0,0-1,4.4c0,1.68,0,3.36,0,5,.16,6.37,1.09,13,4.95,18.26,1.13,1.54,3.73.05,2.59-1.51-3.57-4.86-4.39-10.87-4.54-16.75,0-1.48,0-3,0-4.44,0-1.26-.19-2.77.79-3.72a12.8,12.8,0,0,1,2.77-1.68,7.87,7.87,0,0,0,2.66-2.37c1.08-1.61-1.51-3.11-2.59-1.52Z" transform="translate(-560.44 -220.47)"/><path d="M749.6,367.37l-.35,22.93c0,3.7-.16,7.39-.16,11.09,0,3.09.4,6.07,2.37,8.55,1.2,1.51,3.31-.63,2.12-2.12-1.82-2.29-1.5-5.66-1.46-8.39l.16-10.61.32-21.45c0-1.93-3-1.93-3,0Z" transform="translate(-560.44 -220.47)"/><path d="M693,376.17a47.35,47.35,0,0,0-4.12,13.1,22,22,0,0,1-1.88,6.57,19.71,19.71,0,0,1-4.22,4.93A54.79,54.79,0,0,0,668.19,422c-.68,1.81,2.22,2.6,2.89.8a49.86,49.86,0,0,1,6.09-11.41,67.49,67.49,0,0,1,8.68-9.36,18.45,18.45,0,0,0,4-5,23.4,23.4,0,0,0,1.84-6.07,49.28,49.28,0,0,1,4-13.23c.86-1.72-1.73-3.24-2.59-1.51Z" transform="translate(-560.44 -220.47)"/><path d="M742.36,242.09c.3-4.24-.4-11-5.58-12.09-3.95-.82-9.21,2.9-6.88,7.18l1.69-2.21a21.5,21.5,0,0,1-13.19-13.43,1.52,1.52,0,0,0-2.74-.36,15.62,15.62,0,0,0-1.27,15.75l.23-1.82c-5.16,4.07-12.6,2.65-18,6.27-4.38,2.93-8,9.13-4,13.81l1.06-2.56c-9.83-.16-17,11.11-13.21,20v-1.51a88.67,88.67,0,0,0-14.59,30.41l1.05-1a16.34,16.34,0,0,0-8.71,6.66,16.53,16.53,0,0,0-2.28,5.17,15.63,15.63,0,0,0-.43,2.64c-.08,1,.11,1.9,0,2.83a21.13,21.13,0,0,1-2,6.4,31.18,31.18,0,0,1-3.21,5.61c-2.51,3.51-6.21,6.18-8.14,10.11-1.74,3.55-1.83,8.54,1.55,11.19l.3-2.36c-10.68,5.82-11.77,19.84-10.31,30.59l1.05-1.85c-5.69.88-4.8,10.61.85,10.82,1.93.07,1.93-2.93,0-3-2.32-.09-2.33-4.57-.06-4.93.88-.13,1.15-1.12,1.05-1.84-1.27-9.4-.43-22.09,8.94-27.2a1.5,1.5,0,0,0,.3-2.35c-2.79-2.19-2-6.16-.37-8.81,2.18-3.43,5.48-6,7.79-9.37a32.76,32.76,0,0,0,4.91-11.2,8.83,8.83,0,0,0,.27-2.7,13.08,13.08,0,0,1,.09-2.58,13.84,13.84,0,0,1,1.76-4.91,14.06,14.06,0,0,1,3.28-3.84,12.9,12.9,0,0,1,2-1.33c.76-.41,1.71-.57,2.43-1s1-1.89,1.21-2.79c.29-1.05.61-2.09.95-3.13.65-2,1.38-4,2.17-5.93a84.87,84.87,0,0,1,5.79-11.51c1.12-1.87,2.32-3.7,3.58-5.48.49-.69,1.49-1.61,1.48-2.52a11.9,11.9,0,0,0-.69-2.33c-1.5-6.62,4.31-14,11.11-13.91a1.51,1.51,0,0,0,1.06-2.56c-3.3-3.81,2.27-9.1,5.69-10.29,5.5-1.92,11.51-1.8,16.28-5.55a1.54,1.54,0,0,0,.23-1.82,12.63,12.63,0,0,1,1.27-12.72l-2.75-.36a24.75,24.75,0,0,0,15.29,15.54c1.3.45,2.29-1.13,1.7-2.21-1.15-2.11,3-3.28,4.4-2.42,2.76,1.73,2.66,6,2.47,8.85-.14,1.93,2.86,1.92,3,0Z" transform="translate(-560.44 -220.47)"/><path d="M642.23,411.45c-1.19-2.2-2.7-4.79-2.29-7.4a4.81,4.81,0,0,1,1.25-2.61c.91-.91,2-.83,3.15-1,4.75-.61,4.48-6,3-9.41-.67-1.52-2.12-4-1.25-5.68.48-.94,1.71-1,2.63-1.25a7,7,0,0,0,3.19-1.47c3.73-3.35,1.62-8.61.35-12.52a8.36,8.36,0,0,1,.84-7.79,25.63,25.63,0,0,1,5.71-5.58,1.51,1.51,0,0,0,0-2.12c-2.69-2.18-1.43-6.15-.32-8.86s3.75-8.67,7.57-6.66a1.54,1.54,0,0,0,1.82-.23c2.69-3,1.89-8.3-1.89-10-1.75-.79-3.27,1.79-1.52,2.59a3.49,3.49,0,0,1,1.29,5.32l1.82-.24a6.6,6.6,0,0,0-7,.71c-2.23,1.64-3.49,4.27-4.57,6.74-1.71,3.92-3.25,9.61.66,12.78v-2.12c-3.73,2.95-7.79,6.58-8.07,11.68-.17,2.95,1.25,5.6,2,8.37.5,1.76.78,4.37-.75,5.74-.83.73-2,.76-3.06,1a5.31,5.31,0,0,0-3,1.88c-1.38,1.83-1,4.3-.32,6.33s1.87,3.73,1.86,5.85a1.92,1.92,0,0,1-.76,1.79,4.48,4.48,0,0,1-1.79.27,5.9,5.9,0,0,0-2.13.56,7.39,7.39,0,0,0-3.77,6c-.3,3.15,1.27,6.14,2.72,8.82.91,1.7,3.5.18,2.59-1.52Z" transform="translate(-560.44 -220.47)"/><path d="M642.89,431.55c-2.89-1.66-5.53,1.85-4.06,4.5s4.76,3,7.25,1.78a8,8,0,0,0,4.42-6.52c.34-3.62-1.4-7.06-3-10.17l-1.69,2.21c4.21,1.69,9-.87,11.14-4.6,2.73-4.75,1.18-10.64-1.26-15.15l-1.3,2.26c4.09-.29,7.18-3.23,8.65-6.93,1.86-4.7.51-10-.81-14.61l-1.85,1.85c3.86.79,7.5-1.58,9.18-5,2.09-4.27,1-9.15-.19-13.51l-2.5,1.46c2,2.19,5.12.71,6.44-1.46,1.88-3.08-.51-6.24-.59-9.41l-2.25,1.29a4.25,4.25,0,1,0,4.29-7.33c-1.69-.94-3.2,1.65-1.51,2.59a1.26,1.26,0,1,1-1.27,2.15,1.52,1.52,0,0,0-2.26,1.3c.06,2.26,1.24,4.3,1.33,6.53,0,.75-1.12,3.25-2.06,2.22a1.51,1.51,0,0,0-2.51,1.46c.87,3.36,1.93,7.14.75,10.56-.83,2.41-3.32,4.83-6,4.27a1.51,1.51,0,0,0-1.84,1.84c1.08,3.81,2.33,8.06,1.16,12-.82,2.77-3.05,5.52-6.11,5.74a1.51,1.51,0,0,0-1.29,2.25c1.86,3.43,3.37,8.1,1.42,11.83-1.48,2.83-4.79,4.77-7.92,3.51-1.3-.52-2.24,1.16-1.69,2.21,1.55,2.93,4,7.24,2,10.51a4.82,4.82,0,0,1-3.11,2.32,2.36,2.36,0,0,1-1.61-.23,1.71,1.71,0,0,1-.73-.73c-.14-.32,0-.35,0-.39a1.5,1.5,0,0,0,1.52-2.59Z" transform="translate(-560.44 -220.47)"/><path d="M650.12,443.63c-2.84,1-2.07,5.13.73,5.59,3.35.56,6.19-3.5,7.52-6.05a17.21,17.21,0,0,0,1.68-4.71c.27-1.46.1-3.79,1.4-4.81s2.22,1.16,3.14,1.8a3.29,3.29,0,0,0,4.23-.05,1.53,1.53,0,0,0,.39-1.46l-1.08-5.37-.53-2.69c-.15-.75-.4-1.14.15-1.64.86-.79,2-1.29,2.8-2.15a14.66,14.66,0,0,0,2.21-2.92c2.56-4.42,3.08-9.74,3.42-14.73l-1.9,1.45c1.18.33,2.76,1.12,4,.71a3.47,3.47,0,0,0,2.09-2.22,7.89,7.89,0,0,0,.33-3.13c0-.63-.28-2.22.35-2.67.31-.22.94.15,1.3.21a4.11,4.11,0,0,0,1.78,0,5.05,5.05,0,0,0,2.63-1.91c1.65-2.18,1.23-5.08,2.73-7.27,1.09-1.6-1.51-3.1-2.6-1.52-1.32,2-1.09,4.34-2.13,6.36-.48.94-1.12,1.62-2.21,1.34a3.62,3.62,0,0,0-3,.22c-1.63,1-2,3.23-1.86,5a8.67,8.67,0,0,1-.13,2.44.69.69,0,0,1-.17.34c.18-.19.24,0-.19-.16-.66-.24-1.39-.39-2.07-.58a1.52,1.52,0,0,0-1.9,1.45c-.33,4.89-.79,10.55-3.9,14.57a10.51,10.51,0,0,1-2.63,2.39c-1.12.71-2.11,1.42-2.24,2.86s.48,3.33.78,4.86l1.12,5.62.39-1.46c-.15.13-1.84-1.8-2.07-2a3.71,3.71,0,0,0-3-.9c-2.53.36-3.83,2.75-4.2,5.05a18.6,18.6,0,0,1-2.19,7.1,13.24,13.24,0,0,1-2.28,2.83,3.32,3.32,0,0,1-1.75.9c.08,0,0-.08,0-.08s0-.12,0,0-.12.31-.36.37c1.8-.64,1-3.54-.8-2.89Z" transform="translate(-560.44 -220.47)"/><path d="M764.57,360.68a7.29,7.29,0,0,0,6.12,12.73l-1.69-.69c.69,1.22-.52,2.79-1.07,3.86a8.75,8.75,0,0,0-1.23,4.21,7,7,0,0,0,4.94,6.39l.4-2.95c-4-.07-5.63,4.26-5.13,7.64.66,4.48,5.21,6.86,7.07,10.74l.89-2.21c-6.26,2.35-7.69,10.21-5.17,15.83.64,1.42,2.65,3.52,1.61,5.1-.92,1.4-2.79,2.08-3.94,3.29a11.25,11.25,0,0,0-2.7,9.88c.35,1.69,1.11,3.54,2.72,4.38,1.45.76,3.7.61,4-1.35l-2.9-.8a46.17,46.17,0,0,0-.37,9.1c.13,1.92,3.13,1.93,3,0a41.87,41.87,0,0,1,.27-8.3c.25-1.87-2.58-2.72-2.9-.8.73-.3.94-.42.63-.37a.92.92,0,0,1-.36-.13,1.87,1.87,0,0,1-.57-.64,6.65,6.65,0,0,1-.75-2.5,8.3,8.3,0,0,1,1-4.86c1.69-3.06,6.48-4.07,6.16-8.18-.15-2.05-1.58-3.56-2.33-5.4a10.9,10.9,0,0,1-.76-4.42c.09-2.81,1.36-5.88,4.17-6.93a1.54,1.54,0,0,0,.9-2.21,18.42,18.42,0,0,0-3.13-4.31,16.58,16.58,0,0,1-3.23-4.14c-.72-1.63-.66-5.45,1.83-5.41a1.51,1.51,0,0,0,.4-3c-2.54-.75-3.24-3.49-2.17-5.68,1.14-2.36,2.81-4.79,1.32-7.39a1.55,1.55,0,0,0-1.7-.69,4.47,4.47,0,0,1-4.6-2.57,4.53,4.53,0,0,1,1.4-5.14c1.47-1.26-.66-3.37-2.12-2.13Z" transform="translate(-560.44 -220.47)"/><path d="M779.51,358.31q6.19-1.19,12.46-1.8l-1.3-2.26c-3.4,6.71-11.69,11.89-10.24,20.4A7.86,7.86,0,0,0,786,381a6.32,6.32,0,0,0,7.37-2.44c.76-1.22-.8-2.94-2-2.05-2.58,1.84-3.29,4.92-2.87,7.94.25,1.85.86,3.62,1.2,5.46a27.35,27.35,0,0,1,.3,5.72c-.16,6.33-.84,13.75,4.37,18.45v-2.12c-2.56,2.79-2,6.82-.16,9.85,2.11,3.41,5.91,5.27,8.14,8.57,1.07,1.59,3.67.09,2.59-1.51-1.91-2.84-4.76-4.69-7-7.17-1.72-1.86-3.44-5.39-1.4-7.62a1.52,1.52,0,0,0,0-2.12c-4.4-4-3.67-10.52-3.5-15.86a33.44,33.44,0,0,0-1-9.4c-.58-2.3-1.5-5.92.85-7.6l-2-2.06c-1,1.65-3.26,1.51-4.81.74-2.37-1.17-3-3.75-2.62-6.23,1.06-6.32,7.09-10.26,9.87-15.74.47-.91-.08-2.37-1.29-2.25q-6.68.64-13.25,1.91c-1.9.36-1.1,3.25.79,2.89Z" transform="translate(-560.44 -220.47)"/><path d="M733.68,254.41a11.67,11.67,0,0,0-7.69-7.34,11.22,11.22,0,0,0-10.64,2.69,12.22,12.22,0,0,0-3,4.68,5.81,5.81,0,0,1-1.1,2.05,2.33,2.33,0,0,0-.27.26c-.22,0-.86-.89-1-1-2.85-2.42-6.85-1.1-9.4,1.07-3.59,3.05-3.86,8.22-6.82,11.7h2.12l-2.94-2.63a1.53,1.53,0,0,0-2.12,0c-2.29,2.13-1.67,5.22-2,8-.21,1.6-.93,2.17-2.37,2.79a6.09,6.09,0,0,0-3.46,3.5,50.84,50.84,0,0,0-1.29,5.07,28.9,28.9,0,0,1-2,5.25,31.09,31.09,0,0,1-6.68,9c-1.41,1.32.71,3.43,2.12,2.12a33.51,33.51,0,0,0,6.79-8.86,34.28,34.28,0,0,0,2.18-5.15c.57-1.72.87-3.49,1.32-5.24a5,5,0,0,1,1-2.16,6.92,6.92,0,0,1,2.26-1.2,5.22,5.22,0,0,0,2.83-3.28,16.38,16.38,0,0,0,.45-4.25c0-1.23.08-2.55,1-3.44h-2.12l2.94,2.63a1.51,1.51,0,0,0,2.12,0c2.46-2.89,3.25-6.58,5.18-9.78,1.26-2.08,4.84-4.84,7.16-2.67,1.19,1.11,2.44,2.16,4.15,1.28a6.67,6.67,0,0,0,2.67-3.59,10.23,10.23,0,0,1,2.6-4.08,8.49,8.49,0,0,1,4.47-2.06,8.38,8.38,0,0,1,8.71,5.51c.64,1.81,3.54,1,2.9-.8Z" transform="translate(-560.44 -220.47)"/><path d="M741.85,321.76l-.11-.11c-.16-.16.09.12.08.12s-.17-.28-.18-.31.1.31.05.14a.88.88,0,0,0-.05-.15c0-.11-.06-.23-.08-.34l.06.39a2.52,2.52,0,0,1,0-.55l-.05.4v-.08l-.69.9a4.91,4.91,0,0,1,.5-.28l.15-.08-.13.06.27-.1a5.87,5.87,0,0,1,1.17-.28l-.4.06a6.11,6.11,0,0,1,1.48,0l-.4-.06a5.81,5.81,0,0,1,1.36.36,1.53,1.53,0,0,0,1.16-.16,1.49,1.49,0,0,0,.68-.89,1.51,1.51,0,0,0-.15-1.16,1.7,1.7,0,0,0-.89-.69,7.16,7.16,0,0,0-4.77-.09,7.76,7.76,0,0,0-1.22.53,2,2,0,0,0-.86.73,2.09,2.09,0,0,0-.23,1.07,3.74,3.74,0,0,0,1.13,2.69,1.5,1.5,0,0,0,2.12-2.12Z" transform="translate(-560.44 -220.47)"/><path d="M744,321.3a1.61,1.61,0,0,0-1.8-1.22,1.9,1.9,0,0,0-1.38.91,1.77,1.77,0,0,0,0,1.82,2,2,0,0,0,1.77.94,5.54,5.54,0,0,0,2.49-1.07l2.09-1.25a1.5,1.5,0,0,0-1.51-2.59l-1.74,1c-.54.32-1.08.7-1.66,1l.36-.16a1.69,1.69,0,0,1-.36.12l.39-.06h-.17l.4.05-.17,0,.36.15a.21.21,0,0,1-.1-.06l.3.24a.23.23,0,0,1-.07-.07l.23.31,0-.06.15.36a.13.13,0,0,1,0-.06l0,.39v-.06l0,.4a.14.14,0,0,1,0-.06l-.15.36a.47.47,0,0,1,.07-.12l-.24.3a.48.48,0,0,1,.11-.09l-.31.23.09-.05-.36.15.08,0-.4.05h0L742,323h0l-.35-.15h0l-.31-.23h0l-.23-.3a.08.08,0,0,1,0,0l-.15-.35s0,0,0,.06a1.5,1.5,0,0,0,1.84,1,1.55,1.55,0,0,0,.9-.69l.15-.36a1.55,1.55,0,0,0,0-.8Z" transform="translate(-560.44 -220.47)"/><path d="M731.12,314c2.94-2.44,7-2.68,10.63-2.52s8.25.25,11.42,2.46c1.58,1.1,3.08-1.5,1.51-2.59a14.75,14.75,0,0,0-6.51-2.26,67.36,67.36,0,0,0-6.8-.62c-4.43-.16-8.87.51-12.37,3.41-1.49,1.23.64,3.34,2.12,2.12Z" transform="translate(-560.44 -220.47)"/><path d="M736,350.9A2,2,0,0,0,734.1,349a2.21,2.21,0,0,0-2.16,1.46c-.62,1.93,1.32,3.55,2.62,4.67a21.21,21.21,0,0,0,8.79,4.58,1.5,1.5,0,0,0,.8-2.89,17.77,17.77,0,0,1-5.89-2.61,16.59,16.59,0,0,1-2.4-1.94,6.47,6.47,0,0,1-1-1.11l-.09-.16,0,0a1.07,1.07,0,0,1-.31.8.72.72,0,0,1-.47.16h.09c-.61,0-1-.4-1.06-1.09a1.54,1.54,0,0,0,1.5,1.5,1.51,1.51,0,0,0,1.5-1.5Z" transform="translate(-560.44 -220.47)"/><path d="M733.81,358.91a1.67,1.67,0,0,0-.79-2,2,2,0,0,0-1.91,0,2,2,0,0,0-.09,3.33c.7.6,1.5,1.11,2.26,1.64l2.18,1.56a1.5,1.5,0,0,0,2-.54,1.5,1.5,0,0,0,.16-1.15,1.76,1.76,0,0,0-.69-.9c-1.35-1-2.72-1.89-4-2.88l.3.23a2.05,2.05,0,0,1-.34-.32l.24.3A1.48,1.48,0,0,1,733,358l.15.36,0-.12.06.4a.61.61,0,0,1,0-.19l-.06.4,0-.07-.15.36,0,0-.24.3a.12.12,0,0,1,.05-.05l-.31.23.1-.06-.36.16.11,0-.4.06a.38.38,0,0,1,.15,0l-.4-.06.11,0-.36-.15.08,0-.3-.23,0,0-.24-.3,0,0-.15-.36v0l-.06-.4a.06.06,0,0,1,0,.06l.06-.4a.64.64,0,0,1,0,.07,1.47,1.47,0,0,0,.15,1.16,1.53,1.53,0,0,0,.89.69,1.51,1.51,0,0,0,1.16-.15,1.76,1.76,0,0,0,.69-.9Z" transform="translate(-560.44 -220.47)"/><path d="M724.86,339.85a.63.63,0,0,1,.81.58l-.44,1.06c.12-.11.1-.09-.06.05.14-.08.11-.07-.1,0l.18-.05-.16,0h.14c.16,0,.12,0-.12,0l.19.05c.16.06.13,0-.08,0,0,0,.25.14.27.15s.12.08,0,0l.16.14.22.23c-.27-.29,0,.07.07.15s0-.27,0,.08c0,0,0,.1,0,.15s0,.14,0-.08a1.48,1.48,0,0,1,0,.21c0,.17,0,.14,0-.08,0,.08-.08.28-.1.36s0,.15,0,0a2.12,2.12,0,0,1-.11.21c-.06.11-.13.21-.19.31.19-.3-.1.1-.16.16l-.32.29c-.08.07-.06.06.06,0l-.21.15-.44.26-.34.18-.24.11c.16-.07.16-.07,0,0a13.74,13.74,0,0,1-1.91.5,14.9,14.9,0,0,0-4.48,1.36,1.52,1.52,0,0,0,.76,2.8,3,3,0,0,0,3.08-3.2,1.54,1.54,0,0,0-1.5-1.5c-.74,0-1.6.66-1.5,1.5a1,1,0,0,1,0,.25c0-.19,0-.2,0,0,.08-.17.08-.17,0,0,.1-.11.12-.13.05-.05l-.14.13c.14-.11.13-.12,0,0,.17-.06.17-.07,0,0,.19,0,.2,0,0,0l.76,2.79.54-.28c-.21.1.31-.11.36-.12a12.09,12.09,0,0,1,1.18-.32c.81-.18,1.63-.31,2.44-.5a7.94,7.94,0,0,0,4.09-2.18,4.12,4.12,0,0,0,.84-4.66,3.92,3.92,0,0,0-3.57-2.24c-1.27.09-2.63,1-2.26,2.46a2.43,2.43,0,0,0,2.93,1.75,1.51,1.51,0,0,0,1-1.85,1.53,1.53,0,0,0-1.84-1Z" transform="translate(-560.44 -220.47)"/><path d="M708.9,338a3.37,3.37,0,0,1-.32.19c-.12.06.13,0-.11,0,0,0-.41.09-.24.06s-.24,0-.24,0h-.29c.26,0-.06,0-.11,0s-.32-.11-.13,0a2.88,2.88,0,0,1-.38-.22,1.51,1.51,0,0,0-2.2,1.69,17.67,17.67,0,0,0,8,10.6,1.5,1.5,0,1,0,1.51-2.59c-.42-.26-.84-.52-1.24-.81l-.17-.13-.23-.18-.57-.49a14.71,14.71,0,0,1-1.05-1c-.17-.18-.33-.36-.49-.55s-.19-.23-.29-.35l-.08-.1a16.81,16.81,0,0,1-1.55-2.53c-.11-.22-.21-.45-.31-.67s0,.12,0-.12-.09-.23-.13-.35a15.16,15.16,0,0,1-.47-1.49l-2.2,1.7a4.51,4.51,0,0,0,4.84,0,1.53,1.53,0,0,0,.54-2,1.5,1.5,0,0,0-2.05-.54Z" transform="translate(-560.44 -220.47)"/><path d="M773.81,331.34c0-.16,0-.12,0,.13q0-.24,0,.15c-.11.23-.13.27,0,.13l-.14.17c.27-.31-.17.11,0-.05l.16-.09c-.2.08-.25.11-.14.07s.52-.1,0,0h.18c-.23-.05-.3-.05-.18,0,.35.08-.25-.14,0,0a.69.69,0,0,1-.31-.3c-.08-.23-.1-.26-.05-.1l1.05-1.85a10.87,10.87,0,0,0-6.4,12.3,1.5,1.5,0,0,0,2.89-.8c-.05-.23-.1-.47-.13-.7,0,.31,0-.15,0-.17s0-.24,0-.36,0-.47,0-.71,0-.24,0-.36.07-.48,0-.16a9.06,9.06,0,0,1,.32-1.39c.07-.23.15-.46.24-.68-.1.27.07-.15.07-.17s.11-.21.16-.32a10.24,10.24,0,0,1,.75-1.22c0-.07.19-.26.06-.1l.28-.33c.15-.18.32-.35.49-.52l.53-.47c.33-.3-.12.07.09-.08l.29-.21a7.23,7.23,0,0,1,.66-.4l.32-.17s.42-.19.16-.08a1.54,1.54,0,0,0,1-1.85c-.94-3.18-6.28-1.58-5.25,1.54a1.5,1.5,0,1,0,2.89-.8Z" transform="translate(-560.44 -220.47)"/><path d="M814.83,433.2c-7.7-.28,9.64,1.44,0,1.23l-1.3-.74a146.23,146.23,0,0,1,17.14,32.42c.67,1.79,3.57,1,2.89-.8a149.89,149.89,0,0,0-10.94-23q-1.6-2.73-3.33-5.4c-.57-.89-1.16-1.77-1.75-2.64a10.94,10.94,0,0,0-1.8-2.48c-1.32-1-2.92.28-3.14,1.64a2.3,2.3,0,0,0,2.18,2.81c1.93.07,1.93-2.93,0-3Z" transform="translate(-560.44 -220.47)"/><path d="M636.44,409.36c-.73-3-4.2-4.24-6.92-3.28-3.3,1.16-5.62,4.48-7.64,7.16a55.6,55.6,0,0,0-9.15,19,56.23,56.23,0,0,0-1.79,12.1c-.08,1.93,2.92,1.93,3,0a52.34,52.34,0,0,1,5.79-22,51,51,0,0,1,6.19-9.39c1.17-1.41,2.47-3.14,4.2-3.89,1.21-.52,3.06-.4,3.42,1.11.46,1.88,3.35,1.08,2.9-.8Z" transform="translate(-560.44 -220.47)"/><path d="M698.2,315.08a5.18,5.18,0,0,0-3.74,3.73,1.13,1.13,0,0,0,1.08,1.42,14.41,14.41,0,0,0,8.53-2.37,1.16,1.16,0,0,0,.4-1.54c-.83-1.92-3.81-1.94-4.9-.29-1.36,2.05,1,4.85,3.23,4.14a1.13,1.13,0,0,0,.67-1.65c-.65-1.16-2-2.54-3.43-1.65-1.21.75-1.37,2.85.21,3.27a1.13,1.13,0,0,0,.6-2.17.75.75,0,0,1,.48.67q0-.18,0,.09c0-.11,0-.09,0,.06l.08-.14q-.15.19,0,.06a.41.41,0,0,1-.24.13h0a.29.29,0,0,1-.16,0h0c.11.07.12.07,0,0l.16.16,0,0,.13.19c.08.13.16.26.23.4l.67-1.66-.19.06c.11,0,.11-.06,0,0s-.13,0,0,0,.07,0,0,0-.23-.07-.09,0-.27-.17-.17-.1-.27-.31-.12-.11c-.05-.06-.2-.36-.12-.16l-.06-.18c-.1-.26,0,.12,0,0s0-.23,0-.09,0-.06,0-.09,0,.15,0,0,.19-.15,0,0l.11-.12c0,.07-.15.1,0,0l.14-.08c-.06,0-.18.05,0,0l.2-.05c.12-.05-.18,0-.05,0h.33c.13,0-.23-.07,0,0l.16,0c.14,0,0,0,0,0l.15.08c.12.06,0,0,0,0l.15.14c.06.05,0-.12,0,0a1.74,1.74,0,0,0,.1.19l.4-1.54a12.15,12.15,0,0,1-7.39,2.06l1.09,1.43a2.91,2.91,0,0,1,2.17-2.16,1.13,1.13,0,1,0-.6-2.17Z" transform="translate(-560.44 -220.47)"/><g class="cls-10"><path class="cls-11" d="M779.89,303.53c.35-.18.49-.75,1-.28A5.83,5.83,0,0,1,782,306a7.86,7.86,0,0,0,.92,2.78l.66-.11c.2.81.31,1.66.46,2.5s.22,1.73.34,2.6a76.79,76.79,0,0,1,2.43,9.38c.23-.11.44-.18.57.13a25,25,0,0,1,.32,5.27c.06.3.12.59.16.88a.83.83,0,0,0,.52.31c0,.92,0,1.73-.11,2.49,1.32,10,1.09,20.92,0,32.93a55.4,55.4,0,0,1-.23,7.67,108.82,108.82,0,0,1-3.14,11.37c2.4.06,1.14,8.73,3.84,7.71-.69,2.28-1.8,5.7-1.23,6.06,1.71,1.1,3.36,3.53,2.51,10-.51,2.49-2.53,5.89-2.45,6.86.14,1.52,2.36-2.65,2.5-1.13a237,237,0,0,0,8.27-26.63c1.14-4.48,2.18-9,3.17-13.54s1.93-9.13,2.84-13.87c0-1.66.58-5.63,1.11-11a139.35,139.35,0,0,0,.67-19.08,87,87,0,0,0-3.18-20.46,79.38,79.38,0,0,0-5.44-13.93l-.58-1a46.06,46.06,0,0,0-6.44-9.09l-1-1-1-1c-.68-.64-1.34-1.26-2.05-1.81s-1.38-1.1-2-1.56-1.17-.76-1.62-1-.8-.36-1.11-.47a3.27,3.27,0,0,0-.75-.16,3.12,3.12,0,0,1-.68-.25,2.3,2.3,0,0,1-.77-.67c-.12.88-.33,1.28-.41,1.9a8.41,8.41,0,0,1-.37-.81c-.12-.28-.25-.69-.38-1a6.94,6.94,0,0,0-.85-1.88A8.3,8.3,0,0,0,776,273c-.41-.4-.7-.37-.93-.1a26.06,26.06,0,0,0-1.31,3.11c-.32,1.53-1.82-.08-1.94,2.26-.39-1.57-.52-2.36-.91-3.82-.33,0,.06,1.09.35,2.16s.55,2.07-.11,1.65a20.64,20.64,0,0,0-1.35-4.44c-.32.36,0,1.5.17,2.75s.47,2.49,0,2.49a9.77,9.77,0,0,1-.3-2.68c-.06-1-.25-1.86-.81-1.81-.21,0,.14,1.29.31,2.08-.72-2.32-1.6-3.24-2.08-3.09a.63.63,0,0,0-.63.38,4.33,4.33,0,0,0-.27.37,1.39,1.39,0,0,0-.1.29l0,.16,0,.25a2.1,2.1,0,0,1-.12-.52.28.28,0,0,1,0-.13s-.07-.17-.1-.26a1.32,1.32,0,0,0-1-.73v0a2.17,2.17,0,0,1,.88.92,1.91,1.91,0,0,0-.93-.73l-.08.41c.16.21.29.44.45.66a1.69,1.69,0,0,0-.5-.46,5.82,5.82,0,0,1-.32,1c0,.1,0,.24-.1.31s-.26.06-.27,0l-.27.23c-.06.09-.12.23-.17.32a2.92,2.92,0,0,0-.17,1.62c.19,1,.42,2.32.85,3.94a21.15,21.15,0,0,0,2.55,5.87c.31.49.65,1,1,1.42s.74.9,1.06,1.26c.66.73,1.28,1.35,1.83,1.87l1.44,1.35c.41.37.69.69,1,1A42.93,42.93,0,0,1,779.89,303.53Z" transform="translate(-560.44 -220.47)"/></g><g class="cls-10"><path class="cls-11" d="M831.24,352.32c-.39.11-.61.74-1,0-1.17-2.39-.53-4.81-1.7-7.21l-.68,0c-.33-2-.68-4.15-1-6.31q-2-5.67-4.09-11.21c-.2.17-.39.28-.6-.06a61.68,61.68,0,0,1-1.8-6c-.14-.33-.29-.65-.43-1a.77.77,0,0,0-.6-.21c-.3-1-.54-1.94-.74-2.8-2.38-5.32-4.83-10.67-7.35-16.15l-7.82-17a79.12,79.12,0,0,0-4.94-7.43,37.11,37.11,0,0,0-4.61-5.43,38.77,38.77,0,0,0-5.24-4.22c-.38,1.12-2.7.66-4.85.41s-4.17-.43-4,1c-2.14-1.3-5.35-3.26-5.84-2.79-1.49,1.4-4.29,2.38-10.63,0-2.39-1.07-5.42-3.79-6.41-3.91-1.57-.19,2.22,2.89.65,2.7,4.09,2.59,8.19,5.07,12.3,7.48l6.17,3.59c2.09,1.2,4,2.28,5.64,3.31a25.13,25.13,0,0,1,3.93,3,11.13,11.13,0,0,1,2.28,3.1,38.18,38.18,0,0,1,2.12,5.34q1.11,3.42,2.23,6.87c3,6,17.1,48.41,20.17,59.48l.35,1c.45,1.5.94,3.08,1.47,4.67.47,1.44,1,2.9,1.44,4.33s.73,2.41.94,3.3.35,1.53.48,2a6,6,0,0,1,.48,1.35l6.91-3.54a14.28,14.28,0,0,0-6.5,1.88,12.26,12.26,0,0,1,5.5.15,12.64,12.64,0,0,0-5.75,1.16,8.1,8.1,0,0,0-3,2.25,7.53,7.53,0,0,0-2,3.23c-.13.67.09.89.46.86.74-.07,2.28-.9,3.67-1,.86-.27,1,.19,1.24.55s.59.63,1.62.39a8.55,8.55,0,0,0-2.74,2.38c.23.26.79-.69,1.54-1.36s1.54-1.07,1.39-.38c-1.25.48-2,1.86-2.69,3,.51,0,1.11-.87,1.91-1.47s1.6-.93,1.72-.5c-.21.19-1,.37-1.7.8s-1.19,1-.78,1.41c.15.14.79-.75,1.23-1.1a4.12,4.12,0,0,0-1,1.92,2,2,0,0,0,0,.73.87.87,0,0,0,.19.48.65.65,0,0,0,.71.24,4.85,4.85,0,0,0,1.08-.49c-.18.26-.36.53-.53.81a.81.81,0,0,0-.1.72h0c0-.21.23-.55.28-.76a2.46,2.46,0,0,0-.07.67l.44-.15c.11-.12.24-.22.26-.36a.47.47,0,0,1,0,.17.2.2,0,0,1,0,.13,3.77,3.77,0,0,1,1-.11,3.69,3.69,0,0,1,1.15.11c.37.09.59.2.64.19a.14.14,0,0,1,.13,0c0,.08-.08-.14-.15-.24a3,3,0,0,1-.21-.44,3.11,3.11,0,0,1-.3-1.34l9-2.32a21.45,21.45,0,0,0,3.06-9.83,31.14,31.14,0,0,0-.6-8.24c-.48-2.38-1.1-4.54-1.67-6.42Z" transform="translate(-560.44 -220.47)"/></g><g class="cls-10"><path class="cls-11" d="M716.18,234.84c.11.4,1.26.43-.28,1.15l-6.63,2.86a20.45,20.45,0,0,0-5.74,3.65l.15.72a74.09,74.09,0,0,0-8.46,6.83A107.33,107.33,0,0,0,684,265.57c.29,0,.51.05.24.62-1.26,2.31-3.35,5.29-5.17,8.61-.23.5-.46,1-.67,1.52a1,1,0,0,0,.18.78l-2.14,4.08a114,114,0,0,0-4.13,13.27c-1.13,4.54-1.88,9.05-2.61,13.38s-1.48,8.53-2.58,12.58a47.62,47.62,0,0,1-4.85,11.7,114.16,114.16,0,0,1-5.66,10.37c-1.57,2.44-3.51,5.24-5.09,8.27A24.08,24.08,0,0,0,650.3,353q-.54,1.14-1.08,2.25c-.59,1.52-1.26,3-1.67,4.36.61,0,.88.81,1,2s.18,2.84.22,4.37a19.4,19.4,0,0,0,.58,3.92c.33.94.78,1.34,1.45.79-.14.88-.33,1.87-.46,2.88s-.23,2-.31,2.94c-.09,1.83,0,3.26.26,3.42,2,1,3.81,3.74,5.29,13,.39,3.64,0,9.43.5,10.73.79,2,1-4.95,1.8-2.92a192.12,192.12,0,0,1-.1-19.9c.21-3.17.52-6.27,1-9.27a65.89,65.89,0,0,1,2.09-8.63,50.62,50.62,0,0,1,3.4-7.82,83.9,83.9,0,0,1,5.17-7.85c2-2.81,4.28-5.83,6.47-9.32a59,59,0,0,0,3.12-5.56,62.61,62.61,0,0,0,2.54-5.82c.41-1.37,1.09-3.66,1.86-6.59s1.58-6.47,2.45-10.25c.44-1.89.9-3.84,1.41-5.81s1.08-3.92,1.76-5.94a95.29,95.29,0,0,1,5-12.34,99.69,99.69,0,0,1,14.59-22,48.83,48.83,0,0,1,7.27-6.94,22.32,22.32,0,0,1,5.35-3.1l.92-.4a14.63,14.63,0,0,1,4.21-.8,16.83,16.83,0,0,1,4.54.53,56,56,0,0,1,10.26,4.31c3.12,1.37,6.53,3,10.12,4.5-1.31-1.28-2.44-2.49-3.36-3.57,3,2.14,6.41,4.28,8,4.64,4,1.62,5.19,1.37,4.9.62s-1.78-2.24-2.75-3.67c-1.57-1.69,1.48-1.13-1.07-3.44a50.19,50.19,0,0,0,5.27,2.91c.26-.24-1.44-.92-2.93-1.7s-2.76-1.6-1.77-1.63a29,29,0,0,0,6.45,3.15c-.22-.54-2-1.41-3.62-2.38s-3.08-2-2.7-2.23c.6.24,1.86,1.36,3.14,2.22s2.54,1.52,2.95,1.1c.08-.08-.39-.36-1-.67l-1.88-1c3.21,1.53,5.8,2,6.82,1.77.52-.09.66-.31.36-.67a11.92,11.92,0,0,0-2.24-1.63c1.82.78,4.31,1.83,6.26,1.77l0,0a23.93,23.93,0,0,1-3.44-.8,20.46,20.46,0,0,0,3.23.57c-.16-.17-.33-.34-.52-.51-.77-.2-1.53-.45-2.34-.65a18.93,18.93,0,0,0,2.07.41c-.47-.43-1-.83-1.55-1.3-2.22-1.19-4-3.18-5.36-3.87a100.6,100.6,0,0,1-8.37-5.59c-3-2.15-6.22-4.5-10-6.71a42.25,42.25,0,0,0-13.54-5.26A32.15,32.15,0,0,0,716.18,234.84Z" transform="translate(-560.44 -220.47)"/></g><g class="cls-10"><path class="cls-11" d="M659.57,370c.39-.09.72-.45,1-.1.71,1.16-.43,2.3.16,3.27l.65,0c-.12.89-.34,1.82-.55,2.73.28,1.62.49,3.24.67,4.89.23,0,.45,0,.54.12a8.15,8.15,0,0,1-.3,2.63l.06.45a1.17,1.17,0,0,0,.5.22,8.31,8.31,0,0,1-.32,1.2,43.13,43.13,0,0,1,0,8.05,66.33,66.33,0,0,1-1.56,9.24,20.52,20.52,0,0,1-.53,4.38c-.69,1.9-2.26,4-3.22,5.79,2.18.77,1.1,5.61,3.64,5.72-.6,1.14-1.43,2.89-.87,3.23a6.94,6.94,0,0,1,3.43,6.06c-.16,1.2-1.39,2.65-1.14,3.15s.66.09,1.09-.14.87-.5,1.08-.13c1.44-3.78,3.21-7.77,5.23-12.1s4.31-9,6.62-14.21c.14-1,.9-3.26,1.79-6.38a66.63,66.63,0,0,0,2.28-11.46,60.72,60.72,0,0,0,0-12.28,84.89,84.89,0,0,0-1.36-8.46l-.17-.58c-.39-1.74-.88-3.42-1.34-4.8a16.45,16.45,0,0,0-1.39-3.29,23.27,23.27,0,0,1-1.75-2.41c-.42.3-.84.64-1.23,1,.09-.95.31-1.75,0-2.16-.24-1-.61-1.4-1.24-1.5a5.68,5.68,0,0,0-2.32.46,1.44,1.44,0,0,1-1.25,0,1.11,1.11,0,0,0-1.34.39,13.54,13.54,0,0,1,.73-2.29c-.29-.17-.47.58-.62,1.24s-.27,1.25-.73.81c.43-.87.36-2,.8-3-.47,0-.92.82-1.21,1.61s-.52,1.54-.93,1.38c0-.3.39-1,.77-1.61s.68-1.19.23-1.5c-.2-.13-.63.92-.78,1.45a18.61,18.61,0,0,0,.56-3.81c-.08-.7-.8-.77-2.14.69a28.81,28.81,0,0,1,2.72-3.71h0a15.45,15.45,0,0,0-1.72,1.93,15.3,15.3,0,0,1,1.45-1.94,4.44,4.44,0,0,0-.62.05,6,6,0,0,0-1.3,1.41,16.13,16.13,0,0,1,1-1.36,6.43,6.43,0,0,0-1.68.63c-1.72,1.38-3.41,3-3.77,4.05a26.87,26.87,0,0,0-1.36,12.14A63.54,63.54,0,0,0,659.57,370Z" transform="translate(-560.44 -220.47)"/></g><g class="cls-10"><path class="cls-11" d="M642.54,350c.37.17.82.11.86.51-.06,1.16-1.65,1.45-1.71,2.61l.57.33c-.58.68-1.26,1.35-1.89,2.07q-.81,2.36-1.46,4.77c.24.05.45.12.46.3a9.83,9.83,0,0,1-1.11,2.37l-.06.45a1.08,1.08,0,0,0,.41.34,10.27,10.27,0,0,1-.6,1.06c-.33,2.47-.62,5-.9,7.57s-.63,5.43-.8,8.43a30.37,30.37,0,0,1,.48,3.91c-.14,1.74-.89,3.93-1,5.75,1.16-.1,2,.9,2.9,1.69s1.87,1.38,3,.91c0,.91.26,2.28.93,2.16a13.67,13.67,0,0,1,5.86.34c.43.25.15,1.22.55,1.09a.37.37,0,0,0,.4-.29,3.7,3.7,0,0,1,.29-.47,1.9,1.9,0,0,1,.71-.7c-.12-.47-.33-1-.51-1.79a13.06,13.06,0,0,1-.37-2.83,22.08,22.08,0,0,1,1.77-8.32,16.48,16.48,0,0,1,1-4.25c.68-2.1,1.6-4.69,2.58-7.31,2-5.24,4.21-10.65,5.33-12.77l.14-.41a20.67,20.67,0,0,0,2.2-7.73c-.06-.56-.13-1.19-.24-1.73s-.31-.89-.46-1.29a10,10,0,0,0-1.4.31c.38-.75.7-1.19.44-1.55a1.87,1.87,0,0,0-.86-1.55,6,6,0,0,0-2.17-.58,1.9,1.9,0,0,1-1.15-.48,1.15,1.15,0,0,0-1.32-.18,9,9,0,0,1,1.2-1.55c-.22-.24-.57.27-.85.75s-.54.9-.87.39c.61-.55.81-1.51,1.44-2.08-.43-.2-1,.29-1.49.82s-.86,1.07-1.21.8c0-.25.62-.67,1.13-1s.91-.7.56-1.12c-.14-.18-.78.49-1.06.86a12.61,12.61,0,0,0,1.42-2.79c.08-.56-.53-1-2.1-.33a6,6,0,0,1,1.58-.95c.59-.27,1.2-.46,1.64-.71h0a7.43,7.43,0,0,0-1.9.68,7.53,7.53,0,0,1,1.66-.82,5.62,5.62,0,0,0-.56-.25,3.86,3.86,0,0,0-1.43.49,10.42,10.42,0,0,1,1.14-.61,6.38,6.38,0,0,0-1.61-.25c-1.81.34-3.76,1-4.37,1.8a15.36,15.36,0,0,0-1,1.25c-.31.42-.56.81-.81,1.21-.47.76-.86,1.47-1.19,2.12l-1.5,2.88C644.28,346.12,643.37,348,642.54,350Z" transform="translate(-560.44 -220.47)"/></g><path class="cls-4" d="M752.61,386.42c.4.05.83-.23,1,.29a4.23,4.23,0,0,1-.48,2.22,3.68,3.68,0,0,0-.4,2.24l.65.14c-.33,1.23-.68,2.53-1,3.87a49.2,49.2,0,0,0,1,7.29c.23-.1.44-.15.56.07a26.08,26.08,0,0,1,.45,3.67l.21.57a.94.94,0,0,0,.54.12c.08.59.12,1.12.14,1.6,1.22,3,2.49,5.68,3.56,8.38a45.33,45.33,0,0,1,2.51,8.67,14.83,14.83,0,0,1,1.12,4.07c0,2-.84,4.34-1.34,6.15,1.15.11,1.75,1.38,2.32,2.61s1.12,2.42,2.38,2.26c-.44,1.31-1,3.09-.39,3.34a9.29,9.29,0,0,1,2.68,1.68c.41.37.79.78,1.15,1.17a4.52,4.52,0,0,0,1,.92c.06.09.08.1,0,.13h0l-.17,0-.34.07-.46.12-.26.09-.13.06h0c2.16-1.27.59-.35,1.08-.64h.15a.28.28,0,0,0,.13,0,.39.39,0,0,0,.17-.2l0-.07h0l-1.56.92h0a.52.52,0,0,1,.12-.06h0a7,7,0,0,1,1.55-.36,15.5,15.5,0,0,1,1.63-.15h.09a.25.25,0,0,0,0-.07c0-.19.17-.84.38-1.67.31-1.11.61-2.21.92-3.31.38-1.39.7-2.8,1-4.22a78,78,0,0,0,1.43-17.68c-.29-1-.61-3.58-1.23-6.76s-1.5-6.73-2.19-10a47.67,47.67,0,0,1-1.15-8.88,32.93,32.93,0,0,1,.34-6.16l0-.47a45.35,45.35,0,0,0,.64-8.71c-.11-.61-.24-1.23-.39-1.87s-.25-1.3-.37-1.94c-.53.39-1.05.76-1.54,1.07.4-1.15.85-2.26.62-2.84,0-2.77-1.59-1.88-3.43-1.41-.91.5-1.54-.86-2.62.07.34-.83.48-1.26.86-2.08-.6-.34-.65,2.71-1.44,1.76.53-.73.48-1.79.87-2.63-1,0-1.44,2.85-2.2,2.43,0-.56,2-2,1.07-2.58-.18-.11-.58.74-.74,1.18.71-2.78.45-4.72-1.7-2.67.37-.88,1.35-1.9,1.62-2.87h0c-.24.44-.79,1.13-1,1.54l.74-1.53-.53.09a4.83,4.83,0,0,0-.77,1.08l.5-1a9.17,9.17,0,0,0-1.32.48c-1.21,1-2.64,1.86-3,2.56A55.62,55.62,0,0,0,752.61,386.42Z" transform="translate(-560.44 -220.47)"/><path class="cls-4" d="M764.14,386.24c.4,0,.78-.3,1,0,.51,1.06-.73,2.09-.22,3.09h.66c-.18.84-.44,1.7-.63,2.58.29,1.53.63,3.05,1,4.56.23-.07.44-.12.55,0a9,9,0,0,1,.19,2.45l.16.39a1.07,1.07,0,0,0,.52.08,6.14,6.14,0,0,1,0,1.14c.93,2.19,1.89,4.29,2.93,6.63s2.18,4.71,3.47,7.16a21.33,21.33,0,0,1,2.24,2.89,13.55,13.55,0,0,1,.77,2.52,24.78,24.78,0,0,0,.73,2.57c1-.56,2.14-.06,3.27.26s2.19.5,3.07-.35c.37.8,1,2,1.61,1.63a10,10,0,0,1,5.78-1.41c.55.22.72,1.36,1.12,1.2a.39.39,0,0,0,.32-.36c0-.19.1-.37.13-.57a1.26,1.26,0,0,1,.49-.9,21.85,21.85,0,0,1-1.6-2.15,21.59,21.59,0,0,1-1.63-2.9,32.48,32.48,0,0,1-2.55-8.49,14.81,14.81,0,0,1-1.22-3.82c-.43-1.92-.9-4.52-1.32-7.09s-.8-5.25-1.09-7.54a49.74,49.74,0,0,1-.46-5.21l-.07-.37a16.69,16.69,0,0,0-1.24-6.17c-.52-.74-1.12-1.51-1.65-2.31l-1.24.82c.12-.79.29-1.53-.06-1.89-.62-1.8-1.93-1.26-3.63-.77-.77.43-1.67-.54-2.53.27.15-.67.22-1,.42-1.67-.65-.22-.09,2.13-1.05,1.48.35-.62.12-1.44.32-2.13-.45,0-.68.61-.88,1.16s-.35,1.08-.77,1c-.07-.22.31-.68.58-1.12s.46-.85,0-1c-.2-.08-.41.65-.5,1a4.82,4.82,0,0,0-.33-2.61c-.33-.48-.92-.46-1.81.53a7.36,7.36,0,0,1,.61-1.28,4.49,4.49,0,0,0,.58-1.33h0c-.18.39-.64,1-.78,1.41.17-.47.36-.93.54-1.39l-.51.09a3.76,3.76,0,0,0-.62,1l.36-1a7.58,7.58,0,0,0-1.25.5c-1,1-2.33,1.93-2.49,2.61a34.16,34.16,0,0,0-1.38,7.82A45.61,45.61,0,0,0,764.14,386.24Z" transform="translate(-560.44 -220.47)"/><path class="cls-4" d="M678,281.82c.34.22.88.09.74.7-.58,1.77-2.46,2.43-2.93,4.24l.53.4c-.87,1.13-1.82,2.29-2.68,3.51-1,2.5-1.81,4.94-2.51,7.35.25,0,.46.08.46.34a22.46,22.46,0,0,1-1.51,3.6l-.12.63a.8.8,0,0,0,.39.4,14.62,14.62,0,0,1-.77,1.58c-1.32,6.95-2.34,13.64-5.23,20.38a21.66,21.66,0,0,1-1.62,4.69c-1.22,2-3.44,4.2-4.86,6.19,1.06.49,1,2.11,1.11,3.6s.39,2.86,1.66,2.93c-.74,1.23-1.61,3.17-1,3.49a8.29,8.29,0,0,1,2.43,2.09,12.37,12.37,0,0,1,1.74,3.22,3.78,3.78,0,0,1-.18,1.41c-.11.44-.15.82,0,.92a.3.3,0,0,0,.5,0,4.42,4.42,0,0,1,.47-.39c.3-.25.66-.47,1-.33a15,15,0,0,1,1-4.11,25.52,25.52,0,0,1,1.19-2.61c.47-.89,1-1.84,1.69-2.86,1.31-2,2.95-4.25,4.77-6.76.9-1.27,1.85-2.61,2.81-4.06s1.87-3,2.72-4.46c.36-1.15,1.56-3.76,2.87-7.08s2.77-7.34,4.15-11.24,2.79-7.73,4.13-10.79a45.19,45.19,0,0,1,3.45-6.61l.25-.49c1.74-2.85,3.83-5.95,5-8.41.42-1.22.84-2.54,1.38-3.81-.7,0-1.33.16-2,.2,1-.87,2-1.59,2.2-2.24,1.69-2.4-.13-2.52-2.09-3.07-1.12,0-.78-1.62-2.34-1.28.83-.65,1.31-.89,2.19-1.49-.13-.31-.76.23-1.35.69s-1.1.88-1.15.21a5.7,5.7,0,0,0,1.33-.95,7.07,7.07,0,0,1,1.3-1c-.83-.6-3.3,1.9-3.68,1.14.35-.59,3.22-.88,2.8-1.9-.09-.22-1,.41-1.51.72a10.09,10.09,0,0,0,2.58-2.8c.24-.65-.3-1-2.08-.61a13.51,13.51,0,0,1,1.89-.83,9.34,9.34,0,0,0,1.91-.86h0c-.57.25-1.64.54-2.17.8l2-.93a4.41,4.41,0,0,0-.54-.24,7.9,7.9,0,0,0-1.6.53l1.32-.63a9.11,9.11,0,0,0-1.59-.33c-1.89.23-4,.33-4.77.9a43,43,0,0,0-9.06,7.48A53.47,53.47,0,0,0,678,281.82Z" transform="translate(-560.44 -220.47)"/><path class="cls-4" d="M776.84,335.29c.26.31.68.47.58.82-.44.92-1.93.46-2.37,1.41l.4.52c-.73.31-1.54.58-2.32.93a37.07,37.07,0,0,0-2.75,3.47c.2.13.37.27.33.44a8.56,8.56,0,0,1-1.66,1.62l-.18.36a1.15,1.15,0,0,0,.28.44,5.66,5.66,0,0,1-.82.7,84.06,84.06,0,0,0-4.65,13.09,15.2,15.2,0,0,1-.27,3.21c-.49,1.3-1.72,2.6-2.4,3.77,1.08.45,1.47,1.5,2,2.5s1,1.9,2.19,2.13c-.41.71-.95,1.81-.38,2.12,1.73.94,3.54,2.39,4,4.58,0,.8-1.12,1.63-.84,2,.47.58,1.62-.5,2.09.09,1.16-2.42,2.16-4.84,3.3-7.3a44.19,44.19,0,0,1,4.12-7.27c.13-1.1,2.14-4.44,4.79-7.67a49.37,49.37,0,0,1,7.38-7.37l.22-.24a14.31,14.31,0,0,0,4-4.7c.27-.92.49-1.95.72-2.95-.53-.06-1-.13-1.52-.23.68-.48,1.36-1,1.35-1.49.76-1.89-.74-2.16-2.27-2.94-.82-.22-1-1.46-2-1.51l1.16-.83c-.36-.55-1.16,1.36-1.53.28.59-.15.82-.85,1.29-1.18-.71-.57-1.76,1-2.24.25.12-.35,2-.09,1.41-1-.12-.19-.59.15-.83.32,1.17-1.37,1.3-2.8-.72-2.71.47-.33,1.38-.47,1.75-1h0c-.26.16-.8.3-1,.47l.84-.6-.42-.24a1.92,1.92,0,0,0-.77.28l.55-.39a8.43,8.43,0,0,0-1.08-.44c-1.07,0-2.32-.35-2.68-.09-1.55.92-3.07,1.85-4.58,2.88A52.07,52.07,0,0,0,776.84,335.29Z" transform="translate(-560.44 -220.47)"/><g class="cls-5"><path class="cls-6" d="M710.34,280.43a11.05,11.05,0,0,0-6.87,5.22c-1.57,2.5-1.94,8.57-4.78,9.74l2.61,4.49c6.54-6.16,3.66-19.64,13.38-22.26,3.68-1,2.13-6.58-1.57-5.69A14.08,14.08,0,0,0,703,280.71c-2,5-1.52,11.39-5.53,15.37-2.31,2.29.6,5.39,3.25,4.22,3-1.35,4.17-4.28,4.86-7.34a31.64,31.64,0,0,1,5.15-12c.19-.27-.13-.62-.43-.55Z" transform="translate(-560.44 -220.47)"/></g><g class="cls-5"><path class="cls-6" d="M696.46,330a4.77,4.77,0,0,0-6.5-.5c-2.72,2.11-2.32,5.8-1.4,8.69a2.44,2.44,0,0,0,4.4.58,11.75,11.75,0,0,0,1.23-9.15c-.69-2.86-4.39-2.35-5.29,0-1.43,3.67-4.15,15,2.67,15.38,5.91.3,9.3-9,10.18-13.52.52-2.69-3-5.5-5.09-3a18.7,18.7,0,0,0-4.59,14.85c.39,3,4,4.33,5.81,1.57,2.34-3.53,2.32-7.13.63-10.91-.83-1.84-3.71-2-5-.64-3.23,3.54-3.93,7.9-3,12.54.63,3.21,2,6.2,2.31,9.46.31,3,0,6,.88,8.93,1.56,5.08,5.33,11.06,8.58,15.2a6.84,6.84,0,0,0,3.61,2.74c1.14.27,6.1-.07,5-2.19l2.88-5-4.08,0c-3.68,0-4.62,5.75-.89,6.54a19.64,19.64,0,0,0,17.11-4.15c2.6-2.07-.21-6.37-3.17-5.45a40,40,0,0,0-7.13,3c-3.77,2-.45,7.15,3.26,5.58a44.93,44.93,0,0,0,13.85-9.24l-5.28-3.08a11.83,11.83,0,0,1-2.79,5.23l4.91,3.79,4.23-6.11c2.27-3.29-3.07-6.35-5.35-3.12l-4.28,6.07c-2,2.9,2.54,6.4,4.91,3.79a18.76,18.76,0,0,0,4.46-8c.88-3.1-3-5.21-5.28-3.07a38.51,38.51,0,0,1-11.87,7.8l2.49,5.91a31.85,31.85,0,0,1,5.6-2.26l-3.17-5.45a12.57,12.57,0,0,1-10.73,2.34l-.88,6.54,4.08,0a3.36,3.36,0,0,0,2.87-5,5.32,5.32,0,0,0-6.57-2.49c-.49.14-1.46.85-1.89.87-1.89.1.73.79-1.22-.62-1.71-1.25-3.33-5.48-4.41-7.3C699.88,362.68,700,359,699.3,354c-.66-4.73-5.11-11.89-1.29-16.18l-5-.64a3.94,3.94,0,0,1-.55,4.57l5.7.75a12.31,12.31,0,0,1,2.77-9.72l-5.08-3a19.15,19.15,0,0,1-1.42,4.85c-.51,1.09-1.88,2.31-2.16,3.36-1,.81-.95,1.05.11.71,1.1.12,1.35-.49.77-1.81.53-1.87.46-4,1-5.89H688.9a5.78,5.78,0,0,1-.1,5.26l4.41.57c-1.05-1.47-.68-2.84,1.09-4.11,1.66,1.2,3.56-1.41,2.16-2.8Z" transform="translate(-560.44 -220.47)"/></g><g class="cls-5"><path class="cls-6" d="M740.08,336.76c-.88-.34-10-4-9.76-4.4h-4.58l4.27,8.13a2.74,2.74,0,0,0,3.74,1,13.74,13.74,0,0,0,5-5.86L734,332.79a30.81,30.81,0,0,0-2.72,11.56,2.91,2.91,0,0,0,4.34,2.5,57.61,57.61,0,0,0,10.89-8.19l-5-2.93L738.69,343c-1,2.49,2.38,4.92,4.52,3.48a33.4,33.4,0,0,0,7.85-7.2L745.65,337a81.78,81.78,0,0,0-.53,8.85,3.25,3.25,0,0,0,4.07,3.1c9.79-2.12,10.27-12.47,12.48-20.39,3-10.9.62-21.49-.73-32.56-.36-3-3.43-4.43-5.81-2.41a57.38,57.38,0,0,0-7.82,8.07L753,305l1.14-6c.52-2.75-1.56-4.63-4.22-4.22a7.54,7.54,0,0,0-6.41,6.2,3.47,3.47,0,0,0,5.74,3.35,6.69,6.69,0,0,0,2.48-5.35c.15-2.65-3-4.25-5.18-3a69.89,69.89,0,0,1-20.94,8.17c-4.31.94-2.48,7.48,1.82,6.6A72.08,72.08,0,0,0,750.05,302l-5.18-3-.45.48,5.75,3.35,1.6-1.42-4.22-4.22-1.12,6c-.55,3,3.38,6.28,5.72,3.32a57.84,57.84,0,0,1,7.79-8.09l-5.8-2.4c1,8,3.63,17.5,2.47,25.54-.54,3.77-1.85,7.57-2.61,11.33-.84,4.09-1.82,8.81-6.52,9.88l4.07,3.1c0-3,.16-5.9.44-8.85.33-3.51-4.25-3.8-5.91-1.6a25.78,25.78,0,0,1-6,5.72l4.53,3.48,2.63-7.3c1.06-2.92-3-4.93-5-2.92a51,51,0,0,1-9.55,7.45l4.34,2.49a25.09,25.09,0,0,1,2.05-9.41c1.21-2.89-3.84-5.05-5.1-2.15a8.63,8.63,0,0,1-3,4l3.74,1-4.41-8a2.67,2.67,0,0,0-4.58,0c-5.38,8.69,10,8.18,14.15,8.45.85.06.88-1.11.19-1.38Z" transform="translate(-560.44 -220.47)"/></g><g class="cls-5"><path class="cls-7" d="M735.75,328.44q-1.56,2.78.54,4.65l6.2-4.78a21.29,21.29,0,0,0-11.93-6c-5.3-.76-7.43,6.22-2.24,8.13a72.45,72.45,0,0,0,25,4.25c5.61,0,5.62-8.74,0-8.72a73.71,73.71,0,0,1-22.77-3.66l-1.12,8.28a13,13,0,0,1,7.47,3.29c3.14,2.74,9-.95,6.2-4.78-2.64-3.58-6.87-7.2-11.46-4.34a5.62,5.62,0,0,0,.51,9.82c4.09,1.92,7.6-3.77,3.59-6.15Z" transform="translate(-560.44 -220.47)"/></g><g class="cls-5"><path class="cls-7" d="M720.55,326.13c-.66-1.54,4.49-6,5.48-7.05l-6.89-4a160.67,160.67,0,0,1-6.57,25.36c-1.53,4.67,5.67,7.75,8,3.36,4.33-8.27,6.48-18.31,6.71-27.63.11-4.36-5.48-5.24-7.69-2.08-3.19,4.58-8.47,9.61-4.21,15a3.09,3.09,0,0,0,3,.8l.74-.15c1.7-.35,2-2.25,1.46-3.58Z" transform="translate(-560.44 -220.47)"/></g><g class="cls-5"><path class="cls-7" d="M751.77,349.49c-3,3.31-5.58,6.88-8.33,10.4-2.63,3.36-5.68,6.5-8,10.09-2.17,3.4,2.83,7.27,5.6,4.31,5.83-6.22,10.88-15,14.15-22.79.81-1.94-2.13-3.45-3.44-2Z" transform="translate(-560.44 -220.47)"/></g><path class="cls-8" d="M723.54,262.38A15.58,15.58,0,0,0,734,261.9c2.85-1.15,3.6-5.73,0-6.58-6.42-1.51-12.74,0-18.39,3.28-4.21,2.45-1.37,8.79,3.25,7.71l30.3-7.07-5.42-4.13c-.46,6,4.83,12.9,11.41,11.43s7-11.53-.42-11.42-8.34,9.31-4.94,14.1c5,7.09,14.22,5.32,20.35.82,4.44-3.26.38-10.7-4.41-7.55-3.83,2.52-8.59,7.56-6.6,12.6a6.38,6.38,0,0,0,5.09,3.9c3.37.55,5.3-1.51,8.37-2.31l-4.3-7.38c-5.33,6.57-9.21,15.78-.77,21.68,4.7,3.29,9.18-4.44,4.49-7.69-2.53-1.75,1.44-6.39,2.52-7.75,2.63-3.26.29-8.58-4.29-7.37-1.15.3-4.25,2.27-5.3,1.86l2.62,2c.28.38,2.14-1.72,2.58-2l-4.41-7.55c-1.77,1.31-3.7,2.84-6,2.78a2.45,2.45,0,0,1-2.64-.74c-.35-1.84-1.45-2.15-3.3-.9l-2-2.58.21.82.43-3.32c.66-1.3-.24-1.94-.13-3.44.21-2.88-2.89-4.72-5.42-4.12l-30.27,7.18,3.26,7.72c4.17-2.52,8.41-3.44,13.22-3.87l-1.72-6.35a8.94,8.94,0,0,1-6.14.74c-3.86-.79-5.51,4.89-1.64,6Z" transform="translate(-560.44 -220.47)"/><path class="cls-8" d="M797,277c4.57,4.3,10.39,6.24,16.59,6.49L811,277.24a9.48,9.48,0,0,0-2.61,6.88,22.59,22.59,0,0,0,1.11,5.13,54.06,54.06,0,0,1,.72,5.82,7.34,7.34,0,0,0,3.9,5.82,32.65,32.65,0,0,1,8.56,7.37c3,3.68,9.35-1.17,6.62-5.11-3-4.26-6.57-6.86-11-9.38-.56-.32-.36,1.75.11-.38a9.4,9.4,0,0,0-.49-3.67c-.36-1.41-2.92-5.79-1.72-7.29,1.88-2.34.85-6.3-2.59-6.26-4.87.06-8.76-1.48-12.84-4-3-1.85-6.32,2.44-3.75,4.86Z" transform="translate(-560.44 -220.47)"/><g class="cls-5"><path class="cls-7" d="M757,348.34a25,25,0,0,0,11.83-19.86h-8.1a11.14,11.14,0,0,1-4.09,9.59c-3.53,3.1,1.21,9.41,5.09,6.59a26.63,26.63,0,0,0,7.4-8.66c1.92-3.3,3.43-6.92,6.93-8.8l-6.52-2.65A12.45,12.45,0,0,1,768,332c-2.47,5.13,4.56,9.37,7.69,4.5,2.8-4.35,3.22-9.3,2.41-14.3-.48-2.91-4.25-3.92-6.52-2.65a21,21,0,0,0-7.71,8.17c-1.9,3.23-3.29,7.36-6.38,9.71l5.09,6.58a19,19,0,0,0,6.25-15.52c-.37-5.17-7.86-5.24-8.1,0a19.91,19.91,0,0,1-7.54,14.93c-2.76,2.25.84,6.85,3.81,4.93Z" transform="translate(-560.44 -220.47)"/></g><g class="cls-5"><path class="cls-7" d="M767.71,319.14c1.46-2.57.64-5.47.24-8.29A78.33,78.33,0,0,1,767,299.2l-4.2,4.2q-2.41-2.07-2.17.36a12.21,12.21,0,0,0-.14,2.49,28.58,28.58,0,0,0,.44,3.69c.42,2.61,1.81,6.05.64,8.58-2.38,5.13,5.06,9.67,7.69,4.5,2.87-5.66.87-10.25.07-16.1-.4-2.86.78-5.73-.48-8.46a5.88,5.88,0,0,0-6.05-3.45c-2.19.26-4.27,1.71-4.19,4.19a52.48,52.48,0,0,0,1.14,9.43,31.46,31.46,0,0,0,1.14,4.15c.29.79,2.23,3.6,2,4.34-.87,2.85,3.33,4.61,4.8,2Z" transform="translate(-560.44 -220.47)"/></g><g class="cls-5"><path class="cls-7" d="M756.67,294.69c2-6.68-1.7-12.81-6.12-17.6-3.65-3.95-9.06,1.78-5.8,5.8a6.26,6.26,0,0,0,7.31,1.91c2.58-1.05,4.65-4.85,1.87-7.07-6.19-4.94-13.14-5.79-20.39-2.64l5.51,7.13,4-4.65c2.92-3.4.17-8.75-4.45-7.63A52.5,52.5,0,0,0,726,274.78l5.61,7.28a14.06,14.06,0,0,0,3.7-8.49c.37-3.13-3.27-5.14-5.9-4.49a30,30,0,0,0-16.33,10.19c-3.77,4.64,2.21,11,6.7,6.69,2.23-2.14,5.18-4.22,5.49-7.52a5.52,5.52,0,0,0-4.11-6c-6.22-1.64-11.77,7.12-13.93,11.59-2.69,5.57,4.52,9.55,8.15,4.77a24.69,24.69,0,0,0,4.32-9.18,4.78,4.78,0,0,0-6.93-5.32c-5.76,2.84-7.48,8.39-10.87,13.35-4.1,6-11.35,6.2-12.17,14.62-.59,6,8.78,6,9.37,0,.17-1.71,4.86-3.43,6.14-4.42a21.09,21.09,0,0,0,4.44-4.93c2.43-3.6,3.72-8.46,7.85-10.48l-6.92-5.32a18,18,0,0,1-3.38,6.91l8.15,4.77c1-2.09,3.15-6.8,5.78-7.24l-3.64-.48.66.42-2.34-4.08,0,1,1.38-3.34a40.44,40.44,0,0,1-4.11,4.17l6.7,6.69a22.21,22.21,0,0,1,12.11-7.9l-5.9-4.49-.92,1.94c-3.37,3.89.83,9.9,5.61,7.27a42.32,42.32,0,0,1,10.31-4l-4.45-7.64-3.94,4.69c-3.41,4.05.76,9.25,5.5,7.13,3.69-1.65,7.48-.78,10.67,1.44v-7.3l1.75,0-5.8,5.8c2.85,2.71,7.07,5.82,6.41,10.28-.53,3.55,4.42,5.14,5.51,1.52Z" transform="translate(-560.44 -220.47)"/></g><g class="cls-5"><path class="cls-7" d="M689.75,329.53a40.88,40.88,0,0,1,1-6.68c1.22-4.33-5.49-6.17-6.72-1.86l-2,6.92c-1.21,4.22,4.66,6.52,6.94,2.93a12,12,0,0,0,1.76-4.38c.82-4.37-4.88-7.2-7.37-3.11-4.4,7.22-5,21.5,3.32,26.6,3.12,1.91,7.61,1.15,9.12-2.5,1.61-3.9-1.57-7.59-5.47-7.59a4.44,4.44,0,0,0-4.25,5.57c1.69,6.21,3.27,12.47,5.3,18.57,1.74,5.2,9.43,3.11,8.23-2.27-1.4-6.27-3.27-12.46-5-18.64l-4.25,5.58h.8l-3.11-1.29.6.63-1.28-3.11.05.87,1.29-3.11,1.75-1.47-.81-1.82c-.14-1.41-.74-2.76-.82-4.22a17.43,17.43,0,0,1,1.53-7.72l-7.52-2-.4,1.62,6.94,2.93,1.37-7.08h-6.72a41.73,41.73,0,0,1,1,6.68,2.35,2.35,0,0,0,4.69,0Z" transform="translate(-560.44 -220.47)"/></g><g class="cls-5"><path class="cls-7" d="M696.48,395.23c-2.21,6.4-4.93,12.49-7.74,18.64l7.6,2.06a43.91,43.91,0,0,1,5.36-16.48c2.63-4.74-4.52-8.94-7.27-4.25-5.46,9.31-10.61,18.81-15.26,28.56-2,4.17,3.52,9.47,6.92,5.33a152.79,152.79,0,0,0,11.57-16l-7.57-4.42L677.58,433.4a4.39,4.39,0,0,0,6,6c5.75-2.75,9.14-9.42,12.74-14.39l13.42-18.54-7.46-4.35q-8.32,16.26-16.7,32.5c-2.13,4.15,3.42,9.16,6.8,5.25,7.58-8.77,13.49-18.65,19.26-28.66,2.81-4.88-4.46-9.05-7.51-4.39q-9.26,14.18-17.17,29.14c-2.66,5,4.32,8.95,7.53,4.41l23.81-33.7-8.16-2.21c.16,5.93-3.12,10.79-5.94,15.77s-4.94,9.74-5.55,15.39c-.53,4.9,5.91,5.19,8.19,2.22a120,120,0,0,0,16.43-29.18c1.84-4.64-5.8-7.82-8.05-3.4l-10.81,21.17c-2.6,5.1,4.37,9.07,7.61,4.45l9.56-13.61-7.61-4.45a50.49,50.49,0,0,1-22.92,25l6.47,2.64c-1.11-3.26,1.26-6.84,0-10.33a8.09,8.09,0,0,0-7.36-5.23c-9.32-.25-10.81,9.17-11.78,16.23-.61,4.45,5.86,8.52,8.14,3.44,2.8-6.25,4.87-16.72-.84-22.11-6.23-5.89-13.45,2.46-16.65,7.54l7.69,4.49a63.33,63.33,0,0,1,6.87-12.09c2.4-3.33-1.55-7.34-5-6.52-19.45,4.62-6,41.32,13,33.6,2.77-1.12,4.51-4.77,1.89-7.15-3.62-3.29-8.55-6.39-13.38-3.44-4.2,2.56-5.11,8.2-1.35,11.56,2.49,2.24,6.19,3.61,9.13,5.12,2.31,1.19,4.56,2.39,7.2,2.63,4.53.4,9.17-2.51,8.42-7.61-1.51-10.32-20.77-7.17-18.06,3.52,3.79,15,25.34-.22,31.51-4.78l-5.25-6.8-6.43,5.75,6.81,5.25,8.26-11.31c2.91-4-3.58-9-6.84-5.28a21.76,21.76,0,0,0-5.52,12.54c-.39,3.18,4,5.6,6.57,3.77A117.54,117.54,0,0,0,733,436.79L726,431.46a39.35,39.35,0,0,1-7.09,10.63c-3.93,4.18,2,10,6.25,6.25a160.55,160.55,0,0,0,19.39-20L737.13,424a28.11,28.11,0,0,1-7.79,13.1c-4.25,4.12,1.93,9.82,6.33,6.33a13.08,13.08,0,0,0,4.67-7.39c1.33-5.21-5.28-7.38-8.2-3.46l-2.9,3.89L737,441a20.78,20.78,0,0,0,2.85-11.95c-.25-4.17-4.62-5.59-7.69-3.19-1.13.89-5.89,4.8-7.48,2.65-.6-.81,1.25-6,1.15-7.36-.32-4.71-5.75-5.86-8.43-2.28,1.54-2,1.85-4.69,3-7a40.2,40.2,0,0,1,3.53-5.83,39.78,39.78,0,0,1,9.77-9.34l-6.85-3.94-.51.82,6.24,6.24,3.17-6.53c2.24-4.62-3.22-9.13-7.17-5.53a24.86,24.86,0,0,1-21,6.26c-3.69-.64-7.48,3.06-5.18,6.74,3.18,5.09,11.14,3.16,11-3.09,0-3-2.06-5.23-4.63-6.54-1.59-.81-8.59-1.09-9.12-2.65-1.52-4.45-7.24-4.23-8.84,0q-6.42,17-12.9,34c-1.74,4.56,4.52,7.18,7.6,4.42,4.94-4.42,9.8-8.93,14.71-13.37,4.51-4.08,9.08-8.51,14.58-11.23,4.89-2.43,10.49-3,15.15-6,3.8-2.42,7.38-7.43,12.21-7.3,5.67.16,5.67-8.68,0-8.81s-9.48,3-13.62,6.29c-5.08,4.09-10.84,5-16.63,7.65-5.58,2.56-10.21,6.67-14.76,10.69-6,5.28-12.08,10.39-18.07,15.64l7.6,4.43q6.51-17,13-34h-8.84a10.13,10.13,0,0,0,5.52,6.3,16,16,0,0,0,4.17,1.24c.93.13,1.85.27,2.77.45,2,1.06,2.32.3,1.13-2.28l2.74-2.11.81.15,2.74,2.11-.4-.65-5.18,6.74A34.62,34.62,0,0,0,735,394.25l-7.17-5.54-3.16,6.54c-1.78,3.67,2.2,9.18,6.24,6.24a11.11,11.11,0,0,0,5-8.7c.37-3.37-4.17-5.77-6.86-3.93-8.58,5.87-17,15-19.28,25.53-1,4.67.34,9.74,4.87,11.92,4.06,1.94,8,.59,10.54-2.85l-8.44-2.28c.24,3.41-2,6.37-.9,9.88a10.06,10.06,0,0,0,5.33,5.84c6.33,3.14,12.41-.79,17.32-4.64l-7.68-3.18a12.15,12.15,0,0,1-1.61,7.41c-2.91,5.16,4.39,9.08,7.76,4.54l2.89-3.9-8.2-3.46a5.48,5.48,0,0,1-2.35,3.45l6.33,6.33a37.08,37.08,0,0,0,10.06-17.06c1.1-4-4.54-7.93-7.45-4.33a160.56,160.56,0,0,1-19.34,20l6.25,6.25a46.73,46.73,0,0,0,8.44-12.44c2-4.21-3.32-9.33-6.91-5.33a106.82,106.82,0,0,1-16.62,15.11l6.57,3.78a11.5,11.5,0,0,1,3-6.38l-6.84-5.28-8.23,11.33c-3,4.17,3.33,8.38,6.81,5.26l6.42-5.76c3.59-3.22-1.26-9.75-5.24-6.79a88.93,88.93,0,0,1-9,5.92c-1.54.89-3.13,1.76-4.74,2.51a14.45,14.45,0,0,1-2.72,1.16,2.61,2.61,0,0,0-2,1.36h1.12q2.64-3.27-.26-3.1c-1-1-3.44-1.65-4.65-2.3s-3.16-2.36-4.32-2.33q-1.6-1.38-1.09,1.31a12.78,12.78,0,0,1,2.47,2l1.89-7.15c-9.48,3.76-15.4-15.2-8.41-16.79l-5-6.52A60.19,60.19,0,0,0,669,430c-2.21,5.14,4.55,9.47,7.69,4.49.8-1.26,2.06-2.35,2.8-3.59l1-1c-.86-.59-1-.36-.56.66.31,3.38.25,6.29-1.18,9.48l8.14,3.43c.33-2.17.41-4.46.92-6.6a19.32,19.32,0,0,1,1.08-2.65c.24.37-.52,3.28-.55,3.8a11.45,11.45,0,0,0,.64,4.75,4.48,4.48,0,0,0,6.47,2.63,58,58,0,0,0,26.08-28.18c2.23-5.16-4.29-9.17-7.61-4.45l-9.56,13.61,7.61,4.45,10.81-21.17-8-3.4a113.39,113.39,0,0,1-15.53,27.09l8.19,2.22c1.23-11.36,11.79-19.12,11.46-31.16-.12-4.55-5.71-5.68-8.16-2.21l-23.78,33.71,7.53,4.41q7.9-15,17.15-29.16l-7.51-4.39c-5.38,9.36-10.8,18.72-17.87,26.93L693,439q8.34-16.26,16.68-32.52c2.58-5-4.22-8.8-7.46-4.35L691,417.5c-3.23,4.44-6.84,11.93-11.89,14.34l6,6,12.56-24.72c2.55-5-4.55-9.23-7.57-4.42a137.07,137.07,0,0,1-10.23,14.21l6.92,5.33c4.67-9.75,9.58-19.35,14.92-28.75l-7.27-4.25a54.35,54.35,0,0,0-6.25,20.73c-.39,3.95,6,5.7,7.61,2.06a144.54,144.54,0,0,0,7.29-20.94c1.18-4.29-5.17-5.95-6.6-1.82Z" transform="translate(-560.44 -220.47)"/></g><g class="cls-5"><path class="cls-9" d="M709.82,328.18l1.35-1.68-4.3-2.51a20.85,20.85,0,0,1-4,6.32l5,3.88c1-1.5,1.93-3,2.81-4.59l-6.26-3.66c-2.42,4.63-5.63,9.43-7.12,14.48s1.22,9.41.74,14.29c-.51,5.2,7.7,5.21,8.16,0,.35-4-2.09-8.28-1.17-12.16,1-4.37,3.85-8.85,5.65-12.95s-4.27-7.92-6.26-3.66c-.89,1.91-1.7,3.8-2.4,5.78-1.26,3.59,3.92,5.32,5.85,2.47a27.3,27.3,0,0,0,3.92-8.82,2.58,2.58,0,0,0-5-1.38c-.22.7-.43,1.4-.65,2.09-.61,2,2.23,3.81,3.6,2.1Z" transform="translate(-560.44 -220.47)"/></g><g class="cls-5"><path class="cls-9" d="M709.82,288a9.52,9.52,0,0,0-2.63-6.79,3.11,3.11,0,0,0-4.34,0c-3.69,3.41-6.46,8.33-8.79,12.72-2.14,4.07,3.4,7.08,6,3.53s5.09-6.86,7.59-10.33-3-7.58-5.77-4.46a116.52,116.52,0,0,0-10.06,13.16l6.48,3.79c1.9-3,3.79-6,5.7-9,1.29-2,2.87-5.21,5.65-4.92,4.22.44,5.25-6.87,1-7.46-9.92-1.37-14.55,10.68-18.84,17.61-2.55,4.13,3.88,7.84,6.48,3.79a101.43,101.43,0,0,1,8.78-11.75l-5.78-4.46c-2.46,3.49-4.87,7-7.28,10.52l6,3.53c2.15-4.47,5.07-8.29,7.57-12.53l-4.2,1.11a1.81,1.81,0,0,1,.92,2c.05,3.51,5.3,3.49,5.43,0Z" transform="translate(-560.44 -220.47)"/></g><g class="cls-5"><path class="cls-9" d="M708,323.79a51.15,51.15,0,0,1-6.55-.64c-2.11-.41-4.1-1.28-6.23-1.57-1.9-.26-3.68.3-4.48,2.2-.66,1.56-.19,4,1.55,4.74,5,2.12,11.34,1.55,16.28-.5,2.18-.9,2-4.08-.57-4.23Z" transform="translate(-560.44 -220.47)"/></g><g class="cls-5"><path class="cls-9" d="M700.23,361.39a14.11,14.11,0,0,1-1.94-2.77c-1.25-3.28-6.79-3.15-6.58.89a38.42,38.42,0,0,0,7,19.52c2.81,4,9.48.19,6.64-3.88a46.53,46.53,0,0,1-7-16.53l-4.92,3.78a12.72,12.72,0,0,1,2.73,2.17c2.08,1.88,6-.65,4.13-3.18Z" transform="translate(-560.44 -220.47)"/></g><g class="cls-5"><path class="cls-9" d="M764.28,342.74a3,3,0,0,1-1.1.72c-3.19,1.36-.45,6.19,2.75,4.7a7.31,7.31,0,0,1,4.1-.63l-1.66-6.14c-2.38,1.32-5.47.76-8,1.9a8.1,8.1,0,0,0-4.88,7c-.22,2.22,2,4.12,4.12,4.12a4.2,4.2,0,0,0,4.13-4.12c0,.6-.61.52-.1.37-.13,0,.59-.46.48-.39a7.4,7.4,0,0,1,2.37-.9,15.74,15.74,0,0,0,5.87-2.78c2.25-1.77.38-5.8-2.33-5.64a11.84,11.84,0,0,0-7.41,2.95l4.56,2.65a3.4,3.4,0,0,1,.49-1.18,2.17,2.17,0,0,0-3.39-2.61Z" transform="translate(-560.44 -220.47)"/></g><g class="cls-5"><path class="cls-9" d="M717.78,280.8l-.21-1.41c1.88-2.94-2.51-6.4-4.88-3.76a57.35,57.35,0,0,0-10.51,17.56c-1.45,3.64,3.75,6,6.21,3.62a64.63,64.63,0,0,0,8.69-10.27l-6.79-4a30.56,30.56,0,0,1-12.72,14.35l3.95,6.77c8.23-6.22,13.18-17.95,23.24-21.42,4.62-1.6,2.76-8.8-2-7.42-11.69,3.37-16.05,15.23-25.14,22.07-3.92,2.95-.53,9.38,3.95,6.77a37.66,37.66,0,0,0,15.56-17.15c2.06-4.58-3.9-8.22-6.79-4a69.46,69.46,0,0,1-7.16,9l6.22,3.62a72,72,0,0,1,8.22-15.78l-5.68-.74a20.9,20.9,0,0,0,1.52,4c1.3,2.28,5.4.73,4.37-1.84Z" transform="translate(-560.44 -220.47)"/></g><g class="cls-5"><path class="cls-9" d="M703.59,307.25c-2.35-1.08-4.45-.57-7-.25s-4.95.68-7.43,1.07c-2.07.33-3.23,2.92-2.71,4.79a4,4,0,0,0,4.78,2.71c2.28-.42,4.54-.88,6.8-1.38s4.41-.71,6.1-2.37c1.23-1.21,1.14-3.78-.59-4.57Z" transform="translate(-560.44 -220.47)"/></g><path d="M742.48,241l9.68-4.06-1.85-1c1.49,6.83,9.07,8.75,15,9.82,3.29.6,7.05,1.19,9.54,3.63,1.9,1.88,3.28,4.85,1.76,7.35a1.52,1.52,0,0,0,1.69,2.21L790.92,257c.62-.1,2.19-.58,2.75-.17s.44,1.06.44,1.56c0,1.67-.28,3.31-.2,5,.15,3.33,1.17,6.74,3.92,8.82a7.36,7.36,0,0,0,8.3.74l-2.2-.9c.68,3.55,4.37,10,8.78,6.9l-2.06-.54a12.13,12.13,0,0,1,1.65,11.8,1.5,1.5,0,0,0,1.05,1.84c2.42.42,5.65.82,7.26,2.92,1,1.34,1.26,3.77-.45,4.64-1.26.64-.73,3,.76,2.79s7.25-.48,6.8,2.42c-.22,1.42-2.17,2-3.38,1.78-2.12-.34-3.78-2.21-5.19-3.67a1.54,1.54,0,0,0-2.12,0,10,10,0,0,0-2.66,11,9.87,9.87,0,0,0,9.41,6,9.36,9.36,0,0,0,1.4-.15,3.31,3.31,0,0,0,.83-.17c.34-.16.33.07.08-.16-.09-.09.1-.12,0,.15a6.89,6.89,0,0,1-.15.89c-.56,1.63-2.15,2.08-3.55,2.8-1.58.83-3.21,2-3.68,3.79-.64,2.48,1,5.25,1.93,7.49l7.13,18.09,1.84-1.84a12.05,12.05,0,0,0-8,.7,1.51,1.51,0,0,0-.3,2.36,22.42,22.42,0,0,1,7.89,18.45l3-.4a12.08,12.08,0,0,0-7.85-7.24,1.51,1.51,0,0,0-1.46,2.51c3,3.57,6.78,8,6.46,13-.22,3.42-4,8.15-7.8,6.44a1.51,1.51,0,0,0-2,2,18.88,18.88,0,0,1,1.9,6.65c.12,1.76-.07,3.85-1.66,4.95a7.86,7.86,0,0,1-3.4.94,7.74,7.74,0,0,0-3.86,1.41,5.92,5.92,0,0,0-2.06,5.27c.15,2.21.87,4.32,1.23,6.49a8.69,8.69,0,0,1,.1,2.74,6.31,6.31,0,0,1-1.71,3,10,10,0,0,0-2,3,8.2,8.2,0,0,0-.14,4.63c.58,2.7,1.86,5.18,1.18,8-.58,2.36-2.31,4.78-4.93,4.92-2.11.12-4.74-1.22-5-3.53l-1.9,1.45c.73.23.64,1.29.42,1.87a1.77,1.77,0,0,1-2.51.84c-3.62-1.44-2.93-6.29-2.54-9.32a1.51,1.51,0,0,0-2.25-1.3A26.82,26.82,0,0,0,779.05,450l.44-1.06a5.51,5.51,0,0,1-7.3-.13,1.52,1.52,0,0,0-2.56,1.06c.31,4.56.75,10.5-3.53,13.47-2.07,1.44-4,1.11-6.21.15a14.94,14.94,0,0,0-2.95-1.09,11.86,11.86,0,0,0-3.76.06c-1.94.21-3.24-.35-3.6-2.36a7,7,0,0,1,.86-4.53c2-3.51,6.24-6.6,6-11.06-.17-3.76-4.48-8.65-8.34-5.75l2.05,2.05a26.42,26.42,0,0,0,2.54-18.67L750,423.32a4,4,0,0,0,5.68,1.74,4,4,0,0,0,.7-6,1.51,1.51,0,0,0-1.82-.23,71.75,71.75,0,0,0-13.68,10.8l2.5,1.46,9.9-24.93-2.74.36,2.44,4.69a1.51,1.51,0,0,0,2,.54c5.52-3.45,3-13-3.41-13.47l1.3,2.26c3.62-5.08,4.74-11.33,4.85-17.45.13-6.87-.7-13.77-1.22-20.6-.11-1.4-2-2.15-2.8-.76a37.3,37.3,0,0,0-1.47,32.55c.76,1.77,3.35.24,2.59-1.51a34.07,34.07,0,0,1,1.47-29.52l-2.79-.76c.5,6.57,1.27,13.19,1.23,19.78,0,5.9-.95,11.85-4.45,16.76-.72,1,.27,2.18,1.29,2.25,3.47.25,4.8,6.07,1.9,7.88l2,.54-2.44-4.7c-.66-1.26-2.3-.74-2.74.36l-9.9,24.93c-.57,1.45,1.52,2.46,2.51,1.46a68,68,0,0,1,13.08-10.33l-1.82-.24c.84,1.05-1,2.15-1.67.59s-3.11-.42-2.74,1.16a23.18,23.18,0,0,1-2.24,16.35c-.66,1.21.77,3,2,2.06s2.82.4,3.43,1.71c.92,2-.07,3.88-1.21,5.54-2.36,3.47-5.6,6.34-5.35,10.9a6.62,6.62,0,0,0,2.05,4.78c1.9,1.64,4.06,1.12,6.34,1,2.45-.16,4.45,1.6,6.8,2a8.17,8.17,0,0,0,6.35-1.68c4.94-3.73,5-10.11,4.57-15.73L770.07,451a8.54,8.54,0,0,0,7.31,2.2,8,8,0,0,0,3.56-1.52,2.34,2.34,0,0,0,1.11-1.61c.12-.75.19-1.51.35-2.26a23.61,23.61,0,0,1,9.5-14.42l-2.26-1.29c-.38,3-.71,6.28.88,9a6.72,6.72,0,0,0,6.21,3.49c4.35-.48,5.88-7.34,1.33-8.76a1.5,1.5,0,0,0-1.89,1.44c.57,5.5,7.3,8.28,11.82,5.29a10,10,0,0,0,4.17-6.87,11.6,11.6,0,0,0-.07-3.81c-.34-1.83-1.17-3.56-1.41-5.41-.42-3.26,2.81-4.8,3.76-7.63.79-2.36.21-4.95-.33-7.29-.39-1.73-1.42-4.48-.19-6.08.74-1,2.11-1.11,3.23-1.27a9.67,9.67,0,0,0,4.35-1.4c5-3.5,2.7-11.08.6-15.55l-2.05,2.06c5.34,2.38,10.86-2.05,12.06-7.29,1.47-6.43-3.22-12.33-7.09-16.89l-1.46,2.51a8.85,8.85,0,0,1,5.75,5.14,1.51,1.51,0,0,0,3-.4,25.26,25.26,0,0,0-8.77-20.57l-.3,2.36a8.67,8.67,0,0,1,5.66-.41c1,.26,2.29-.73,1.85-1.84l-6-15.31a80.44,80.44,0,0,1-2.93-7.54c-.53-1.94,1.33-2.7,2.79-3.43a7.83,7.83,0,0,0,3.81-3.06,4.88,4.88,0,0,0,.4-4.49,3,3,0,0,0-1.63-1.4c-.94-.34-1.64.07-2.56.23a7.23,7.23,0,0,1-5.25-1.3c-3.52-2.53-3.26-7.79-.15-10.51H817c2,2.11,4.43,4.38,7.54,4.57,2.43.15,5.23-1.28,6-3.73,1.7-5.63-5.72-7-9.61-6.5l.76,2.8c2.94-1.5,3.31-5.35,1.93-8.06-1.75-3.45-6-4.39-9.46-5l1,1.84a14.79,14.79,0,0,0-2-14.1,1.53,1.53,0,0,0-2-.54c-2.31,1.64-4.08-3.58-4.37-5.1a1.51,1.51,0,0,0-2.2-.9c-2.58,1.61-5.67-.41-6.81-2.84a11.83,11.83,0,0,1-.92-5c0-1.59.34-3.21.19-4.81a4.31,4.31,0,0,0-1.86-3.48c-1.55-.93-3.43-.41-5.1-.16L777.47,256l1.7,2.21a8.27,8.27,0,0,0-.31-8.54,13.47,13.47,0,0,0-8.13-5.82c-5.64-1.68-15.91-1.34-17.52-8.76a1.51,1.51,0,0,0-1.85-1l-9.68,4.07a1.56,1.56,0,0,0-1,1.84,1.51,1.51,0,0,0,1.85,1Z" transform="translate(-560.44 -220.47)"/><path class="cls-12" d="M708.39,313.31c-4.12,1.32-8.35-.51-12.48-.91-3.45-.34-7.26.22-9.68,2.93-1.28,1.44.83,3.56,2.12,2.12,2.16-2.41,5.73-2.4,8.69-1.9,4,.67,8.1,1.95,12.15.65,1.83-.59,1-3.49-.8-2.89Z" transform="translate(-560.44 -220.47)"/><path d="M718,316.49l-5.93-2.39c-1.18-.47-2,.86-1.85,1.85a44,44,0,0,1-2.81,24c-.74,1.79,2.16,2.56,2.89.8a46.9,46.9,0,0,0,2.82-25.58L711.29,317l5.93,2.38c1.79.72,2.57-2.18.8-2.89Z" transform="translate(-560.44 -220.47)"/><path d="M701.18,360.11c4.49-2.23,9.26-.9,14-.3a61.78,61.78,0,0,0,15,.09l-.76-2.8c-7.16,4.51-16.55,4.82-24.41,2.16a1.52,1.52,0,0,0-1.7,2.2c3,4.34,6.55,8.46,12.31,8.17s10.32-4.28,14.35-8.14c1.39-1.34-.73-3.46-2.12-2.12-3.31,3.17-7,6.78-11.81,7.23s-7.66-3.05-10.14-6.65l-1.69,2.2c8.58,2.9,18.93,2.45,26.72-2.45,1.15-.73.82-3-.75-2.8a61.09,61.09,0,0,1-16-.23,47.39,47.39,0,0,0-7.41-.86,15.92,15.92,0,0,0-7,1.71c-1.72.86-.21,3.45,1.52,2.59Z" transform="translate(-560.44 -220.47)"/><g class="cls-5"><path class="cls-9" d="M730.68,317.72c2.86.84,6,.09,8.92.29a25.08,25.08,0,0,1,10,2.75c4.46,2.27,8.4-4.45,3.93-6.71-6.09-3.09-18.67-6.16-23.77.3a2,2,0,0,0,.89,3.37Z" transform="translate(-560.44 -220.47)"/></g><path class="cls-12" d="M732.69,322.08A20.86,20.86,0,0,1,744.52,319c4.4.2,8.52,2,12.36,4,1.7.9,3.22-1.69,1.51-2.59-4.32-2.3-8.92-4.21-13.87-4.44a23.63,23.63,0,0,0-13.34,3.48c-1.65,1-.14,3.6,1.51,2.59Z" transform="translate(-560.44 -220.47)"/><path d="M707.35,310.14l1.45,1.11,1.15-2.74c-4.6-1.29-9.2-2.74-13.86-3.85-3.72-.88-8-1.29-11.23,1.12-1.54,1.13-.05,3.74,1.51,2.59,3-2.18,6.74-1.41,10-.54,4.27,1.13,8.51,2.38,12.76,3.57,1.76.49,2.42-1.77,1.15-2.74l-1.45-1.11c-1.53-1.17-3,1.43-1.51,2.59Z" transform="translate(-560.44 -220.47)"/><path class="cls-3" d="M723.54,312.56l-6.06-6.39a11.74,11.74,0,0,1-2.13-2.54,2.65,2.65,0,0,1-.35-1c0-.25-.12-.09.13-.22l-2.2-.9,2.23,9.92c.55,2.48.74,6.06,3.58,7a1.52,1.52,0,0,0,1.69-2.21,23.82,23.82,0,0,1-3.3-17.22c.37-1.89-2.52-2.7-2.89-.8a26.89,26.89,0,0,0,3.6,19.54l1.69-2.21c-.6-.2-.73-1.57-.85-2.07-.32-1.42-.63-2.83-.95-4.25l-1.91-8.51a1.51,1.51,0,0,0-2.2-.89c-2.79,1.44-1.39,5,.16,6.8,2.39,2.81,5.1,5.39,7.64,8.07,1.34,1.4,3.45-.72,2.12-2.12Z" transform="translate(-560.44 -220.47)"/><path class="cls-3" d="M718,307.53a24.35,24.35,0,0,0-10.64-8.47,1.48,1.48,0,0,0-1.58.54,1.52,1.52,0,0,0-.12,1.66,33.61,33.61,0,0,0,8.12,10.05,1.54,1.54,0,0,0,2.12,0,1.51,1.51,0,0,0,0-2.12,30.75,30.75,0,0,1-7.65-9.44l-1.69,2.2c-.19-.07.11.05.14.07l.36.16.7.34c.44.22.88.46,1.3.71s.84.52,1.25.8c.21.14.43.29.64.45,0,0,.31.24.22.16l.21.18a21.72,21.72,0,0,1,2.19,2c.36.38.7.77,1,1.17l.2.24.17.21.44.61a1.53,1.53,0,0,0,2.05.53,1.5,1.5,0,0,0,.54-2.05Z" transform="translate(-560.44 -220.47)"/><path class="cls-3" d="M719,310a65.18,65.18,0,0,1,5.71-9.93l-2.59-1.52-5.48,10.79a1.5,1.5,0,0,0,2.59,1.51l7.06-9.15c1-1.34-1.22-3.06-2.35-1.81a10.59,10.59,0,0,0-2.8,8.23,1.51,1.51,0,0,0,2.25,1.29,26.54,26.54,0,0,0,9.8-10.6,1.51,1.51,0,0,0-2.36-1.82,37,37,0,0,0-6.08,6.73c-.92,1.31.83,2.69,2.06,2.05a26.73,26.73,0,0,0,7.77-6.13,1.51,1.51,0,0,0-1.46-2.51,30.77,30.77,0,0,0-13.21,6.78c-1.78,1.55-3.51,3.52-4,5.9a5.24,5.24,0,0,0,2.11,5.49c3.75,2.49,8.28,0,9.8-3.8,1.93-4.8-.29-9.89-.76-14.74s-.51-10.27-4.16-14.06a1.51,1.51,0,0,0-2.51,1.46,29.68,29.68,0,0,1,1.25,14.54c-.32,1.89,2.57,2.7,2.89.8a32.76,32.76,0,0,0-1.24-16.14l-2.51,1.46c2.43,2.53,2.79,6.17,3.07,9.5.16,1.84.3,3.68.6,5.5.36,2.14,1,4.25,1.13,6.42.19,2.86-.85,7.4-4.6,7a2.25,2.25,0,0,1-2.18-2.63c.29-1.88,1.89-3.4,3.25-4.58a27.46,27.46,0,0,1,11.88-6l-1.46-2.51a24.48,24.48,0,0,1-7.17,5.66l2,2.05a34.28,34.28,0,0,1,5.61-6.12l-2.35-1.81a23.67,23.67,0,0,1-8.72,9.52l2.26,1.3A7.7,7.7,0,0,1,726,302l-2.36-1.82-7.06,9.15,2.59,1.51L724.66,300a1.5,1.5,0,0,0-2.59-1.52,65.77,65.77,0,0,0-5.71,9.94c-.8,1.74,1.78,3.26,2.59,1.51Z" transform="translate(-560.44 -220.47)"/><path class="cls-3" d="M727.71,289.84a13,13,0,0,0,3.49-8.23,1.49,1.49,0,0,0-1.3-1.47,1.51,1.51,0,0,0-1.65,1.07,100.63,100.63,0,0,0-4.44,16.09,1.53,1.53,0,0,0,1,1.84,1.52,1.52,0,0,0,1.85-1.05A101.87,101.87,0,0,1,731.14,282l-2.94-.4a9.81,9.81,0,0,1-2.61,6.11c-1.32,1.41.8,3.54,2.12,2.12Z" transform="translate(-560.44 -220.47)"/><path class="cls-3" d="M723.77,289.68l3.4-6.53-2.79-.75a5.53,5.53,0,0,1-3.71,5.44l1.46,2.51a23.91,23.91,0,0,0,3.62-5.8,1.5,1.5,0,0,0-2.35-1.82A21.15,21.15,0,0,0,716.91,295a1.54,1.54,0,0,0,1.05,1.84,1.5,1.5,0,0,0,1.84-1,18.57,18.57,0,0,1,5.72-11L723.16,283a21.55,21.55,0,0,1-3.15,5.2,1.56,1.56,0,0,0-.23,1.82,1.52,1.52,0,0,0,1.69.69,8.57,8.57,0,0,0,5.91-8.34c-.06-1.41-2.08-2.15-2.8-.76l-3.4,6.53c-.89,1.71,1.7,3.23,2.59,1.51Z" transform="translate(-560.44 -220.47)"/><path class="cls-3" d="M730.5,326c.09.22-.12-.3-.13-.35s-.11-.28-.16-.43q-.16-.51-.3-1c-.08-.3-.15-.59-.2-.89s-.08-.4-.11-.61,0,.15,0-.2a16.41,16.41,0,0,1-.1-2c0-.36,0-.71,0-1.07,0-.15,0-.3.05-.45s0-.2,0-.06c0-.1,0-.2,0-.3l-2.94-.4,0,6.84a1.5,1.5,0,1,0,3,0l0-6.84a1.51,1.51,0,0,0-2.95-.4,17.35,17.35,0,0,0,1.18,9.68,1.5,1.5,0,0,0,2.05.54,1.56,1.56,0,0,0,.54-2.06Z" transform="translate(-560.44 -220.47)"/><path class="cls-3" d="M701.44,400.24l-2.17-5.45a1.51,1.51,0,0,0-2.5-.66A22.56,22.56,0,0,0,691,404.46a1.5,1.5,0,0,0,2.74,1.15A49.75,49.75,0,0,0,700,390a1.51,1.51,0,0,0-2.74-1.15,63.11,63.11,0,0,0-6.59,16.39c-.4,1.6,1.94,2.72,2.74,1.16l6.8-13.27a1.5,1.5,0,0,0-2.59-1.52A102.74,102.74,0,0,0,687.32,415c-.56,1.86,2.3,2.63,2.89.8L695.32,400c.55-1.69-1.82-2.51-2.74-1.16a259.63,259.63,0,0,0-13.64,22.63,1.5,1.5,0,0,0,2.35,1.81,41.36,41.36,0,0,0,12.46-20c.44-1.58-2-2.76-2.74-1.16a166.15,166.15,0,0,1-12,22.71c-1,1.67,1.48,3,2.59,1.52a67.53,67.53,0,0,0,9.51-18.49c.46-1.37-1.54-2.61-2.5-1.46A105.83,105.83,0,0,0,674,429.65c-.66,1.43,1.14,3.19,2.35,1.82A123.1,123.1,0,0,0,693,407.56L690.38,406a63.79,63.79,0,0,1-12.75,16.72l2.36,1.82,10.18-13.81-2.59-1.52-8.24,17.28a1.51,1.51,0,0,0,2.36,1.82,52.81,52.81,0,0,0,14.5-25.85c.36-1.58-2-2.76-2.74-1.16A119.17,119.17,0,0,0,684.62,427c-.35,1.57,2,2.77,2.74,1.16q6.74-14,12.59-28.41c.64-1.58-2-2.66-2.74-1.16a107.34,107.34,0,0,0-9.59,26.8,1.51,1.51,0,0,0,2.74,1.16,170.57,170.57,0,0,0,15.18-24A1.5,1.5,0,0,0,703,401a126.37,126.37,0,0,0-12.16,21,1.5,1.5,0,0,0,2.59,1.52,187.58,187.58,0,0,0,12.32-22.24,1.5,1.5,0,0,0-2.59-1.52c-7.67,10.28-13.38,21.79-19,33.25l2.75,1.16,3.65-13.8a1.51,1.51,0,0,0-2.74-1.16,61.78,61.78,0,0,0-8.92,25.17c-.19,1.53,2.11,2,2.79.76A15,15,0,0,0,683,433.56a1.51,1.51,0,0,0-2.89,0c-1,3.95-1.87,9-.19,12.89,1.42,3.31,5.34,4.53,7.78,1.45a14.09,14.09,0,0,0,2.15-5.16c.69-2.49,1.35-5,2-7.51q1.84-7.31,3.36-14.68c.39-1.88-2.37-2.68-2.89-.8a118.55,118.55,0,0,0-2.87,13.44c-.49,3.31-1.82,7.95,1.37,10.3a1.5,1.5,0,0,0,2.05-.54,157,157,0,0,0,10.48-29.54c.39-1.58-2-2.75-2.74-1.15a84.29,84.29,0,0,0-8,31.45c-.09,1.62,2,1.85,2.8.75,6.71-9.2,9.69-20.38,12.5-31.25a1.5,1.5,0,0,0-2.89-.8l-7.91,25.64a1.5,1.5,0,0,0,2.74,1.15l8.65-16.07a1.5,1.5,0,0,0-2.59-1.52,142.87,142.87,0,0,0-11.41,25.05c-.57,1.65,1.87,2.56,2.74,1.15a139.67,139.67,0,0,0,12.17-25.09l-2.89-.8a208.84,208.84,0,0,0-6,22.94,1.54,1.54,0,0,0,1,1.85c3.2,1,4.84-2.54,5.83-4.89,1.35-3.22,2.56-6.5,3.6-9.83a108.55,108.55,0,0,0,4.23-20.66c.19-1.77-2.43-1.91-2.95-.4a88.11,88.11,0,0,0-4.7,32.05,1.51,1.51,0,0,0,2.79.75c3-4.86,4.12-10.5,4.87-16.1.85-6.36,1.41-12.76,1.72-19.18.08-1.67-2.61-2.07-2.95-.4a110.19,110.19,0,0,0-1.69,33.21,1.5,1.5,0,0,0,3,0,195.39,195.39,0,0,0,1.27-33.94c-.09-1.61-2.57-2.12-2.95-.39a162.46,162.46,0,0,0-3.86,35.24c0,1.41,2.13,2.15,2.79.76a23.18,23.18,0,0,0,.84-18.15,1.52,1.52,0,0,0-1.84-1c-4.42,1.7-6.85,6.21-9.45,9.88l-9.63,13.58,2.59,1.51a313.9,313.9,0,0,1,16.93-28.39l-2.59-1.51c-3.38,7.78-7,16.2-14,21.47l2,2.05a145.1,145.1,0,0,0,16.16-41.91,1.5,1.5,0,0,0-2.9-.79l-3.12,7.7a1.51,1.51,0,0,0,1.85,1.84,6.79,6.79,0,0,0-4.07-12.94l1.84,1.84c2.46-6.18-3.56-12.94-9.87-12.06a1.5,1.5,0,0,0-1.1,1.45,4.71,4.71,0,0,0,2.79,4.15,1.52,1.52,0,0,0,2.25-1.3c.24-2,.21-4.22-1.15-5.83a4.41,4.41,0,0,0-4.73-1.43c-3.57,1.29-1.88,7.32,1.77,6.1,1.82-.61,1-3.51-.8-2.9,0,0,.16.36.06,0,0-.12-.12-.21-.09-.36a1.54,1.54,0,0,1,1,.15c1.41.77,1.08,3,.92,4.29l2.26-1.29a1.82,1.82,0,0,1-1.3-1.56l-1.1,1.45c4.3-.61,7.68,4.58,6.18,8.36-.45,1.13.84,2.09,1.85,1.85a3.8,3.8,0,0,1,2.47,7.16l1.85,1.85,3.12-7.71-2.9-.79A142.12,142.12,0,0,1,695,440.81c-.69,1.2.8,3,2.06,2.05,7.46-5.65,11.4-14.18,15-22.55a1.5,1.5,0,0,0-2.59-1.51,312.52,312.52,0,0,0-16.93,28.39,1.5,1.5,0,0,0,2.59,1.51l8.78-12.38c1.35-1.9,2.68-3.83,4.06-5.72a10.81,10.81,0,0,1,4.45-4l-1.85-1a20.22,20.22,0,0,1-.54,15.84l2.8.75a159,159,0,0,1,3.75-34.45l-2.94-.4a195.39,195.39,0,0,1-1.27,33.94h3A107.49,107.49,0,0,1,717,408.85l-3-.4c-.3,6.13-.82,12.25-1.61,18.34-.7,5.34-1.68,10.79-4.57,15.43l2.8.76a85.51,85.51,0,0,1,4.6-31.25l-3-.4A103.71,103.71,0,0,1,708.83,429q-1.22,4.26-2.79,8.39c-.53,1.4-1.09,2.8-1.69,4.17-.28.63-1,2.58-1.92,2.29l1.05,1.85a211.11,211.11,0,0,1,6-22.94c.6-1.86-2.24-2.58-2.89-.8a136.32,136.32,0,0,1-11.87,24.38l2.74,1.15a138.29,138.29,0,0,1,11.11-24.32l-2.59-1.52-8.65,16.08,2.74,1.16,7.91-25.64-2.89-.8c-2.75,10.64-5.63,21.53-12.2,30.54l2.79.76a80.53,80.53,0,0,1,7.54-29.94l-2.74-1.16a153.36,153.36,0,0,1-10.18,28.83l2.06-.54c-1-.71-.54-2.74-.42-3.72.21-1.86.49-3.72.81-5.57q1-5.6,2.48-11.06l-2.89-.8c-1.64,7.92-3.48,15.84-5.74,23.6-.31,1.06-.74,2.7-1.82,3.25s-1.87-.72-2.2-1.6a11.78,11.78,0,0,1-.47-4.46,27.47,27.47,0,0,1,.92-6.18H680.1a11.91,11.91,0,0,1-1.09,9.32l2.8.76a58.37,58.37,0,0,1,8.51-23.66l-2.75-1.15-3.65,13.8c-.42,1.6,2,2.72,2.74,1.16,5.66-11.46,11.38-23,19-33.25l-2.59-1.52a186.79,186.79,0,0,1-12.32,22.24l2.59,1.52a126.05,126.05,0,0,1,12.16-21L703,401a169.9,169.9,0,0,1-15.18,24l2.74,1.16a104.15,104.15,0,0,1,9.29-26.08L697.06,399q-5.71,14-12.29,27.69l2.74,1.16a116.06,116.06,0,0,1,8.54-25l-2.74-1.15a50,50,0,0,1-13.73,24.53l2.35,1.82,8.24-17.28a1.5,1.5,0,0,0-2.59-1.52L677.4,423.06c-1,1.42,1.16,2.94,2.36,1.82A66.4,66.4,0,0,0,693,407.56c.9-1.71-1.68-3.23-2.59-1.52a119.47,119.47,0,0,1-16.19,23.31l2.36,1.81a103.11,103.11,0,0,1,14.21-22.66l-2.51-1.45A65.09,65.09,0,0,1,679,424.81l2.59,1.52a167.33,167.33,0,0,0,12-22.71l-2.74-1.16a38.45,38.45,0,0,1-11.69,18.69l2.36,1.82a258,258,0,0,1,13.64-22.62l-2.74-1.16L687.32,415l2.89.8a98.89,98.89,0,0,1,10-22.75l-2.59-1.52-6.8,13.27,2.74,1.16a60.36,60.36,0,0,1,6.29-15.68l-2.74-1.15a47.46,47.46,0,0,1-6,14.93l2.74,1.15a19.54,19.54,0,0,1,5-9l-2.51-.66,2.17,5.45c.7,1.77,3.61,1,2.89-.8Z" transform="translate(-560.44 -220.47)"/><path d="M690.62,282.11c-.06,11.77-7.7,21.71-11.64,32.37a35.56,35.56,0,0,0-2,18.18c1.12,7.14,3.75,14.12,6.21,20.89s5.22,13.58,8.26,20.19c2.36,5.11,5.29,10.44,10.3,13.4,5.71,3.37,12.57,2.47,18.62.59a108,108,0,0,0,16.94-6.86c5.72-2.93,11.1-6.89,14.37-12.55,1.47-2.54,2.53-5.29,3.94-7.87,1.29-2.34,2.93-4.66,5.52-5.65,1.79-.68,1-3.58-.8-2.89-4.91,1.87-7.15,6.52-9.27,11a33,33,0,0,1-3.83,6.64,27.88,27.88,0,0,1-6.24,5.68,73.31,73.31,0,0,1-15,7.31c-5.74,2.23-12.31,4.91-18.58,3.6C701.53,384.9,698,380,695.38,375a186.64,186.64,0,0,1-7.93-18.59A176.61,176.61,0,0,1,680.74,336a33.23,33.23,0,0,1,.35-18.39c3.76-12,12.47-22.45,12.53-35.48a1.5,1.5,0,0,0-3,0Z" transform="translate(-560.44 -220.47)"/><path d="M667.49,433.92c.06,11.05,5.52,23.87,17,27.05,3.76,1,7.72.92,11.57.68,4-.25,8.06-.67,12.06-1.23a65.43,65.43,0,0,0,11.45-2.3,31.32,31.32,0,0,0,9.59-5.47c7.21-5.71,14.18-11.75,21.26-17.63,1.49-1.24-.65-3.35-2.12-2.12l-18.07,15a46.5,46.5,0,0,1-8.46,6.1,35.38,35.38,0,0,1-10.1,2.86q-5.58.94-11.22,1.45a70.55,70.55,0,0,1-11,.44,18,18,0,0,1-14.07-8,30.07,30.07,0,0,1-5-16.83,1.5,1.5,0,0,0-3,0Z" transform="translate(-560.44 -220.47)"/><path d="M815.45,379.51c-.79-3.56-3-6.5-4.85-9.56s-3.07-6.36-1.14-9.84c1.8-3.26,4.48-6.14,4.21-10.12a11.88,11.88,0,0,0-4.53-8.31c-2.92-2.35-6.85-3.46-10.44-2.07l1.46,2.51a21,21,0,0,0,5.08-8.67c.88-3,1.55-7.19-.08-10-1.49-2.59-4.84-3.3-7.54-2.37-3,1.06-4.92,3.88-6.39,6.59l2.8.75c-.2-5.92,0-12-1.25-17.84-1-4.83-3.26-9.53-7.73-12l-.36,2.74c4.08-1.08,6.48-6.15,4.36-9.92s-7.34-4.33-10.5-1.72l2.36,1.82c2.15-3.6,4.81-8.69,2.05-12.69-2-2.85-6.16-4.37-8.91-1.72a1.51,1.51,0,0,0,1.06,2.56c4.06,0,6.36-4.45,5.51-8.09-1-4.46-6.13-6.26-10.17-6.6l1.06,2.56a5.64,5.64,0,0,0-6.91-8.83,1.52,1.52,0,0,0-.31,2.36,3.07,3.07,0,0,0,4.58-.78,3.7,3.7,0,0,0-.93-5.09c-1.74-1.4-4.14-1.72-6.29-1.91a23.15,23.15,0,0,0-8,.71,1.5,1.5,0,0,0,.79,2.89,20.33,20.33,0,0,1,8.64-.41,6.09,6.09,0,0,1,3,1.08c.24.22.5.49.41.83-.14.54-.59.18-.11.56l-.3,2.35a2.65,2.65,0,0,1,3.28,4.12,1.52,1.52,0,0,0,1.06,2.56c2.59.22,6,1.19,7.11,3.85.74,1.8-.2,4.84-2.45,4.84l1.06,2.56c1.52-1.47,4,.33,4.65,1.87,1.26,2.93-1.07,6.5-2.5,8.9-.93,1.55,1.1,2.86,2.35,1.82a3.8,3.8,0,1,1,3.22,6.63,1.52,1.52,0,0,0-.36,2.74c4,2.21,5.69,6.56,6.49,10.87,1,5.36.82,10.94,1,16.36a1.51,1.51,0,0,0,2.79.76c1.06-2,2.32-4.23,4.47-5.15s4.26-.16,4.67,2.13c.89,4.91-1.58,10.4-4.92,13.86-1,1,0,3.08,1.46,2.51,5.31-2.07,12,3.22,11.13,8.93-.52,3.57-3.77,6.18-4.83,9.6-1,3.19,0,6.4,1.52,9.23,1.82,3.31,4.41,6.28,5.23,10,.42,1.89,3.31,1.09,2.9-.8Z" transform="translate(-560.44 -220.47)"/><path class="cls-2" d="M673.73,339.86a9.93,9.93,0,0,0,4.43,11.77,1.5,1.5,0,1,0,1.51-2.59c-.2-.11-.39-.23-.58-.35l-.28-.2c-.13-.09.14.12-.07-.06a8.6,8.6,0,0,1-1-.95s-.28-.37-.1-.12l-.16-.22c-.13-.19-.25-.38-.36-.58s-.22-.39-.32-.6c0,0-.19-.43-.07-.14l-.12-.31a8.59,8.59,0,0,1-.36-1.32c0-.11,0-.22-.06-.33,0,.22,0,.05,0-.07s0-.45,0-.68,0-.45,0-.68l0-.33c0,.22,0,0,0-.07a8.3,8.3,0,0,1,.38-1.38,1.5,1.5,0,0,0-1-1.84,1.52,1.52,0,0,0-1.84,1.05Z" transform="translate(-560.44 -220.47)"/><path class="cls-13" d="M660.68,344.07a2.77,2.77,0,0,1,1-.11c.43.27-.86.75-.43,1l.65-.09c-.23.3-.54.64-.79,1a6.39,6.39,0,0,0,.78,1.39,1.54,1.54,0,0,1,.54-.1c.22.16.06.49.07.8l.14.1a4.17,4.17,0,0,0,.51-.09,1,1,0,0,1,0,.39A29.13,29.13,0,0,0,668.5,351a7.58,7.58,0,0,1,1.7.21c.39.27.22.91.33,1.31,2.05-1.05,3.46-.78,5.44-2,0,.21.15.54.73.24a22.3,22.3,0,0,1,5-2.07c.33,0-.24.67.13.51.58-.25,1.06-.92,1.64-1.16,0-1.33-1.22-1.92-1.64-3.08-.55,0-1.18-.66-1.58-1.46a3.19,3.19,0,0,1-.4-2.12l0-.06c.06-.42-.16-.87-1.07-1.15l-1.87-.39-1.12.31c0-.2.08-.39-.34-.45-1-.38-2.15-.11-3.71.15a22.7,22.7,0,0,0-2.43.3c0-.17,0-.25.07-.42-.66,0,.35.49-.72.43.24-.17-.16-.34-.14-.51-.88.09-.31.61-1.18.63-.21-.09,1.17-.55.08-.54-.22,0-.24.18-.26.27a2.06,2.06,0,0,0-2.57-.26c0-.19.48-.46.33-.66h0c0,.09-.25.27-.26.36l0-.34-.45.07c-.13.09-.23.17-.25.26l0-.23c-.35.07-.69.14-1,.22-.69.3-1.71.62-1.73.78A9.55,9.55,0,0,0,660.68,344.07Z" transform="translate(-560.44 -220.47)"/><path class="cls-14" d="M906.36,256.35" transform="translate(-560.44 -220.47)"/><path class="cls-1" d="M740.92,342.8c3,2.4,6.68,4.67,10.64,3.19,4.56-1.71,7.48-7.12,4.65-11.61-1.66-2.63-5.38-3.92-8.15-2.13s-3.91,5.32-2.13,8.14a4.18,4.18,0,0,1,.57-4.9,3.38,3.38,0,0,1,1.62-.87c1.11-.07,1.32-.1.62-.1a2.48,2.48,0,0,1,1.59.42,4.22,4.22,0,0,1-.66-.36,6.51,6.51,0,0,1-.64-.43c.7.55.8.62.31.23a6.43,6.43,0,0,0-4.21-1.74,6,6,0,0,0-4.21,1.74c-2,2.17-2.59,6.33,0,8.42Z" transform="translate(-560.44 -220.47)"/><path class="cls-1" d="M697,329.52c-3.29-1.32-7.32.63-9.09,3.5-1.59,2.57-1.54,5.56-.94,8.42a7.15,7.15,0,0,0,7.37,5.61c3.49-.13,6.08-1.94,8.12-4.66a6,6,0,0,0,.6-4.58,6.07,6.07,0,0,0-2.74-3.56,6,6,0,0,0-4.59-.6,7,7,0,0,0-3.55,2.74,1.92,1.92,0,0,1,.81-.9q.57-.4.18-.15c-.6.33,1.3-.28.29-.1l.88-.1q-1.91-.06,1.91,1.71c.53.4,2.85,2.79,2.13,1l.1.74,0-.42c0-.54,0-.55,0,0a1.36,1.36,0,0,1-.21.76,3.38,3.38,0,0,1-1.45,1.63l-.87.36c-2.35-.29-3-.26-2,.1a6,6,0,0,0,4.59-.6,6,6,0,0,0,2.13-8.15,6.93,6.93,0,0,0-3.56-2.73Z" transform="translate(-560.44 -220.47)"/><path class="cls-15" d="M649.22,533.9a9,9,0,0,1-3.47-3.71,12.09,12.09,0,0,1-1.23-5.57v-7.79a12.06,12.06,0,0,1,1.23-5.57,9,9,0,0,1,3.47-3.72,10,10,0,0,1,5.18-1.32,9.74,9.74,0,0,1,4.5,1,9.41,9.41,0,0,1,3.42,3,11.19,11.19,0,0,1,1.87,4.44h-4.08a6.26,6.26,0,0,0-1.24-2.37,6.1,6.1,0,0,0-2-1.62,5.64,5.64,0,0,0-2.43-.56,5.39,5.39,0,0,0-5.07,3.19,8,8,0,0,0-.73,3.53v7.79a8,8,0,0,0,.73,3.51,5.47,5.47,0,0,0,2,2.36,5.59,5.59,0,0,0,3,.83,5.89,5.89,0,0,0,2.44-.53,5.74,5.74,0,0,0,2-1.56,6.22,6.22,0,0,0,1.24-2.46h4.08a11,11,0,0,1-1.88,4.43,9.55,9.55,0,0,1-3.43,3,9.69,9.69,0,0,1-4.48,1.05A10.1,10.1,0,0,1,649.22,533.9Z" transform="translate(-560.44 -220.47)"/><path class="cls-15" d="M673.45,529.68a1.76,1.76,0,0,0,.32,1.14,1.09,1.09,0,0,0,.91.4h1.87V535h-2.34a4.44,4.44,0,0,1-3.51-1.41,5.82,5.82,0,0,1-1.24-4V506.51h4Z" transform="translate(-560.44 -220.47)"/><path class="cls-15" d="M681.73,533.65a6.88,6.88,0,0,1-.16-9.23,7.6,7.6,0,0,1,5.14-1.5h5.76l.27,3.2h-6a3.39,3.39,0,0,0-2.34.7,2.72,2.72,0,0,0-.77,2.12,2.61,2.61,0,0,0,1,2.28,5.27,5.27,0,0,0,3.11.74,8.9,8.9,0,0,0,3.41-.49,1.59,1.59,0,0,0,1.12-1.52l.42,2.85a4.79,4.79,0,0,1-1.3,1.35,5.6,5.6,0,0,1-1.79.79,8.94,8.94,0,0,1-2.29.27C684.83,535.21,683,534.69,681.73,533.65Zm10.56-11.59a4.29,4.29,0,0,0-1.06-3.1,4,4,0,0,0-3-1.1,8,8,0,0,0-2.37.37,7.12,7.12,0,0,0-2.06,1l-2.91-2a7.51,7.51,0,0,1,3-2.16,10.82,10.82,0,0,1,4.19-.77,9.66,9.66,0,0,1,4.31.88,6.28,6.28,0,0,1,2.74,2.58,8.35,8.35,0,0,1,.93,4.07v13h-3.79Z" transform="translate(-560.44 -220.47)"/><path class="cls-15" d="M706.12,527a4.6,4.6,0,0,0,1.09,3.29,4,4,0,0,0,3,1.17,4.19,4.19,0,0,0,3-1,3.89,3.89,0,0,0,1.08-3l.27,4.24a6,6,0,0,1-2,2.52,5.74,5.74,0,0,1-3.46,1,6.43,6.43,0,0,1-5.19-2.16,9.2,9.2,0,0,1-1.82-6.09V514.64h4Zm8.25-12.32h4v20.27h-4Z" transform="translate(-560.44 -220.47)"/><path class="cls-15" d="M727,534.3a6.14,6.14,0,0,1-2.39-2.83,10.88,10.88,0,0,1-.82-4.45v-4.47a11.27,11.27,0,0,1,.8-4.47,6.08,6.08,0,0,1,2.33-2.83,6.83,6.83,0,0,1,3.69-1,6.13,6.13,0,0,1,3.29.93,7,7,0,0,1,2.41,2.64l-.41,4.14a4.87,4.87,0,0,0-.47-2.21,3.2,3.2,0,0,0-1.36-1.39,4.48,4.48,0,0,0-2.16-.48,3.85,3.85,0,0,0-3,1.23,5,5,0,0,0-1.09,3.46V527a4.89,4.89,0,0,0,1.09,3.41,3.9,3.9,0,0,0,3,1.2,4.37,4.37,0,0,0,2.16-.5,3.3,3.3,0,0,0,1.36-1.43,5,5,0,0,0,.47-2.25l.27,4.28a5.76,5.76,0,0,1-2,2.52,5.61,5.61,0,0,1-3.39,1A7.17,7.17,0,0,1,727,534.3Zm8.9-27.79h4v28.4h-4Z" transform="translate(-560.44 -220.47)"/><path class="cls-15" d="M746,506.51h4v4h-4Zm0,8.13h4v20.27h-4Z" transform="translate(-560.44 -220.47)"/><path class="cls-15" d="M756.87,533.65a6.88,6.88,0,0,1-.16-9.23,7.57,7.57,0,0,1,5.14-1.5h5.76l.27,3.2h-6a3.36,3.36,0,0,0-2.34.7,2.72,2.72,0,0,0-.77,2.12,2.61,2.61,0,0,0,1,2.28,5.27,5.27,0,0,0,3.11.74,8.94,8.94,0,0,0,3.41-.49,1.59,1.59,0,0,0,1.12-1.52l.41,2.85a4.53,4.53,0,0,1-1.3,1.35,5.55,5.55,0,0,1-1.78.79,8.94,8.94,0,0,1-2.29.27Q758.72,535.21,756.87,533.65Zm10.56-11.59a4.29,4.29,0,0,0-1.06-3.1,4,4,0,0,0-3-1.1,7.93,7.93,0,0,0-2.37.37,7,7,0,0,0-2.06,1l-2.91-2a7.48,7.48,0,0,1,3-2.16,10.89,10.89,0,0,1,4.19-.77,9.71,9.71,0,0,1,4.32.88,6.2,6.2,0,0,1,2.73,2.58,8.25,8.25,0,0,1,.94,4.07v13h-3.79Z" transform="translate(-560.44 -220.47)"/><circle class="cls-15" cx="26" cy="72.4" r="26"/><g class="cls-16"><path class="cls-17" d="M717.21,268.58l-8.2,5.81,16.24,27.77a88.07,88.07,0,0,0,10.69-9,16.48,16.48,0,0,0,1.28-21.54c-4.82-6.24-14.19-8.61-21.16-4.22a27.28,27.28,0,0,0-8.94,8.94c-3.53,5.62-2.62,13.31,1.3,18.37a15.76,15.76,0,0,0,6.62,5.1c3.68,1.55,6.8,1.45,10.77.83A25.06,25.06,0,0,0,741,291.82l-27.18-7.17.15.74-.58-4.31a12.3,12.3,0,0,1,0,2.27l.57-4.25a11.37,11.37,0,0,1-.56,2.21l1.6-3.78-.32.69c-1.82,3.95-2.79,7.8-1.59,12.14a16,16,0,0,0,7.24,9.41c8,4.23,16.57,1.63,21.55-5.65a24.05,24.05,0,0,0,3.84-13.8,16.4,16.4,0,0,0-10-14.86c-6.23-2.63-12.79-1.07-17.77,3.36a12.82,12.82,0,0,1-1.2,1l3.32-2.56a27.59,27.59,0,0,1-4.1,2.24l4-1.67a18.1,18.1,0,0,1-3,.94l18.69,24.3a7.39,7.39,0,0,1,.74-1.24l-2.58,3.34a11.59,11.59,0,0,1,1.49-1.56L732,296.19l.59-.43L712.74,270a60.64,60.64,0,0,1-7,6.9c-3,2.52-4.71,7.61-4.71,11.37a16.33,16.33,0,0,0,4.71,11.37c3.06,2.82,7.09,4.9,11.37,4.71,4.51-.2,7.89-1.88,11.37-4.71l7.79-6.32c2.82-2.29,4.77-7.61,4.61-11.14a16.19,16.19,0,0,0-3.38-9.54c-4.44-5.75-13.89-8.62-20.31-4.06Z" transform="translate(-560.44 -220.47)"/></g><g class="cls-16"><path class="cls-17" d="M737.84,280.51A32.78,32.78,0,0,0,722,295.28c-2.32,4.38,3.52,9.45,7.13,5.5l11.26-12.33c4-4.43-2.13-10.59-6.57-6.58A39.86,39.86,0,0,0,722.07,301c-1.65,5.94,7.65,8.5,9.22,2.54a30.64,30.64,0,0,1,9.07-15.05l-6.57-6.58-11.11,12.49,7.13,5.5a25,25,0,0,1,12.48-11.74c5.2-2.32.69-9.82-4.45-7.61Z" transform="translate(-560.44 -220.47)"/></g><g class="cls-16"><path class="cls-17" d="M743.81,331.39c-2.29,4.55-3.31,9.93-4.75,14.81-1.17,4,4.57,7.89,7.4,4.31,3.46-4.37,5.32-9.38,4.65-15-.6-5-7.41-6.51-9.09-1.23-1.77,5.58-3.49,11.21-4.81,16.91-1.38,5.92,7.49,8.41,9.13,2.52,1.56-5.65,3-11.34,4.6-17H742c.48,3.15-.67,5.93-2.51,8.42l8.09,3.41c1.28-4.95,3.17-10.08,3.55-15.18.29-3.87-5.62-5.41-7.34-2Z" transform="translate(-560.44 -220.47)"/></g></svg>